<?xml version="1.0" ?><svg xmlns="http://www.w3.org/2000/svg"><defs><clipPath clipPathUnits="userSpaceOnUse" id="a"><path d="M0 0h612v803.25H0V0z"/></clipPath></defs><text fill-opacity="0" font-size="34" font-weight="400" transform="matrix(1.35398 0 0 1.35398 26.066 54.482)"><tspan x="0 21.8314 41.0448 59.4762 77.771599" y="0">About</tspan></text><text fill-opacity="0" font-size="14" font-weight="400" transform="matrix(1.35398 0 0 1.35398 38.343 73.495)"><tspan x="0" y="0">t</tspan></text><text fill-opacity="0" font-size="6" font-weight="400" transform="matrix(1.35398 0 0 1.35398 27.397 80.81)"><tspan x="0 3.7409999 7.4099998 11.079 15.006" y="0">needs</tspan></text><text fill-opacity="0" font-size="10" font-weight="400" transform="matrix(1.35398 0 0 1.35398 49.405 83.676)"><tspan x="0 2.6370001 5.2140002 11.171" y="0">link</tspan></text><text fill-opacity="0" font-size="12" font-weight="400" transform="matrix(1.35398 0 0 1.35398 67.927 85.292)"><tspan x="0 4.2719998" y="0">to</tspan></text><text fill-opacity="0" font-size="6" font-weight="400" transform="matrix(1.35398 0 0 1.35398 81.951 82.581)"><tspan x="0 3.5976 5.3172002 9.2147999 12.7644 14.484 17.865601 19.7712 23.368799 27.152399" y="0">cipais.com</tspan></text><text fill-opacity="0" font-size="6" font-weight="400" transform="matrix(1.35398 0 0 1.35398 118.64 83.618)"><tspan x="0 3.8964 7.4447999 11.3412 15.0096 18.048 21.596399 25.1448" y="0">page1aaa</tspan></text><text fill-opacity="0" font-size="5" font-weight="400" transform="matrix(1.35398 0 0 1.35398 147.971 83.9)"><tspan x="0 3.247 6.204 9.4510002 12.508 14.19 17.357 19.374001 23.926001" y="0">page.htmi</tspan></text><g><g clip-path="url(#a)" transform="matrix(1.25 0 0 -1.25 0 1004.063)"><path d="M36.855 792.415c.314.32.58.746.735 1.1a.468.468 0 01-.866.357.468.468 0 11.866-.357c.077.181.14.382.169.542a.477.477 0 11-.942.149.477.477 0 11.942-.149c.027.17.014.412-.06.593a.485.485 0 11-.857-.456h-.001a.485.485 0 01.857.456c-.56.358-.832.38-1.02.39-.497-.227-1.254-.918-2.082-2.014-.573-.897-1.182-1.97-1.897-3.26a117.633 117.633 0 01-3.556-6.394c-1.389-3.07-2.618-6.245-3.375-8.499-.366-1.235-.573-2.17-.635-2.71a1.415 1.415 0 112.813-.307 1.415 1.415 0 11-2.813.307c-.04-.469-.032-1.048.196-1.662a1.301 1.301 0 012.31 1.2 1.301 1.301 0 11-2.31-1.2c2.374.592 2.816 2.548 3.364 5.144a.544.544 0 11-1.039.325.544.544 0 111.039-.325c.2.788.413 1.576.623 2.268a.317.317 0 11-.585.247c-.356-.65-.719-1.407-1.07-2.17-1.028-2.437-1.897-4.099-2.274-4.188 2.387-.537 2.44-.449 2.549-.02.044.408.206 1.125.543 2.252.666 2.165 1.793 5.24 3.078 8.221 1.049 2.3 2.206 4.55 3.184 6.425.64 1.374 1.133 2.459 1.546 3.297.599 1.004 1.026 1.545 1.185 1.699-.024.106-.166.17-.252.263-.387.311-.39.35-.403.267a1.296 1.296 0 00-.093-.334 2.5 2.5 0 00-.516-.83.451.451 0 01.647-.629"/><path d="M38.984 797.686c.037.226.065.381.087.479a.45.45 0 01-.88.194.45.45 0 01.88-.194c.01.046.014.061.016.066a.45.45 0 01-.85.298.45.45 0 01.85-.298.45.45 0 01-.17.557.45.45 0 11-.486-.76.45.45 0 01.623.138c-.033-.044-.247-.182-.462-.19-.194.056-.359.208-.406.242-.04.023-.079.059-.11.058a.338.338 0 01-.177-.057 1.564 1.564 0 01-.357-.4 53.917 53.917 0 01-.109-1.592c-.013-.958-.018-2.183-.004-3.63.019-2.598.09-5.869.252-8.903.11-1.205.239-2.325.374-3.357.811-4.09 1.742-6.997 1.922-7.164.042.03.156.229.33.378a.648.648 0 01.814-1.007.648.648 0 01-.814 1.007c.134.062.435.102.55.065a.593.593 0 01-.315-1.142h-.001a.593.593 0 01.315 1.142c.078-.048.17-.126.184-.16a.537.537 0 11-.722-.796.537.537 0 01.722.796c-.022-.09-.093-.112-.21-.044a.317.317 0 01-.565-.29 1.792 1.792 0 01.052-.462.766.766 0 01.224-.186c.126-.04.437.002.58.07.192.164.316.396.364.48.264.694-.196 3.66-.523 7.72a78.278 78.278 0 00-.41 3.187c-.232 2.935-.377 6.145-.473 8.727-.054 1.435-.09 2.637-.116 3.566a49.81 49.81 0 01-.074 1.586c-.12.197-.241.366-.367.484-.063.06-.13.13-.197.177-.035.027-.08.083-.124.12-.053.05-.223.209-.424.267-.22-.007-.442-.15-.483-.206a.865.865 0 01-.104-.293 10.903 10.903 0 01-.095-.527.45.45 0 01.89-.145"/><path d="M29.548 780.865c-.539.065-.859.126-1.008.183a.674.674 0 11.174-1.337.674.674 0 11-.174 1.337c-.057.01-.259-.034-.644-.446a.73.73 0 111.384-.465.73.73 0 11-1.384.465c.255-.844.543-.99.6-1.019a.786.786 0 11.245 1.552.786.786 0 11-.245-1.552c.08-.049.198-.095.33-.14.262-.052.68-.103 1.203-.152.26-.082.551-.164.863-.246.313-.045.651-.089 1.006-.132a1.366 1.366 0 01.02 2.732h-.001a1.366 1.366 0 01-.02-2.732c.71-.042 1.495-.08 2.309-.112a1.475 1.475 0 11-.013 2.95 1.475 1.475 0 01.013-2.95c1.22.077 2.517.166 3.74.27a1.26 1.26 0 01-.069 2.52 1.26 1.26 0 01.069-2.52c1.622.36 3.132.748 4.167 1.177a.317.317 0 11-.069.63c-1.06.201-2.547.443-4.166.713-1.208.039-2.478.093-3.685.16-.805-.04-1.574-.075-2.276-.107-.351-.038-.682-.075-.992-.112-.31-.074-.595-.146-.854-.218a26.037 26.037 0 01-1.15-.078c-.118-.032-.173-.065-.18-.1.016-.023.283-.162.54-.999-.383-.405-.56-.443-.566-.426.05.083.322.169.85.253a.45.45 0 01-.017.901zM52.341 782.423c.276.23.494.505.608.73a.55.55 0 11-1.047.336.55.55 0 011.047-.336c.108.27.078.695-.044.948a.65.65 0 01-1.04-.778.65.65 0 011.04.778c-.166.24-.525.454-.784.522a.748.748 0 01-.15-1.489.748.748 0 11.15 1.489c-.255.051-.63.023-.91-.057-1.39-1.12-2.482-4.402-2.368-7.35.058-1.165.372-2.52.993-3.536.949-1.006 2.248-1.675 3.439-1.867 1.192-.132 2.582.12 3.64.704 1.737 1.3 2.818 3.644 2.85 5.59a.924.924 0 11-1.847.056v.001a.924.924 0 111.847-.056c-.274 2.502-2.248 4.533-4.159 5.528a1.061 1.061 0 01-.926-1.91 1.061 1.061 0 01.926 1.91c-1.194.501-2.49.757-3.617.534a.69.69 0 01.141-1.371.69.69 0 01-.141 1.371c-1.073-.248-2.113-.956-3.002-2.124a.317.317 0 11.472-.424c.98.914 1.802 1.224 2.671 1.177.816-.023 1.545-.385 2.508-1.052 1.69-.753 3.133-2.033 3.284-3.706-.077-1.37-.874-2.926-2.123-3.667-.635-.293-1.333-.351-2.108-.17-.74.174-1.259.516-1.69 1.125-.328.417-.512 1.12-.603 2.1-.407 2.494.232 5.202.72 5.734-.16-.078-.187-.05-.146-.029.035.04-.082.138-.106.189.02.062.032.224.035.166.009-.1-.025-.215-.194-.426a.45.45 0 11.634-.64"/><path d="M52.312 794.887c.067.31.126.5.177.597a.53.53 0 11-1.029.253.53.53 0 011.029-.253c.041.069-.567-.283-.985-.018a.608.608 0 011.098.525.608.608 0 11-1.098-.525c-.063.086-.098-.258-.142-.886a.766.766 0 011.532.02.766.766 0 01-1.532-.02c-.088-1.263-.237-3.445-.418-5.838-.05-1.837-.126-3.799-.175-5.595a1.034 1.034 0 112.067-.075 1.034 1.034 0 01-2.067.075c-.032-.899-.058-1.76-.07-2.542a1.032 1.032 0 112.065-.035 1.032 1.032 0 11-2.065.035c.021-1.173.072-2.2.175-2.926a.908.908 0 011.809.154.908.908 0 01-1.809-.154c.238-.47.514-.859.818-1.02a.317.317 0 01.552.314c.125.154.279.416.439.86-.015.648.019 1.589.08 2.737.014.767.04 1.61.073 2.502.08 1.784.186 3.745.269 5.596-.028 2.416-.089 4.636-.21 5.932-.062.652-.144 1.126-.293 1.39-.46.354-1.12-.068-1.142-.253-.01-.157-.025-.403-.042-.733a.45.45 0 11.894-.117zM66.48 779.764c-.03.606.155 1.678.116 2.455a.567.567 0 01-1.128-.123.567.567 0 011.128.123 2.31 2.31 0 01-.13.662.658.658 0 01-1.13-.674.658.658 0 011.13.674c-.09.197-.347.457-.576.577a.749.749 0 01-.445-1.43.749.749 0 11.445 1.43c-.525.164-1.287.061-1.84-.274-.912-1.148-1.461-2.986-1.677-4.75-.124-.833-.178-1.804-.084-2.652.42-1.522 1.468-2.863 2.748-3.447a5.953 5.953 0 012.841-.211c1.848.642 3.661 2.17 4.66 3.798.62 1.086.943 2.294.911 3.332.019.743-.171 1.613-.579 2.267-.606.706-1.409 1.207-2.215 1.517a.8.8 0 11-.514-1.514.8.8 0 11.514 1.514 8.214 8.214 0 01-2.641.427.821.821 0 11.034-1.642.821.821 0 01-.034 1.642c-.577-.01-1.2-.1-1.72-.256a.83.83 0 11.493-1.584.83.83 0 01-.493 1.584c-.714-.407-1.347-1.026-1.59-1.734a.317.317 0 01.544-.327c.395.35.886.459 1.538.477.39.127.786.186 1.262.198a5.89 5.89 0 002.093-.3c.689-.197 1.215-.46 1.61-.854.182-.321.25-.773.2-1.388-.01-.841-.265-1.618-.814-2.456-.951-1.218-2.394-2.198-3.77-2.438a2.531 2.531 0 00-1.452.163c-.661.254-1.012.755-1.226 1.725-.108.496-.12 1.166-.064 1.948.046 1.633.332 3.088.718 3.729-.02.024.012.07.138.066-.07.07-.174.192-.145.19.05-.017.087-.037.137-.152.106-.572 0-1.644.11-2.385a.45.45 0 11.897.093M80.063 779.798c-.214.442-.566.801-.9.965a.592.592 0 01-.339-1.135.592.592 0 01.339 1.135c-.388.141-.941.052-1.283-.144a.734.734 0 11.918-1.145.734.734 0 01-.918 1.145c-.629-.435-1.123-1.463-1.172-2.497a1.017 1.017 0 012.03.128 1.017 1.017 0 01-2.03-.128c.143-1.102.684-2.395 1.58-3.4 1.391-1.125 3.361-1.925 5.185-2.113 1.918-.011 3.832.632 4.889 1.675.651.875.902 1.978.753 2.903-.277.98-.904 1.85-1.563 2.581-.31.384-.65.764-.97 1.12a.933.933 0 11-1.287-1.352.933.933 0 111.287 1.352c-.53.486-1.024.924-1.404 1.32a.895.895 0 11-1.318-1.21.894.894 0 111.318 1.21c-.285.231-.489.399-.638.567a.734.734 0 01-1.288-.706.734.734 0 111.288.706c-.178.034-.331.04-.485.09a.317.317 0 11-.618-.146c-.096-.187-.148-.427-.185-.65.132-.344.364-.725.608-1.071.417-.471.933-.967 1.434-1.461.365-.298.72-.591 1.055-.896.63-.646 1.091-1.209 1.26-1.78.049-.511-.09-.953-.522-1.404-.657-.586-1.942-.91-3.456-.778-1.431.177-2.841.8-3.814 1.673a3.582 3.582 0 00-1.089 1.989c-.144.553-.09.936.07 1.133.052.12-.047.151.027.154.13.025.248-.012.462-.29a.45.45 0 11.775.46M97.206 794.037c.023.221.043.385.062.494a.503.503 0 01-1.006.01v.001a.503.503 0 011.006-.01c.018.11.033.202-.238.65a.555.555 0 11-.536-.971.555.555 0 01.536.971c-.835-.39-.863-.485-.887-.583a.607.607 0 111.21-.086.607.607 0 01-1.21.086 4.86 4.86 0 01-.078-.416c-.11-.712-.243-2.065-.39-3.742-.162-1.67-.335-3.669-.477-5.655a228.12 228.12 0 01-.15-4.482c.012-1.62.053-2.954.13-3.969.06-.636.121-1.121.159-1.457.018-.167.03-.286.033-.363.074-.045.142-.003.214.07a.936.936 0 011.859-.227.936.936 0 01-1.859.227c.046.064.23.382.552.608a.833.833 0 11.734-1.496.833.833 0 01-.734 1.496c.45.044.871-.183.906-.268a.73.73 0 01-1.12-.937h.001a.73.73 0 111.12.937c-.071-.15-.238-.11-.469.102a.317.317 0 11-.59-.232c-.02-.325-.06-.575-.061-.807.052-.105.488-.34.947-.29.333.23.522.565.573.66.079.13.142.278.201.381-.017.121-.042.277-.07.448-.056.341-.13.793-.2 1.33-.02.9-.012 2.17.024 3.777-.03 1.364-.043 2.896-.038 4.428-.002 1.963.028 3.951.046 5.632.009 1.689.004 3.043-.025 3.756a5.61 5.61 0 01-.028.403c-.011.088-.03.09-.859-.303-.265.445-.248.433-.232.332.016-.104.03-.262.042-.482a.451.451 0 01.901-.023"/><path d="M93.045 785.224c-.12.09-.098.127-.025.135a.59.59 0 01-.88-.79.591.591 0 01.88.79c.051-.033.155-.24.186-.367a.661.661 0 01-1.318.107.661.661 0 111.318-.107c-.006-.13-.088-.335-.105-.391a.731.731 0 11-1.02 1.048.73.73 0 111.02-1.048c-.052-.038.422.027 1.26.13.568.025 1.246.05 1.997.08.744.07 1.553.144 2.372.224a1.211 1.211 0 11-.341 2.398 1.211 1.211 0 11.341-2.398c.81.154 1.636.315 2.414.484a1.096 1.096 0 11-.36 2.162 1.096 1.096 0 01.36-2.162c.392.07.78.144 1.144.219a1.082 1.082 0 11-.409 2.125 1.082 1.082 0 01.409-2.125c.316.32.616.643.88.967a.317.317 0 11-.145.618c-.366.176-.744.357-1.144.54-.35-.063-.713-.123-1.095-.182-.77-.089-1.581-.17-2.395-.247-.803-.151-1.603-.297-2.345-.44a34.128 34.128 0 01-1.993-.546c-.87-.205-1.59-.444-1.97-.799-.07-.11-.183-.366-.193-.55.027-.18.152-.442.252-.53.17-.101.401-.174.612-.198a.45.45 0 01.293.853M20.444 765.235c-.307.292-1.44.538-1.826.775a.805.805 0 01-.442-1.548.805.805 0 11.442 1.548c-.065.054-.051.087-.025.116a.912.912 0 01-.764-1.657.912.912 0 01.764 1.657c.022.008.117-.028.187-.058a.966.966 0 11-1.245-1.477.966.966 0 111.245 1.477c.085-.058.29-.35.37-.59.01-.272-.16-.72-.253-.855-.078-.089-.207-.191-.232-.224-.023-.045-.045-.09.04-.109.996.104 3.617.258 8.073.467 3.713.221 8.494.474 14.042.669 1.52.047 3.134.09 4.845.125 2.612.08 5.29.142 8.178.181a681.271 681.271 0 0014.562.12c2.07.045 4.131.08 6.135.103a1.348 1.348 0 01.016 2.697 1.348 1.348 0 11-.016-2.697c6.558-.136 12.832-.427 18.452-.678a1.12 1.12 0 01.13 2.235 1.12 1.12 0 11-.13-2.235c14.073-.564 23.626-.975 26.177.619a.605.605 0 01-.61 1.045.605.605 0 01.61-1.045c.228.247.415.564.452.847a.317.317 0 11-.572.275c-.13-.067-.26-.057-.49-.077-2.041-1.09-11.388-.335-25.444.571-5.603.404-11.902.848-18.523 1.14-2.049.046-4.125.08-6.186.103a361.38 361.38 0 01-4.073 0c-3.717.024-7.24.021-10.537-.004a459.44 459.44 0 01-8.22-.243c-1.705-.05-3.334-.11-4.867-.173a488.416 488.416 0 01-14.102-.826c-4.458-.306-7.16-.563-8.34-.79a2.3 2.3 0 01-.519-.261 2.548 2.548 0 01-.342-.291c-.115-.157-.295-.628-.282-.92.082-.263.3-.576.411-.655.096-.052.226-.11.293-.122.117-.012.258-.02.364-.011.59-.042 1.745-.051 1.743.032a.45.45 0 11.51.744zM33.804 755.802c-.035-.024-.022-.022-.025-.018a.147.147 0 11-.078-.283.147.147 0 11.078.283c-.004-.005.008-.015-.005.009a.143.143 0 11-.25-.14.144.144 0 01.25.14c-.037.054-.054.16-.06.293a.137.137 0 01-.273-.01.137.137 0 01.273.01c-.012.118-.003.23.013.352.025.154.052.293.076.387a.362.362 0 00.03.09c.004.004-.002-.02-.033-.071a.187.187 0 01-.267.26.187.187 0 01.267-.26.327.327 0 00-.324.101c-.02-.14-.06-.536-.1-.999-.023-.414-.048-.912-.09-1.497a74.597 74.597 0 00-.335-3.334 23.131 23.131 0 00-.146-1.382l-.016-.106a.16.16 0 01.282-.15.16.16 0 11-.282.15c.005-.01.125.035.195.005a.142.142 0 01-.19-.21.142.142 0 01.19.21c.011-.028.007-.03-.007.016a.124.124 0 11-.243-.045.124.124 0 11.243.045c-.015.049-.03.12-.043.22a.106.106 0 11-.211-.015c.002-.106.005-.19.01-.25a.376.376 0 01.061-.181c.096-.054.243.009.277.055.027.04.054.1.078.167.092.257.194.775.297 1.41.117.993.235 2.287.31 3.363.032.592.048 1.096.061 1.505.022.456.044.853.047 1.03-.007.057-.13.2-.332.152a.268.268 0 01-.046-.108l-.006-.125c-.004-.102-.01-.25-.014-.402a1.827 1.827 0 01-.025-.399 1.04 1.04 0 01.083-.417.372.372 0 01.177-.153.4.4 0 01.252.04.15.15 0 11-.15.26z"/><path d="M31.97 754.609a1.203 1.203 0 01-.188-.358.171.171 0 11.34-.045.171.171 0 11-.34.045.333.333 0 01.072-.225.182.182 0 01.225.286.182.182 0 01-.225-.286.373.373 0 01.22-.05c.104.026.167.13.142.234a.193.193 0 01-.374-.091.193.193 0 01.232-.142c.167.034.426.206.678.444.267.27.556.64.79 1.052.175.374.312.773.404 1.106.052.24.085.448.107.593l.026.163c.003.016.002.018.001.017a.446.446 0 00-.193-.128c-.204.064-.18-.301-.147-.711.034-.42.08-.898.15-1.324a.26.26 0 11.51.095.26.26 0 11-.51-.095c.082-.425.199-.827.36-1.07a.25.25 0 01.414.278.25.25 0 01-.414-.278.732.732 0 01.247-.147.178.178 0 01.183.304.178.178 0 01-.183-.304.434.434 0 01.261.019.106.106 0 11-.037.208c-.034.016-.029.04-.042.077-.01.033-.005.062-.015.121-.109.16-.192.481-.264.887-.084.404-.146.862-.198 1.272-.035.403-.065.784-.103.945-.362.13-.433.044-.446.015a.72.72 0 01-.025-.078 3.412 3.412 0 01-.04-.183c-.03-.146-.066-.34-.119-.553a6.8 6.8 0 00-.386-.995 4.583 4.583 0 00-.67-.96c-.206-.233-.376-.377-.43-.396-.002-.006.058-.017.096-.039a.396.396 0 00.043-.106c-.006.028.019.1.101.24a.15.15 0 01-.253.163zM26.671 743.308c-.05-.044-.265.052-.27.057a.157.157 0 11.314.026.157.157 0 11-.314-.026 1.327 1.327 0 01-.01-.067.165.165 0 01.329-.023.165.165 0 01-.329.023c-.01-.081-.03-.208-.055-.369a.18.18 0 11.356-.045.18.18 0 01-.356.045c-.05-.322-.124-.77-.202-1.235-.07-.427-.142-.87-.188-1.204a3.337 3.337 0 01-.026-.46.53.53 0 01.017-.097.391.391 0 01.235-.172.394.394 0 01.197.116.659.659 0 01.045.086c.085.292.207.793.343 1.331.163.629.348 1.309.524 1.833.14.38.265.645.381.773.044.043.08.069.12.083.036.016.033.018.05.008.014-.053.048-.422.075-.865.09-.73.15-1.582.163-2.296.005-.315-.002-.607-.01-.847.008-.167.016-.31.023-.412.004-.051.008-.09.012-.118a.118.118 0 01.006-.027c.003-.004.01.016.065.103a.181.181 0 11.245-.268.181.181 0 01-.245.268c.284-.049.268.114.261.292.003.2.033.44.13.65a.93.93 0 00.253.317c.175.034.442-.012.693-.03a.924.924 0 01.567.19c.219.305.338.756.392 1.17.025.21.036.433.023.623-.031.185-.086.35-.154.466-.071.117-.201.228-.333.249a.594.594 0 01-.38-.285 2.251 2.251 0 01-.2-.476 4.88 4.88 0 01-.191-1.278c.035-.521.183-1.03.394-1.368a.276.276 0 11.457.309.276.276 0 11-.457-.309c.12-.167.29-.321.46-.396a.263.263 0 11.211.48v.001a.263.263 0 11-.211-.48.818.818 0 01.611.032.25.25 0 11-.226.445.25.25 0 11.226-.445c.199.16.39.45.542.863a.106.106 0 01-.048.141.106.106 0 01-.141-.048c-.222-.342-.411-.485-.578-.51-.088-.047-.104-.04-.175.002-.078.034-.135.096-.214.224-.186.25-.317.636-.365 1.084-.02.389.02.808.098 1.148.038.17.08.303.13.406.046.102.066.138.085.142-.056-.004-.055-.02-.022-.102.036-.084.06-.19.07-.33a3.134 3.134 0 00-.058-.522c-.06-.386-.16-.738-.308-.917-.031-.05-.083-.063-.233-.083-.226-.046-.534-.07-.78-.199a1.206 1.206 0 01-.337-.413 2.049 2.049 0 01-.21-.736c-.021-.188-.033-.366-.041-.454.36-.034.368-.005.372.007a1.43 1.43 0 01.034.166c.015.105.03.252.043.42.002.241.001.545-.01.87-.041.728-.13 1.598-.249 2.327-.052.437-.123.867-.278 1.063-.147.08-.264.08-.348.052a.79.79 0 01-.245-.16c-.16-.181-.31-.492-.455-.886a26.89 26.89 0 01-.603-1.84c-.151-.538-.286-1.03-.374-1.28l.002.009c.007.008.075.06.16.082a.408.408 0 00.21-.142c.003-.011.005-.022.004-.01-.003.056.007.188.028.38.033.325.091.765.15 1.194.058.468.113.923.145 1.251.016.165.026.3.027.39 0 .046 0 .088-.005.117-.007.04-.23.147-.294.082a.15.15 0 01.25-.166zM31.272 742.172c.01-.03-.044-.231-.076-.47a.15.15 0 11.298-.039.15.15 0 01-.298.039 2.414 2.414 0 01-.033-.42.185.185 0 01.367.043.185.185 0 11-.367-.043.71.71 0 01.13-.397.219.219 0 11.296.323.219.219 0 11-.296-.323c.214-.075.368-.047.478.008.105.055.225.154.32.267.214.415.338 1.02.375 1.477a1.71 1.71 0 01-.017.531.615.615 0 01-.107.204.358.358 0 01-.236.095c-.214-.092-.385-.303-.527-.565a3.922 3.922 0 01-.354-.953 3.42 3.42 0 01.036-1.232.27.27 0 11.521.148.27.27 0 01-.521-.148c.099-.32.274-.624.489-.802a.254.254 0 11.325.39v-.001a.254.254 0 11-.325-.39.944.944 0 01.878-.123.236.236 0 01-.17.44.236.236 0 11.17-.44c.233.14.482.398.715.776a.106.106 0 01-.168.128c-.283-.302-.516-.435-.717-.463-.184-.074-.262-.046-.383.072-.133.111-.224.292-.293.561a2.582 2.582 0 00-.122 1.018c.047.304.143.607.253.855.108.247.21.406.271.444-.068-.019-.11-.005-.111-.019.006-.013.005-.03.009-.078.018-.087.01-.218-.016-.404-.056-.429-.184-.961-.364-1.262a.522.522 0 00-.147-.128c-.053-.034-.053-.038-.066-.031.08-.064.063-.033.04.065a1.668 1.668 0 00-.034.345c.028.214.083.422.075.538a.15.15 0 01-.298-.036z"/><path d="M34.944 742.52a.644.644 0 01-.114.5.186.186 0 01-.267-.26.186.186 0 01.267.26.748.748 0 01-.493.217.222.222 0 01.016-.444.222.222 0 01-.016.444c-.274-.017-.619-.176-.867-.46a.256.256 0 01.4-.32v.001a.256.256 0 11-.4.32c-.296-.488-.456-1.206-.504-1.808-.041-.417-.027-.857.118-1.158.13-.2.376-.355.599-.375.223.025.5.143.7.33.456.606.686 1.821.737 2.973.025.516.023 1.035 0 1.477-.04.548-.114.991-.164 1.201.008.071.017.131.028.169.005.02.004.055-.026.12a.19.19 0 01-.28-.256.19.19 0 11.28.256c-.127.067-.33-.066-.342-.095l-.018-.046c0-.193.022-.58.046-1.015.038-.763.064-1.704.15-2.488a.252.252 0 01.5.056h-.001a.251.251 0 11-.5-.056c.074-.44.169-.84.295-1.126a.179.179 0 11.337.12.179.179 0 11-.337-.12c.064-.143.146-.273.233-.358a.142.142 0 11.214.187.142.142 0 01-.214-.187.476.476 0 01.336-.13c.059.001.106.048.106.107a.106.106 0 01-.106.105c-.057.008-.08.036-.121.105a.962.962 0 00-.111.29c-.07.265-.109.631-.132 1.062-.087.762-.116 1.69-.16 2.465-.042.44-.083.822-.1.99a.375.375 0 00-.016-.032c-.011-.024-.213-.155-.338-.09-.027.06-.023.079-.011.07a.452.452 0 00.08-.142c.04-.21.105-.639.135-1.175.01-.433.002-.94-.034-1.445-.118-1.121-.392-2.232-.8-2.649a.454.454 0 00-.352-.043c-.06-.013-.045-.023-.089.051-.083.126-.09.414-.056.808.02.571.129 1.187.339 1.563a.678.678 0 00.474.305c.095.019.144.013.199-.034.065-.043.092-.085.083-.194a.15.15 0 11.297-.046M37.64 743.484c-.217.123-.453.185-.638.172a.18.18 0 11.052-.356.18.18 0 01-.052.356.62.62 0 01-.477-.381.21.21 0 01.404-.113.21.21 0 01-.404.113c-.05-.464.26-1.136.508-1.649a.248.248 0 01.44.226.247.247 0 11-.44-.226c.162-.293.278-.511.327-.742a.574.574 0 00.01-.284 1.113 1.113 0 00-.33-.47.485.485 0 00-.197-.12.229.229 0 11.124-.44.229.229 0 11-.124.44c-.062-.021-.07-.025-.11 0a.225.225 0 01-.207-.399v.001a.225.225 0 01.207.399c-.056.003-.097.017-.16.1a.165.165 0 01-.295-.15.165.165 0 11.295.15 1.07 1.07 0 00-.172.406.106.106 0 01-.21-.029c.01-.212.042-.392.088-.527a.822.822 0 01.246-.349.705.705 0 01.442-.042c.126.036.266.115.373.202.21.176.404.453.496.705.035.195.02.37-.015.509-.057.287-.194.572-.35.87-.266.493-.567 1.073-.536 1.34.003.067.016.085.118.104.113.03.257.007.45-.083a.15.15 0 11.138.267M45.203 745.667c0 .076 0 .126-.009.172a.167.167 0 01-.309-.128.167.167 0 01.309.128c-.32.002-.337-.07-.345-.123a.184.184 0 11.368-.01.184.184 0 01-.368.01 7.54 7.54 0 01-.035-.587.217.217 0 11.435.002.217.217 0 01-.435-.002c-.02-.556-.037-1.399-.066-2.262-.026-.71-.069-1.44-.092-2-.01-.45-.007-.812.037-.993a.703.703 0 01.086-.13.485.485 0 01.296-.095.25.25 0 01-.102.49.25.25 0 01.102-.49.395.395 0 01.157.13.227.227 0 01-.358.277.227.227 0 01.358-.277c.013.031.03.074.038.11a.203.203 0 01-.364.176.203.203 0 01.364-.176c.028.134.07.365.13.714a.106.106 0 11-.204.055c-.121-.327-.216-.515-.29-.593-.017-.016-.025-.014-.032-.009-.002.01.048.056.099.083a.512.512 0 00.25-.071c.02-.02.041-.049.048-.042-.022.073-.02.381-.005.823.009.554.039 1.287.052 2.009a93.034 93.034 0 01-.069 2.273c-.012.277-.024.48-.032.575-.004.046-.017.02-.331.006-.002.03.006.004.017-.067a.15.15 0 11.3.022M46.229 742.393c-.03.005-.08.033-.087.036a.157.157 0 01.256.183.157.157 0 11-.256-.183c-.003.001-.007.004-.004-.014a.164.164 0 11.316.09.164.164 0 11-.316-.09c.006-.039.01-.097.01-.18a.179.179 0 01.356.025.179.179 0 01-.356-.025 9.17 9.17 0 00-.023-.629c-.018-.2-.039-.405-.054-.577.004-.174.015-.33.043-.427a.473.473 0 01.062-.123.228.228 0 11.355.287.228.228 0 01-.355-.287.408.408 0 01.292-.065.224.224 0 01-.19.406.224.224 0 11.19-.406c.081.059.134.14.16.21a.215.215 0 11-.396.17v-.001a.215.215 0 11.396-.17c.002.097.01.239.027.43a.106.106 0 11-.203.058c-.086-.167-.157-.267-.22-.318-.02-.042-.005-.017.047.027a.42.42 0 00.252-.054c.018-.026.033-.056.034-.053a3.15 3.15 0 00.006.312c-.013.166-.022.37-.032.573-.005.237-.012.479-.035.662a1.243 1.243 0 01-.05.245.446.446 0 01-.056.107.299.299 0 01-.156.081.15.15 0 11-.013-.3M46.9 743.394c-.008.127-.177.203-.201.198a.157.157 0 01.108-.295.157.157 0 01-.108.295.578.578 0 01-.047-.015.164.164 0 11.162-.285.164.164 0 11-.162.285.652.652 0 01-.09-.042.178.178 0 01.207-.29.178.178 0 11-.207.29 1.01 1.01 0 01-.207-.15.206.206 0 11.324-.253.205.205 0 01-.324.253.45.45 0 01-.02-.197.155.155 0 11.31.023.155.155 0 11-.31-.023.268.268 0 01.083-.11.13.13 0 11.167.201.13.13 0 11-.167-.201c.029-.011.07-.02.095-.016a.106.106 0 01.04.208c-.003.007.017.008.032.01a.241.241 0 00.06-.069c.011-.036.013-.077.034-.079.01.03.048.073.09.114l.045.046c.004.005 0 .005-.007.005-.016-.002-.18.074-.19.197a.15.15 0 11.283-.1M47.4 742.067c.022-.21-.022-.584-.086-.962a.217.217 0 01.432-.047.217.217 0 01-.432.047c-.03-.187-.064-.37-.097-.53a.24.24 0 01.473-.075.24.24 0 11-.473.075 7.971 7.971 0 00-.07-.34.246.246 0 01.481-.1v-.001a.246.246 0 01-.481.1.48.48 0 00-.007-.026.25.25 0 01.465-.179.25.25 0 01-.465.179c.13.136.48-.111.48-.114.002.003.003.01.007.027.02.22.085.637.177 1.06.14.546.331 1.08.51 1.373a.477.477 0 00.15.152c.016.009.007.003.009-.001-.002 0-.039.004-.043.001-.02-.016-.003-.247.002-.57.01-.325 0-.712-.013-1.076-.002-.364-.009-.703-.004-.925.02-.084.04-.162.066-.215a.645.645 0 01.062-.112.223.223 0 01.385.224.223.223 0 01-.385-.224c.044-.047.238-.104.322-.06a.2.2 0 11-.223.33.2.2 0 11.223-.33.45.45 0 01.084.234.153.153 0 11-.292.088.153.153 0 11.292-.088l.033.326a.106.106 0 11-.207.045 1.648 1.648 0 00-.118-.283c-.033-.056-.044-.047-.015.009.071.035.253-.017.287-.047.017-.018.03-.036.037-.025.01.027.022.075.035.15-.011.205-.011.537-.015.904-.015.367-.033.77-.072 1.11-.045.34-.117.646-.24.802-.108.076-.195.09-.25.083a.455.455 0 01-.154-.072 1.035 1.035 0 01-.212-.259c-.23-.311-.474-.875-.654-1.436-.126-.434-.224-.862-.275-1.086a.83.83 0 01-.006-.046c-.001-.017.35-.268.482-.127.01.032.016.065.023.104.014.077.038.21.062.363.02.167.04.362.056.559.02.395.021.814-.052 1.071a.15.15 0 01-.294-.06M50.06 745.51c-.024-.304-.03-.594-.045-1.05a.195.195 0 11.39 0 .195.195 0 11-.39 0c-.045-.709-.129-1.779-.197-2.632a.263.263 0 11.525-.028.263.263 0 11-.525.028 34.871 34.871 0 01-.049-1.042.271.271 0 11.543-.01.271.271 0 11-.543.01c.005-.113.01-.196.025-.247.006-.027.188-.214.386-.15a.219.219 0 11-.308.312.219.219 0 11.308-.312c.034.05.048.087.05.102.001.026.005.063.01.11.05.215.14.564.246.897.13.345.29.66.447.895.116.17.223.301.298.354-.072-.022-.102-.013-.105-.025 0-.012-.004-.021-.006-.056a1.022 1.022 0 00-.06-.287c-.08-.314-.333-.749-.533-1.119-.112-.185-.22-.37-.266-.549a.179.179 0 11.348-.081.179.179 0 01-.348.081c-.056-.218-.032-.478.087-.662a.236.236 0 01.359.306.236.236 0 01-.359-.306c.237-.186.536-.252.814-.302a.26.26 0 11.078.514.26.26 0 01-.078-.514c.342 0 .694.01.966-.087a.106.106 0 01.103.185c-.282.213-.67.316-.991.416-.275.033-.476.056-.57.129-.043.015-.07.096-.06.25.024.114.108.254.22.444.215.36.5.817.624 1.2.02.17.012.326-.02.436a.478.478 0 01-.085.16.288.288 0 01-.177.079c-.18-.09-.319-.243-.448-.417a4.715 4.715 0 01-.524-.935c-.134-.34-.248-.693-.32-.903a.245.245 0 00-.044-.074c-.004-.001.005.025.036.072.195.06.375-.122.38-.138.013-.007.035.063.06.195.001.253.01.614.03 1.041.024.855.063 1.931.062 2.653-.014.467-.038.753-.044 1.049a.15.15 0 01-.3.008M59.042 745.394c-.044-.24-.08-.43-.109-.76a.202.202 0 11.404-.014.202.202 0 01-.404.014 82.32 82.32 0 01-.127-2.743.293.293 0 11.586-.003.293.293 0 01-.586.003c-.007-.505-.01-.961-.023-1.273a.316.316 0 01.632-.01.316.316 0 11-.632.01l.026-.31a.367.367 0 01.007-.05c.004-.002.04.074.115.145.043.015.14.03.184.02a.258.258 0 11-.078-.51.258.258 0 11.078.51.314.314 0 00.092-.06.237.237 0 01-.282-.38.237.237 0 01.282.38c.007-.027.01-.053-.005-.055a.193.193 0 11-.323-.211.193.193 0 11.323.211c-.037.004-.083.03-.139.086a.106.106 0 11-.194-.084c.005-.085.01-.158.01-.213a.347.347 0 01.046-.114.375.375 0 01.113-.07.482.482 0 01.2.023c.09.081.138.186.149.23.008.04.015.09.018.134.007.086.009.2.01.327-.003.302-.015.761-.023 1.263-.026.972-.045 2.069-.055 2.73-.006.323-.005.5.004.741a.15.15 0 01-.299.033"/><path d="M58.59 741.899c.073.07.114.087.166.09a.172.172 0 11-.085.334.172.172 0 01.085-.334c.046.007.065-.005.117-.033a.194.194 0 11.134.365.194.194 0 01-.134-.365c.106-.05.22-.172.365-.298a.238.238 0 11.285.383.238.238 0 11-.285-.383c.217-.111.43-.185.622-.192.156.01.337.07.461.168.13.198.192.389.227.542.03.095.048.173.057.21.002.008 0 .009-.002.008-.005-.003-.04-.03-.088-.042a.196.196 0 00-.102.071c0 .004.002.006.005-.003a4.215 4.215 0 01-.122-.789 2.51 2.51 0 01.29-.887c.145-.242.377-.46.624-.553.237-.058.527-.032.757.077.244.168.461.417.582.652.061.112.117.248.142.366a.641.641 0 01-.04.379.176.176 0 01-.316-.153.176.176 0 11.316.153c-.402.26-1.115.13-1.471.31a.202.202 0 01-.162-.37v-.001a.202.202 0 01.162.37c-.095.023-.151.044-.205.107a.154.154 0 11-.263-.16.154.154 0 11.263.16c-.062.068-.098.151-.102.303a.106.106 0 01-.097.114.106.106 0 01-.114-.098.872.872 0 01.05-.48.81.81 0 01.306-.316c.501-.196 1.226-.049 1.384-.165-.054.044-.063.019-.09-.055a.925.925 0 00-.135-.242 1.216 1.216 0 00-.459-.418.439.439 0 00-.357-.022c-.132.028-.238.12-.355.302-.124.185-.21.409-.259.678-.057.27-.082.571-.119.748 0 .03-.002.05-.006.065-.006.02-.056.074-.116.088a.222.222 0 01-.106-.058.379.379 0 01-.026-.04c-.027-.045-.059-.12-.1-.208a1.462 1.462 0 00-.232-.365c-.023.006-.077.005-.17.02-.11.001-.228.048-.384.13-.114.07-.29.2-.48.259a.657.657 0 01-.337.002.738.738 0 01-.303-.223.15.15 0 11.223-.201M72.664 742.175c.007.32.043.768-.075 1.073a.188.188 0 01-.343-.157.188.188 0 01.343.157.64.64 0 01-.376.353.213.213 0 01-.074-.42.213.213 0 01.074.42c-.35-.043-.702-.303-.984-.68a.261.261 0 11.43-.297.261.261 0 01-.43.297 5.915 5.915 0 01-.677-1.804c-.06-.486.022-.947.241-1.216a.87.87 0 01.555-.218.283.283 0 01.002.565.283.283 0 11-.002-.565c.182.01.41.087.619.214a.26.26 0 11-.26.451.26.26 0 01.26-.451c.163.098.352.241.542.418a.253.253 0 11-.341.375.253.253 0 01.341-.375c.062.122.128.256.194.397a.106.106 0 11-.154.146 3.16 3.16 0 00-.38-.169 2.532 2.532 0 00-.462-.34c-.169-.09-.267-.113-.358-.101-.079.002-.072.008-.106.065-.114.095-.151.323-.103.72a5.09 5.09 0 00.53 1.609c.205.327.41.511.542.538-.029.013-.013-.003.036-.09.11-.194.097-.586.116-.92a.15.15 0 01.3.006M74.3 742.292c-.022.06-.046.113-.066.152a.164.164 0 01-.272-.182.164.164 0 01.272.182.361.361 0 01-.128.125.177.177 0 01-.115-.334.177.177 0 01.115.334c-.083.019-.22-.043-.258-.09a.19.19 0 11.33-.188v-.001a.19.19 0 11-.33.188.54.54 0 01-.058-.143c-.042-.167-.052-.475-.051-.847.023-.368.055-.793.057-1.268a12.798 12.798 0 00-.311-2.216 3.742 3.742 0 00-.156-.547c-.022-.055-.022-.065-.017-.063a.252.252 0 01.325-.385.252.252 0 11-.325.385c.01.003.068.027.106.033a.245.245 0 11.028-.49.245.245 0 01-.028.49.439.439 0 00.14-.056.239.239 0 01-.328-.346h-.001a.239.239 0 01.328.346c-.03-.047-.088-.004-.153.164a.106.106 0 11-.21-.025c-.02-.2-.014-.363.035-.485a.45.45 0 01.217-.088.489.489 0 01.191.072.805.805 0 01.169.214c.081.148.167.377.246.64.143.639.26 1.554.287 2.35-.013.508-.056.95-.09 1.307-.035.36-.06.633-.058.754 0 .027-.006.023-.013.016-.018-.014-.133-.064-.188-.055-.026.02-.043.042-.028.027a.444.444 0 00.065-.095.15.15 0 11.273.125M74.227 745.067a.882.882 0 01-.23-.165.14.14 0 01.198-.196.14.14 0 01-.198.196.449.449 0 01-.102-.228.128.128 0 01.253-.037.128.128 0 01-.253.037c-.01-.143.038-.313.088-.568a.106.106 0 01.209.035c-.037.263-.067.41-.044.496.008.04.014.044.047.07a.607.607 0 00.163.09.15.15 0 11-.132.27M75.662 740.95c-.03-.343-.068-1.27-.128-2.069a.26.26 0 01.518-.016.26.26 0 01-.518.016c-.018-.362-.042-.704-.055-.929a.258.258 0 01.514-.03.258.258 0 01-.514.03.857.857 0 01.073-.339.217.217 0 01.375.22.217.217 0 01-.375-.22c.104-.089.369-.006.385.033a.42.42 0 01.01.07c0 .035.002.089.005.158.006.224.02.548.027.897.043.949.001 2.17.057 3.098.05.517.14.903.28 1.084.052.038.098.05.155.048.048.002.05-.01.084-.05.093-.086.197-.444.258-.908a4.968 4.968 0 00-.001-1.387 1.456 1.456 0 00-.125-.485.236.236 0 11.405-.24.235.235 0 11-.405.24c-.06-.133-.106-.2-.178-.237a.192.192 0 11.137-.36.192.192 0 01-.137.36c-.07-.048-.113-.058-.217.002a.149.149 0 11-.17-.244.15.15 0 01.17.244c-.118.063-.237.191-.364.427a.106.106 0 11-.191-.09c.111-.269.248-.466.384-.581a.637.637 0 01.525-.117c.163.051.33.192.447.356.112.165.21.395.27.637a5.8 5.8 0 01-.047 1.55c-.085.5-.25.974-.487 1.199a.616.616 0 01-.443.059.746.746 0 01-.313-.234c-.16-.276-.237-.725-.259-1.258-.056-.942-.014-2.164-.055-3.099a12.107 12.107 0 00-.158-.865.571.571 0 00-.04-.122c-.005-.01-.006-.001-.006.01.011.027.272.108.373.025.035-.078.048-.026.066.095.013.215.038.56.058.932-.012.812-.046 1.749-.089 2.096a.15.15 0 01-.3-.005M79.477 742a1.09 1.09 0 01-.745.178.174.174 0 01.058-.342.174.174 0 01-.058.342 1.358 1.358 0 01-.74-.395.197.197 0 11.291-.264.197.197 0 01-.291.264c-.265-.33-.446-.807-.518-1.225a.216.216 0 11.427-.066.216.216 0 01-.427.066 1.59 1.59 0 01-.03-.612c.097-.23.274-.42.466-.497.379.003.744.254 1.028.591.213.303.398.663.525.967a6.47 6.47 0 01.253.668c.004.02-.28.124-.297.095a.157.157 0 11.286-.131.158.158 0 01-.078.208.158.158 0 01-.208-.077 2.88 2.88 0 01-.206-.586 3.9 3.9 0 01-.065-.805.239.239 0 01.475.045.239.239 0 01-.475-.045c.027-.33.11-.677.251-.911a.253.253 0 01.423.278.253.253 0 01-.423-.278c.115-.126.294-.235.463-.245a.18.18 0 01.059.354.18.18 0 01-.059-.354.8.8 0 01.494.223.106.106 0 01-.124.171c-.154-.083-.24-.082-.311-.04-.058.027-.065.068-.098.169-.106.143-.168.384-.2.678a3.43 3.43 0 00-.047.698c.05.257.105.442.13.517-.014-.022-.297.08-.296.09l-.002-.018a1.746 1.746 0 00-.034-.126 4.978 4.978 0 00-.166-.461 5.067 5.067 0 00-.567-.84c-.257-.277-.5-.43-.646-.4a.592.592 0 00-.108.204c-.024.075-.02.212.012.394.053.387.187.779.393 1.047a.843.843 0 00.499.307.64.64 0 00.518-.084.15.15 0 11.169.249M81.007 741.927c-.08-.112-.199-.587-.249-1.058a.21.21 0 01.418-.027.21.21 0 01-.418.027 3.548 3.548 0 01-.029-.605.248.248 0 01.492.062.248.248 0 11-.492-.062c.012-.125.04-.261.082-.366a.261.261 0 11.475.219.261.261 0 11-.475-.219c.096-.08.228-.15.344-.147a.106.106 0 11.08.196c-.01.055.026.095.05.17a.59.59 0 00-.064.21c-.032.15-.044.325-.045.516.009.446.08.885.094.938a.15.15 0 01-.263.146M81.795 743.065a.292.292 0 01-.116.193.14.14 0 01-.144-.238.14.14 0 01.144.238.38.38 0 01-.164.031.128.128 0 110-.256.128.128 0 010 .256.393.393 0 01-.151-.047.117.117 0 01.109-.207c.057.03.079.101.048.158-.03.058-.1.08-.157.05a.27.27 0 01-.104-.15.106.106 0 01.208-.04c-.002-.001-.01-.02.004-.017.014.004.022.002.043-.002.02-.003.019-.006.02-.014l-.04.061a.15.15 0 01.3-.016M84.008 742.42c-.283.016-.712-.147-1.004-.291a.21.21 0 01.21-.365.21.21 0 01-.21.365 1.144 1.144 0 01-.264-.104.249.249 0 11.307-.391.249.249 0 01-.307.391.588.588 0 01-.22-.326.287.287 0 11.573-.025h.001a.287.287 0 01-.573.025c.12-.448.61-.905.757-1.332.043-.137.067-.28.06-.434a.22.22 0 01.437-.052.22.22 0 01-.437.052c-.022-.211-.086-.39-.205-.475a.185.185 0 01.21-.304.185.185 0 11-.21.304c-.101-.063-.25-.045-.39.045a.145.145 0 01-.17-.235.145.145 0 11.17.235c-.148.086-.232.209-.19.395a.106.106 0 11-.205.052.678.678 0 01.225-.682.836.836 0 01.738-.132c.25.165.403.463.462.735.036.208.03.435-.004.637-.198.585-.681 1.07-.68 1.237-.018-.087-.06-.138-.042-.111a.448.448 0 00.147.12c.27.178.619.353.81.365a.15.15 0 01.003.3M86.186 739.672c.058-.128-.044.082-.354-.193a.106.106 0 01.137-.161c.263.212.03.112.322.072a.15.15 0 01-.106.281M88.26 741.771c.016.08.066.238.096.368a.15.15 0 01-.293.066.15.15 0 11.293-.066.487.487 0 01-.013.19.171.171 0 11-.302-.162.171.171 0 11.302.162.349.349 0 01-.146.14.193.193 0 01-.09-.375.193.193 0 11.09.375.414.414 0 01-.203-.009.59.59 0 01-.148-.091c-.167-.25-.315-.65-.42-1.082a6.163 6.163 0 01-.146-.818 3.338 3.338 0 01.022-.791c.042-.156.116-.328.205-.448a.313.313 0 01.519.352.313.313 0 01-.519-.352.852.852 0 01.428-.275.286.286 0 01.137.554.285.285 0 11-.137-.554c.15-.034.36-.014.538.052a.29.29 0 01-.215.54.29.29 0 01.215-.54c.06.09.125.193.183.301a.106.106 0 11-.112.18.814.814 0 00-.286.06c-.11-.049-.14-.053-.186-.038-.04.012-.022.014-.046.072a.605.605 0 00-.055.232c-.042.17-.053.374-.045.617.003.245.027.495.064.742.065.41.157.756.234.921-.02-.019-.03-.018-.033-.013-.007.006-.06.005-.085.013a.28.28 0 00-.065.072c.006.006.01.018.018 0-.022-.077-.073-.235-.093-.336a.15.15 0 01.295-.059M89.803 741.715a.443.443 0 01-.37-.01.175.175 0 01.21-.28.175.175 0 01-.21.28.627.627 0 01-.202-.293.2.2 0 01.388-.1.2.2 0 01-.388.1c-.069-.214-.079-.522-.05-.8a.25.25 0 11.494.082.25.25 0 01-.494-.082c.09-.52.39-1.02.75-1.238a.917.917 0 01.757.144c.163.14.298.374.324.601a.182.182 0 01-.36.06v.001a.182.182 0 11.36-.06c-.027.488-.413.908-.698 1.26a.217.217 0 11-.33-.282.217.217 0 11.33.282c-.091.12-.166.226-.22.33a.245.245 0 11-.415-.26.245.245 0 11.415.26c-.122.107-.2.176-.224.276a.106.106 0 11-.208.037c-.072-.169-.045-.384.018-.573.086-.119.196-.24.304-.353.313-.347.657-.668.666-.957a.421.421 0 00-.23-.24c-.107-.06-.173-.063-.272-.005-.186.077-.39.387-.474.803-.057.236-.08.46-.055.614.01.075.01.098.025.112.008.024-.013.032.044.013a.15.15 0 11.115.278M92.152 741.173c-.31-.266-.415-.588-.471-.86a.278.278 0 01.555-.027.278.278 0 01-.555.027 2.262 2.262 0 01-.034-.505.276.276 0 11.55.047.276.276 0 11-.55-.047.773.773 0 01.154-.281.221.221 0 01.365.25v-.001a.221.221 0 01-.365-.25.474.474 0 01.152-.096.363.363 0 01.195.02c.18.199.313.483.415.76.062.223.105.437.151.6.061.047.12.077.177.087.046.005.025-.03.018-.064-.048.035.02-.115.103-.334.045-.15.09-.345.162-.515.053-.099.13-.21.212-.287a.637.637 0 01.41-.132c.297.242.463.551.598.828.095.166.182.328.255.451l.11.187c-.12-.018-.184-.403-.219-.773a.23.23 0 11.46.004.23.23 0 11-.46-.004c.007-.257.04-.518.122-.725a.269.269 0 01.485.231.269.269 0 01-.485-.231.95.95 0 01.382-.415.282.282 0 11.237.511.282.282 0 11-.237-.511c.182-.015.4.028.597.139a.106.106 0 11-.053.205c-.181.011-.258.075-.307.167-.066.019-.087.042-.134.135-.077.126-.119.297-.148.513-.04.34-.055.755-.162.916-.231.036-.332-.065-.426-.185-.095-.12-.201-.275-.311-.43-.188-.24-.373-.47-.513-.541.146.055.204.04.187.067a.427.427 0 00-.072.134c-.057.105-.104.27-.17.45-.103.26-.269.548-.501.667-.19-.007-.319-.084-.38-.168a1.158 1.158 0 01-.129-.292c-.072-.187-.13-.399-.199-.597-.117-.246-.255-.486-.358-.583.075.056.126.064.145.07.018-.002.05-.018.056-.01.006.018.019.041.028.102-.007.073.011.216.039.377-.028.284-.056.462.134.708a.15.15 0 01-.215.21zM98.346 745.204c-.009.003-.052-.238-.169-.72a.217.217 0 11.425-.083.217.217 0 11-.425.083c-.151-.519-.382-1.276-.615-2.107a.313.313 0 01.609-.146.313.313 0 11-.609.146 44.639 44.639 0 01-.404-1.634.338.338 0 01.661-.137.338.338 0 11-.661.137c-.104-.789-.122-1.406-.133-1.827a.276.276 0 11.55-.042.276.276 0 11-.55.042c-.003-.169-.003-.302-.008-.405a.243.243 0 01.481-.074.243.243 0 01-.481.074c.037-.058.074-.105.109-.152a.106.106 0 01.204-.058.968.968 0 01.167.136c.03.118.054.267.078.436.053.424.108 1.008.248 1.749.094.494.22 1.061.347 1.607.17.843.339 1.616.431 2.164.077.512.081.818.018.938a.15.15 0 01-.272-.127M99.24 741.17c-.232-.317-.208-.762-.222-1.292a.233.233 0 11.467.012.233.233 0 11-.467-.012 13.364 13.364 0 00-.21-1.542.242.242 0 01.474-.092.242.242 0 01-.474.092c-.052-.245-.107-.47-.15-.635a.229.229 0 11.44-.128h-.002a.229.229 0 11-.44.128c-.021-.113-.028-.169-.011-.16.015.012.12.06.222.04a.275.275 0 00.084-.126c-.007-.003-.012.01-.014.051.023.238.1.708.157 1.183.064.591.087 1.174.133 1.676.027.314.064.603.142.814.154.266.355.302.632.263.214.012.372-.006.479-.084.037-.027.085-.117.12-.274.04-.16.043-.325.005-.507-.105-.426-.6-.826-.957-.976a.554.554 0 00-.192-.057.152.152 0 11-.013-.304.152.152 0 01.013.304c-.042-.006-.023-.025-.022-.02-.03.07-.11.1-.18.07a.137.137 0 11.11-.25c.069.03.1.111.07.18-.016.01-.018.035.015.124a.121.121 0 01-.064.16.121.121 0 11-.095-.223.12.12 0 01.16.063c.034.096.103.217.222.379a.106.106 0 11-.167.13 2.208 2.208 0 01-.279-.414.49.49 0 01-.042-.328.357.357 0 01.259-.174.888.888 0 01.32.046c.436.142 1.067.608 1.282 1.167.064.246.076.509.04.727-.039.22-.152.46-.308.612-.28.132-.575.14-.801.1a1.004 1.004 0 01-.838-.622c-.078-.255-.107-.573-.122-.89-.045-.505-.068-1.085-.132-1.664-.087-.461-.194-.922-.251-1.17a1.09 1.09 0 01-.023-.136c0-.025.03-.098.095-.155a.333.333 0 01.242.052.9.9 0 01.148.26c.056.175.122.41.186.668.098.517.173 1.13.203 1.633-.042.569-.126.917.004 1.132a.15.15 0 01-.248.17zM102.368 740.705c.03.011.069.034.093.054a.156.156 0 11-.219.222.156.156 0 11.219-.222c.027.026.06.087.068.13a.162.162 0 01-.322.023.162.162 0 01.322-.023.328.328 0 01-.035.138.167.167 0 11-.272-.194.167.167 0 01.272.194.404.404 0 01-.07.075.94.94 0 01-.35.142 1.13 1.13 0 01-.518-.03 1.13 1.13 0 01-.425-.652c-.011-.247.091-.512.26-.65.3-.053.544.023.718.1.086.029.15.053.191.06.036.007-.015.022-.034.025a.188.188 0 01.276.256.188.188 0 11-.276-.256c-.032.01-.037-.193.03-.36a.147.147 0 01.278.096.147.147 0 01-.278-.096.44.44 0 01.217-.216.126.126 0 11.1.232.126.126 0 11-.1-.232.639.639 0 01.369.018.106.106 0 11-.055.204c-.12-.025-.175-.017-.214.01-.034.018-.03.03-.039.08-.024.098.01.258.018.399-.136.196-.28.22-.363.205-.077-.017-.16-.049-.243-.078-.169-.048-.332-.083-.427-.048.027-.003.005.069.02.198a.51.51 0 00.194.332.686.686 0 00.246.016.628.628 0 00.208-.04c.006-.001-.002.01-.005.016a.375.375 0 00-.015.078c.007.022.03.064.036.07.005.001.015.006.005 0a.15.15 0 01.12-.275zM104.611 741.01c-.137.027-.472.15-.763.118a.196.196 0 01.073-.384.196.196 0 01-.073.384.978.978 0 01-.425-.573.187.187 0 01.36-.095.186.186 0 11-.36.095c-.053-.18-.047-.42.052-.58a.178.178 0 11.296.199.178.178 0 11-.296-.199.873.873 0 01.688-.138c.219.079.42.231.548.396.125.284.138.57.153.675.035.077.065.12.08.101a.213.213 0 11-.358.232.213.213 0 01.358-.232c-.359-.019-.339-.175-.326-.382.056-.673-.176-2.311-.551-3.397-.177-.568-.315-.895-.452-.991a.209.209 0 00-.113-.049c-.041-.008-.04-.014-.06.003-.053.057-.084.3-.012.613.091.292.298.619.545.897.232.238.493.416.744.572.235.12.462.218.713.381.364.279.748.673 1.055 1.072.206.293.401.614.5.878.039.174.043.33.02.439a.495.495 0 01-.083.176.361.361 0 01-.214.094c-.25-.12-.455-.37-.582-.638-.15-.436-.137-.966.028-1.353a.23.23 0 11.416.2.23.23 0 11-.416-.2 1.17 1.17 0 01.52-.555.255.255 0 11.197.472.255.255 0 11-.197-.472c.181-.045.413-.039.621.036a.18.18 0 11-.086.351.18.18 0 11.086-.351c.197.074.42.213.646.417a.106.106 0 01-.129.168c-.237-.151-.43-.22-.602-.234-.16-.016-.249.017-.34.085-.135.04-.217.124-.3.283-.157.285-.19.67-.088 1.018.086.213.224.396.319.452-.094-.02-.145.002-.151.002 0 0-.003.005 0-.021a.614.614 0 00-.029-.256c-.081-.197-.261-.474-.467-.75a5.551 5.551 0 00-.937-1.033c-.207-.17-.404-.286-.632-.436a4.133 4.133 0 01-.828-.588c-.28-.295-.53-.667-.655-1.01-.1-.38-.07-.759.06-.97a.567.567 0 01.36-.15.801.801 0 01.322.094c.275.182.501.604.717 1.187.377 1.145.606 2.857.536 3.611-.035.228-.084.432-.14.539-.394-.048-.402-.147-.404-.245-.027-.137-.04-.377-.131-.563a.802.802 0 00-.351-.25c-.137-.024-.27-.005-.345.063a.719.719 0 00.053.233c.04.151.11.263.213.323.106.027.4-.058.588-.063a.15.15 0 11.03.3zM111.798 744.098a.923.923 0 00.07.286.171.171 0 11-.324.108h-.001a.171.171 0 01.324-.108c.012.025.011.016-.017-.023a.181.181 0 01-.23.28.181.181 0 01.23-.28c-.068-.035-.276.061-.292.102a.187.187 0 01.367.067.187.187 0 01-.367-.067c-.003.018-.005.033-.008.025a.192.192 0 01.38-.048.192.192 0 11-.38.048c-.105-.283-.654-1.629-1.211-2.964a.263.263 0 01.488-.195.263.263 0 01-.488.195c-.566-1.487-1.14-2.957-1.143-3.003a.19.19 0 11.325-.196c.073.077.694 1.533 1.306 3.004.514 1.355 1.022 2.727 1.098 3.083a.353.353 0 010 .118c-.018.052-.232.151-.306.11a.384.384 0 01-.076-.148 1.774 1.774 0 01-.046-.378.15.15 0 01.3-.015zM114.24 742.557c.047.09.08.152.103.19a.16.16 0 01-.284.144.16.16 0 01.284-.144c.022.037.021.032-.279.12a.168.168 0 01.335.013v-.001a.168.168 0 01-.335-.013c.006.061-.034-.02-.101-.162a.185.185 0 01.34-.145.185.185 0 01-.34.145 48.924 48.924 0 01-.588-1.31c-.209-.493-.404-1-.53-1.402a5.57 5.57 0 01-.123-.465.774.774 0 01.006-.394.474.474 0 01.148-.11.236.236 0 11.177.438.237.237 0 01-.177-.438.38.38 0 01.18.014.218.218 0 01-.15.409.218.218 0 01.15-.409c.045.035.09.087.108.127a.18.18 0 01-.274.235.18.18 0 01.274-.235c.027.07.066.176.113.317a.106.106 0 11-.186.1c-.087-.11-.153-.166-.2-.183-.02-.004-.007.022.015.048.023.013.102.02.147.014a.497.497 0 00.126-.088c.01-.065.01-.04.027.067.016.11.048.253.093.42.109.386.286.877.483 1.368.2.523.409 1.037.521 1.332.057.147.091.244.096.32-.3.095-.32.056-.34.012a15.8 15.8 0 00-.09-.203.15.15 0 11.27-.13"/><path d="M114.01 742.088c.01.073.016.071.028.064a.171.171 0 11-.221.261.17.17 0 11.221-.261c-.007-.003-.049-.016-.025-.035a.192.192 0 11.123.363.192.192 0 11-.123-.363c.064-.03.155-.132.254-.303a.233.233 0 11.384.264.233.233 0 01-.384-.264c.095-.202.152-.526.19-.89.034-.289.051-.586.067-.852.033-.265.065-.506.113-.665a.277.277 0 11.536.137.277.277 0 11-.536-.137.63.63 0 01.17-.297.284.284 0 11.324.466.284.284 0 01-.324-.466c.08-.011.22 0 .274.047a.195.195 0 11-.14.363.195.195 0 11.14-.363.355.355 0 01.062.156.106.106 0 11-.162.136c-.034.005-.04.037-.04.072.023.034.135.05.19.056.04-.05.057-.082.043-.034-.022.112-.033.32-.05.584-.032.263-.067.574-.12.878-.07.379-.175.772-.34 1.052-.163.214-.362.375-.529.423a.42.42 0 01-.318-.067.496.496 0 01-.107-.307.15.15 0 11.3-.017z"/><path d="M113.082 740.644c.15-.11.433-.135.747-.133a.21.21 0 11-.03.42.21.21 0 11.03-.42c.364.022.805.075 1.193.09.122.005.216.108.21.23a.221.221 0 01-.442-.02.221.221 0 01.232-.21c.22.048.417.085.583.097a.106.106 0 01.033.21 2.872 2.872 0 01-.637.134c-.406-.023-.851-.083-1.202-.111-.298-.042-.5-.064-.546-.04a.15.15 0 01-.171-.247M116.59 740.93c-.093-.024-.386-.08-.625-.273a.251.251 0 11.367-.344.252.252 0 01-.367.344 1.6 1.6 0 01-.229-.724.263.263 0 01.527-.018.263.263 0 01-.527.018.99.99 0 01.064-.387.26.26 0 11.478.205.26.26 0 11-.478-.205.72.72 0 01.295-.304c.384-.082.887.078 1.144.38.158.26.204.606.074.853a.199.199 0 01-.343-.2.198.198 0 01.343.2c-.249.143-.456.17-.608.22a.152.152 0 01-.12-.28.152.152 0 01.12.28.437.437 0 00-.165.078.13.13 0 01-.192-.172.13.13 0 01.192.172c-.043.033-.06.052-.061.119a.105.105 0 01-.097.114.105.105 0 01-.114-.098.451.451 0 01.08-.308.77.77 0 01.238-.185c.172-.09.363-.145.465-.217a.89.89 0 00-.139-.334c-.15-.16-.46-.226-.636-.143.003-.002.015-.01.002.03-.02.042-.022.077-.016.159a.91.91 0 00.104.449c.062.118.266.204.387.317a.15.15 0 11-.162.253"/><path d="M116.573 742.392a.482.482 0 01-.292.16.184.184 0 11.022-.367.184.184 0 11-.022.367.557.557 0 01-.31-.123.217.217 0 11.313-.301.217.217 0 11-.313.301c-.23-.24-.403-.757-.462-1.252a.244.244 0 11.485-.048.244.244 0 01-.485.048c-.044-.497.028-1.057.295-1.354a.232.232 0 01.333.323.232.232 0 01-.333-.323.672.672 0 01.548-.061.106.106 0 01.09.12.106.106 0 01-.12.09c-.127.02-.156.077-.186.174-.158.141-.191.537-.142.983.034.448.151.858.29.999.024.044.01.051.018.057.015.017.01.03.057-.004a.15.15 0 01.215.21M117.861 740.75a.453.453 0 01-.178-.023.158.158 0 11.138-.285.159.159 0 01-.138.285.35.35 0 01-.137-.14.167.167 0 01.314-.112.167.167 0 11-.314.112.525.525 0 01.02-.321.183.183 0 01.335.148.183.183 0 01-.335-.148c.07-.183.23-.407.383-.571a.964.964 0 01.377-.182.517.517 0 01.196.01.42.42 0 01.174.128.18.18 0 01-.294.212v-.001a.181.181 0 11.294-.212c.07.23.049.467-.006.657a.203.203 0 11-.385-.13.203.203 0 11.385.13 1.206 1.206 0 01-.124.28.214.214 0 01-.351-.246.214.214 0 11.351.246.602.602 0 01-.257.212.225.225 0 01-.121-.434c.001.01-.004.016.027-.024a.563.563 0 00.09-.164c.058-.145.085-.292.068-.381.031.067.059.09.054.093-.005 0 .003.003-.018.012a.456.456 0 00-.175.116c-.13.113-.269.272-.333.396-.033.058-.043.065-.041.061-.007-.003-.036-.031-.039-.033.001.005-.004.007.026.008a.15.15 0 11.014.3M119.457 740.343c.103-.361.442-.703.86-.797a.23.23 0 01.062.457.23.23 0 11-.062-.457c.26 0 .558.073.733.234a.164.164 0 11-.206.254.164.164 0 11.206-.254c.12.185.116.395.06.58a.149.149 0 11-.286-.083h-.001a.149.149 0 11.286.083c-.058.18-.164.385-.285.584a.135.135 0 11-.233-.135.135.135 0 11.233.135c-.242.398-.559.814-.74 1.097a.106.106 0 11-.181-.109c.171-.304.47-.728.688-1.123a2.39 2.39 0 00.232-.532c.04-.152.041-.228-.01-.277-.078-.037-.252-.038-.445.004-.294.004-.516.178-.627.438a.15.15 0 01-.284-.098M121.544 742.888c.016.056.028.08.039.09a.16.16 0 01-.285.15.16.16 0 01.285-.15c.002.004-.077-.051-.149-.056a.171.171 0 01.095.33.171.171 0 11-.095-.33c-.05.025-.082.056-.079.04a.182.182 0 01.333.146.182.182 0 01-.333-.146c.006-.02.01-.05.019-.098.034-.197.065-.555.092-.942a.234.234 0 11.466.05.234.234 0 01-.466-.05c.02-.356.04-.748.077-1.093a.258.258 0 11.511.068.258.258 0 01-.511-.068c.056-.344.14-.67.27-.872a.228.228 0 11.388.24.228.228 0 01-.388-.24.553.553 0 01.296-.113.106.106 0 01.138.058.106.106 0 01-.057.138c-.013.045.006.086.011.156-.072.126-.113.373-.147.7-.05.327-.084.706-.121 1.07-.056.394-.118.77-.186.99a.968.968 0 01-.059.151.36.36 0 01-.159.144c-.099.003-.206-.072-.231-.123a.898.898 0 01-.047-.171.15.15 0 01.293-.068"/><path d="M121.927 741.032a.308.308 0 01.124-.14.145.145 0 01.137.255.145.145 0 01-.137-.255.626.626 0 01.144-.044.14.14 0 01.058.272.14.14 0 01-.058-.272 2 2 0 01.36-.02c.07 0 .127.058.128.129a.128.128 0 01-.256 0c0-.07.057-.128.127-.128.266.007.593.049.84.119a.106.106 0 01-.052.205 3.398 3.398 0 00-.787-.068 1.396 1.396 0 00-.302.035.164.164 0 00-.064.026c-.01.005.017-.02.03-.042a.15.15 0 01-.292-.073M124.095 739.818l-.004.194a.106.106 0 11-.207.044l-.083-.175a.15.15 0 11.294-.063"/><path d="M124.287 741.798a1.5 1.5 0 01-.006.386.179.179 0 01-.334-.129.179.179 0 01.334.129c-.02.056-.146.15-.252.149a.193.193 0 11.106-.371.193.193 0 11-.106.371.415.415 0 01-.168-.129.207.207 0 01.36-.205.207.207 0 11-.36.205c-.092-.13-.194-.427-.267-.758a7.493 7.493 0 01-.068-1.43c.036-.371.128-.687.232-.868a.636.636 0 01.294-.159c.05-.004.14.003.192.03a.326.326 0 01.109.15c.002.415-.482 1.643-.62 2.585-.03.428.034.741.167.96.12.21.237.28.433.266a.57.57 0 00.473-.198c.264-.345.3-1.073.106-1.485a.458.458 0 00-.249-.231.206.206 0 01.142-.386.206.206 0 01-.142.386.466.466 0 00-.345-.042.172.172 0 01-.11-.327c.09-.03.188.019.219.109a.172.172 0 01-.109.218.369.369 0 00-.275.207.139.139 0 11-.253-.116.14.14 0 01.253.116c-.075.132-.102.305-.049.562a.106.106 0 11-.205.05c-.08-.285-.07-.541.002-.728a.808.808 0 01.418-.418.985.985 0 01.596-.017c.19.06.398.208.53.396.245.57.195 1.492-.159 2.008a1.25 1.25 0 01-.848.381 1.031 1.031 0 01-.8-.55c-.144-.297-.206-.723-.154-1.205.169-.995.673-2.228.686-2.485.008.08.038.125.054.148.024.016.08.025.093.035.016.013.038.025.03.076-.056.07-.126.27-.166.58-.03.389-.009.884.046 1.303.03.308.078.555.105.633.002.014-.035-.016-.086-.038a.355.355 0 00-.188.093c.018-.011.034-.085.039-.25a.15.15 0 11.3-.007M126.888 740.891a2.005 2.005 0 01-1.111.145.242.242 0 01.132-.466.242.242 0 01-.132.466c-.23-.074-.459-.22-.583-.385a.261.261 0 01.436-.287.261.261 0 01-.436.287c-.09-.277-.034-.575.117-.745a.245.245 0 01.354.336.245.245 0 01-.354-.336c.366-.12.73-.008.952.045.07.016.106.024.132.023.022.003-.011.026-.015.025-.024-.034-.069-.274-.027-.458a.136.136 0 01.267.053.136.136 0 11-.267-.053.418.418 0 01.072-.146.128.128 0 11.202.159.128.128 0 11-.202-.159.332.332 0 01.156-.09.12.12 0 01.053.236.121.121 0 01-.053-.236c.102-.013.246.021.414.11.053.025.074.089.048.14a.106.106 0 01-.141.049c-.154-.07-.227-.08-.268-.062-.016.004-.004 0-.008.011-.006.01-.004.014-.007.04-.017.113.045.322.064.49-.08.173-.186.228-.259.24a.9.9 0 01-.222-.011c-.248-.016-.545-.08-.631-.008.042-.018.041.03.086.116.012.027.108.096.263.154.252.107.6.1.863.035a.15.15 0 01.104.282M128.786 740.597c-.083.159-.264.308-.447.394a.173.173 0 11-.133-.321.174.174 0 11.133.321 1.018 1.018 0 01-.628.074.197.197 0 01.123-.375.197.197 0 11-.123.375c-.252-.174-.372-.464-.416-.715a.2.2 0 11.393-.066.2.2 0 11-.393.066 1.11 1.11 0 01-.023-.454.826.826 0 01.335-.413c.3-.051.613.082.846.284.215.238.378.533.472.716.062.14.092.226.07.188a.123.123 0 01-.15.193h-.001a.122.122 0 01.15-.193c-.171-.073-.575-1.931-1.096-3.343-.217-.696-.423-1.212-.656-1.457-.08-.1-.123-.137-.187-.144a.388.388 0 00-.317.112c-.086.182-.007.657.224 1.154.198.39.496.76.801 1.06.736.706 1.5.964 1.956 1.26.102.058.193.12.269.198.162.185.288.423.38.65.043.163.076.335.08.454a.697.697 0 01-.047.232.387.387 0 01-.082.107.322.322 0 01-.192.034 1.566 1.566 0 01-.318-.554 1.696 1.696 0 01-.139-.607 1.09 1.09 0 01.202-.6.263.263 0 11.39.352.263.263 0 11-.39-.352.819.819 0 01.386-.202.247.247 0 11.1.483.247.247 0 11-.1-.483c.135-.02.314-.003.479.05a.23.23 0 01-.134.442.23.23 0 01.134-.442c.114.08.243.183.372.308a.106.106 0 01-.108.182 1.087 1.087 0 00-.398-.048c-.12-.032-.181-.03-.246-.009-.059.014-.064.026-.094.07-.07.057-.1.136-.116.28-.028.147-.023.298.015.455.055.18.116.345.158.425-.128-.082-.205-.067-.229-.055-.015.013-.033.036-.035.032.001-.012 0-.034-.004-.085a3.909 3.909 0 00-.11-.339 1.931 1.931 0 00-.19-.597.68.68 0 00-.169-.175c-.421-.279-1.215-.556-1.985-1.292a4.606 4.606 0 01-.885-1.108c-.267-.528-.382-1.107-.26-1.46a.932.932 0 01.597-.352.872.872 0 01.541.223c.314.328.576.924.813 1.632.439 1.471.757 3.39.63 3.649-.24-.006-.27-.103-.32-.222-.105-.156-.271-.414-.467-.598-.193-.146-.388-.217-.508-.17-.01.021-.043.083-.066.186a.553.553 0 00.013.263c.036.225.093.386.198.445.048.022.175.01.322-.045.15-.052.264-.127.317-.217a.15.15 0 01.264.144M132.33 739.739c-.005.01-.013.048-.02.057a.172.172 0 11.306-.158.172.172 0 01-.306.158c0 .008.026.04.05.061a.183.183 0 11.161-.33l.001.001a.183.183 0 11-.161.33c.02.01.086.019.126.014a.189.189 0 11-.11-.361h-.001a.189.189 0 11.11.361.347.347 0 00.11-.083.194.194 0 01-.345-.18.194.194 0 01.345.18c-.018-.053-.049-.057-.052.029a.106.106 0 01-.202.063.51.51 0 01-.091-.272.35.35 0 01.125-.098.325.325 0 01.147.017.32.32 0 01.093.11.363.363 0 01-.02.242.15.15 0 11-.265-.141M134.712 743.125v.103a.16.16 0 11-.316-.054h-.001a.16.16 0 11.316.054c-.002.029-.04.11-.233.156a.17.17 0 11.131-.315.17.17 0 01-.131.315c-.092-.08-.114-.134-.122-.16a.18.18 0 11.357-.059v.001a.18.18 0 01-.357.059.997.997 0 01-.02-.091c-.028-.14-.058-.39-.096-.677a61.102 61.102 0 00-.27-1.82c-.054-.327-.103-.617-.129-.817a1.14 1.14 0 01.033-.256.475.475 0 01.084-.16.338.338 0 01.17-.058c.037.01.083.034.1.05.136.183.312.534.451.835.068.145.118.258.165.324.032.003.048-.006.063-.026.002-.011-.05-.006-.06-.029a.214.214 0 11.332.27.214.214 0 01-.332-.27c.052-.134.075-.729.287-1.111a.218.218 0 01.376.221.218.218 0 01-.376-.221.73.73 0 01.455-.341.231.231 0 11.06.459.231.231 0 11-.06-.459c.065.034.139.079.194.132a.106.106 0 11-.042.207.258.258 0 00-.092.12c-.068-.005-.082.012-.138.103-.166.26-.187.82-.3 1.107-.109.113-.243.155-.33.136a.468.468 0 01-.204-.153c-.075-.107-.13-.233-.193-.372-.168-.275-.367-.59-.478-.69.035.036.07.055.099.064a.335.335 0 00.145-.048c.032-.037.053-.077.062-.07.016.025.04.078.07.17.016.195.054.478.098.808.075.577.167 1.29.22 1.85a16.59 16.59 0 01.013.754c-.001.012-.017-.02-.104-.097-.187.047-.219.113-.214.105a.329.329 0 00.018-.074.15.15 0 11.3.026zM135.924 742.905c.286-.745.134-2.603.128-3.05a.236.236 0 01.471.025c-.05.404.044 2.307-.321 3.14a.15.15 0 11-.278-.115"/><path d="M136.073 740.843c.473.022 1.13-.005 1.473-.01a.177.177 0 11-.005.354c-.333-.013-.999-.003-1.488-.044a.15.15 0 11.02-.3"/><path d="M137.418 741.139c.044-.19.09-.43.084-.656a.173.173 0 11.347.005.173.173 0 11-.347-.005 2.216 2.216 0 00-.243-.54.232.232 0 01.424-.189.232.232 0 01-.424.189.409.409 0 01-.011-.18.225.225 0 01.436.11v-.001a.225.225 0 01-.436-.11c.022-.055.183-.168.273-.164.053.021.1.056.114.07.028.04.058.095.087.157.08.227.201.593.323.878.088.185.158.305.21.325-.062-.03-.089-.032-.078-.057.015-.023.018-.043.028-.098a4.751 4.751 0 00-.036-.498c-.002-.062-.01-.146-.012-.213a.714.714 0 01.003-.104.414.414 0 01.015-.073.317.317 0 01.122-.124c.313.177.645.68.86.932.043.062.07.101.092.128.02.026.01.024-.013.017-.085.008-.142-.336-.164-.69-.015-.237-.009-.505.065-.7a.238.238 0 11.423.217v.001a.238.238 0 11-.423-.217.612.612 0 01.21-.204.224.224 0 11.211.396.225.225 0 01-.211-.396.562.562 0 01.31-.024.211.211 0 01-.09.412.211.211 0 11.09-.412c.05.047.106.107.15.17a.106.106 0 01-.101.186.236.236 0 00-.139.056c-.032-.005-.006-.003-.009.008-.005.003.012-.006.002.025-.069.082-.098.263-.117.486-.028.337-.02.708-.113.854-.162.049-.22.012-.255-.023a1.463 1.463 0 01-.113-.13c-.24-.242-.591-.726-.716-.808.207.006.258-.057.268-.076.005-.014.01-.032.013-.032a.116.116 0 01.026.042c.024.053.057.134.089.23.012.223.015.479-.018.674a.648.648 0 01-.202.277.438.438 0 01-.283.06c-.18-.119-.274-.301-.352-.494-.162-.275-.325-.634-.43-.818-.025-.034-.04-.05-.037-.037.007.008.05.039.1.059.085.003.243-.108.265-.159.008-.051.007-.083.01-.077.023.09.12.372.152.662-.01.293-.078.567-.139.762a.15.15 0 11-.29-.079M140.523 742.802c.028.112.044.14.037.11.068.066.07.175.004.244a.172.172 0 11-.248-.24.172.172 0 01.244-.004c-.04-.027-.194-.02-.227.001a.183.183 0 01.276.242.183.183 0 01-.276-.242c-.013.014-.022.024-.02.003a.194.194 0 11.372.112.194.194 0 01-.372-.112c.016-.098.027-.337.03-.642a18.692 18.692 0 00-.056-1.05c-.016-.37-.036-.743-.048-1.064-.002-.24.001-.46.015-.626a.307.307 0 11.613.046.307.307 0 11-.613-.046c.01-.113.032-.23.065-.315a.302.302 0 11.562.22.301.301 0 11-.562-.22c.05-.036.133-.097.208-.112a.204.204 0 01.21.349.204.204 0 11-.21-.349c.076 0 .178.036.204.087.05.03.066.095.036.145a.106.106 0 01-.146.036c-.007.03.066.064.117.08.05 0 .11-.028.142-.016a.737.737 0 00-.013.14 7.443 7.443 0 00-.002.57c0 .314.007.686.01 1.061-.01.376-.024.759-.057 1.087-.032.318-.078.592-.134.731a.47.47 0 01-.076.127c-.053.043-.227.053-.288.005a.698.698 0 01-.093-.303.15.15 0 11.295-.055"/></g></g></svg>