<?xml version="1.0" ?><svg xmlns="http://www.w3.org/2000/svg"><defs><clipPath clipPathUnits="userSpaceOnUse" id="a"><path d="M0 0h612v803.25H0V0z"/></clipPath></defs><text fill-opacity="0" font-size="34" font-weight="400" transform="matrix(1.35398 0 0 1.35398 26.066 54.482)"><tspan x="0 21.8314 41.0448 59.4762 77.771599" y="0">About</tspan></text><g><g clip-path="url(#a)" transform="matrix(1.25 0 0 -1.25 0 1004.063)"><path d="M36.855 792.415c.314.32.58.746.735 1.1a.468.468 0 01-.866.357.468.468 0 11.866-.357c.077.181.14.382.169.542a.477.477 0 11-.942.149.477.477 0 11.942-.149c.027.17.014.412-.06.593a.485.485 0 11-.857-.456h-.001a.485.485 0 01.857.456c-.56.358-.832.38-1.02.39-.497-.227-1.254-.918-2.082-2.014-.573-.897-1.182-1.97-1.897-3.26a117.633 117.633 0 01-3.556-6.394c-1.389-3.07-2.618-6.245-3.375-8.499-.366-1.235-.573-2.17-.635-2.71a1.415 1.415 0 112.813-.307 1.415 1.415 0 11-2.813.307c-.04-.469-.032-1.048.196-1.662a1.301 1.301 0 012.31 1.2 1.301 1.301 0 11-2.31-1.2c2.374.592 2.816 2.548 3.364 5.144a.544.544 0 11-1.039.325.544.544 0 111.039-.325c.2.788.413 1.576.623 2.268a.317.317 0 11-.585.247c-.356-.65-.719-1.407-1.07-2.17-1.028-2.437-1.897-4.099-2.274-4.188 2.387-.537 2.44-.449 2.549-.02.044.408.206 1.125.543 2.252.666 2.165 1.793 5.24 3.078 8.221 1.049 2.3 2.206 4.55 3.184 6.425.64 1.374 1.133 2.459 1.546 3.297.599 1.004 1.026 1.545 1.185 1.699-.024.106-.166.17-.252.263-.387.311-.39.35-.403.267a1.296 1.296 0 00-.093-.334 2.5 2.5 0 00-.516-.83.451.451 0 01.647-.629"/><path d="M38.984 797.686c.037.226.065.381.087.479a.45.45 0 01-.88.194.45.45 0 01.88-.194c.01.046.014.061.016.066a.45.45 0 01-.85.298.45.45 0 01.85-.298.45.45 0 01-.17.557.45.45 0 11-.486-.76.45.45 0 01.623.138c-.033-.044-.247-.182-.462-.19-.194.056-.359.208-.406.242-.04.023-.079.059-.11.058a.338.338 0 01-.177-.057 1.564 1.564 0 01-.357-.4 53.917 53.917 0 01-.109-1.592c-.013-.958-.018-2.183-.004-3.63.019-2.598.09-5.869.252-8.903.11-1.205.239-2.325.374-3.357.811-4.09 1.742-6.997 1.922-7.164.042.03.156.229.33.378a.648.648 0 01.814-1.007.648.648 0 01-.814 1.007c.134.062.435.102.55.065a.593.593 0 01-.315-1.142h-.001a.593.593 0 01.315 1.142c.078-.048.17-.126.184-.16a.537.537 0 11-.722-.796.537.537 0 01.722.796c-.022-.09-.093-.112-.21-.044a.317.317 0 01-.565-.29 1.792 1.792 0 01.052-.462.766.766 0 01.224-.186c.126-.04.437.002.58.07.192.164.316.396.364.48.264.694-.196 3.66-.523 7.72a78.278 78.278 0 00-.41 3.187c-.232 2.935-.377 6.145-.473 8.727-.054 1.435-.09 2.637-.116 3.566a49.81 49.81 0 01-.074 1.586c-.12.197-.241.366-.367.484-.063.06-.13.13-.197.177-.035.027-.08.083-.124.12-.053.05-.223.209-.424.267-.22-.007-.442-.15-.483-.206a.865.865 0 01-.104-.293 10.903 10.903 0 01-.095-.527.45.45 0 01.89-.145"/><path d="M29.548 780.865c-.539.065-.859.126-1.008.183a.674.674 0 11.174-1.337.674.674 0 11-.174 1.337c-.057.01-.259-.034-.644-.446a.73.73 0 111.384-.465.73.73 0 11-1.384.465c.255-.844.543-.99.6-1.019a.786.786 0 11.245 1.552.786.786 0 11-.245-1.552c.08-.049.198-.095.33-.14.262-.052.68-.103 1.203-.152.26-.082.551-.164.863-.246.313-.045.651-.089 1.006-.132a1.366 1.366 0 01.02 2.732h-.001a1.366 1.366 0 01-.02-2.732c.71-.042 1.495-.08 2.309-.112a1.475 1.475 0 11-.013 2.95 1.475 1.475 0 01.013-2.95c1.22.077 2.517.166 3.74.27a1.26 1.26 0 01-.069 2.52 1.26 1.26 0 01.069-2.52c1.622.36 3.132.748 4.167 1.177a.317.317 0 11-.069.63c-1.06.201-2.547.443-4.166.713-1.208.039-2.478.093-3.685.16-.805-.04-1.574-.075-2.276-.107-.351-.038-.682-.075-.992-.112-.31-.074-.595-.146-.854-.218a26.037 26.037 0 01-1.15-.078c-.118-.032-.173-.065-.18-.1.016-.023.283-.162.54-.999-.383-.405-.56-.443-.566-.426.05.083.322.169.85.253a.45.45 0 01-.017.901zM52.341 782.423c.276.23.494.505.608.73a.55.55 0 11-1.047.336.55.55 0 011.047-.336c.108.27.078.695-.044.948a.65.65 0 01-1.04-.778.65.65 0 011.04.778c-.166.24-.525.454-.784.522a.748.748 0 01-.15-1.489.748.748 0 11.15 1.489c-.255.051-.63.023-.91-.057-1.39-1.12-2.482-4.402-2.368-7.35.058-1.165.372-2.52.993-3.536.949-1.006 2.248-1.675 3.439-1.867 1.192-.132 2.582.12 3.64.704 1.737 1.3 2.818 3.644 2.85 5.59a.924.924 0 11-1.847.056v.001a.924.924 0 111.847-.056c-.274 2.502-2.248 4.533-4.159 5.528a1.061 1.061 0 01-.926-1.91 1.061 1.061 0 01.926 1.91c-1.194.501-2.49.757-3.617.534a.69.69 0 01.141-1.371.69.69 0 01-.141 1.371c-1.073-.248-2.113-.956-3.002-2.124a.317.317 0 11.472-.424c.98.914 1.802 1.224 2.671 1.177.816-.023 1.545-.385 2.508-1.052 1.69-.753 3.133-2.033 3.284-3.706-.077-1.37-.874-2.926-2.123-3.667-.635-.293-1.333-.351-2.108-.17-.74.174-1.259.516-1.69 1.125-.328.417-.512 1.12-.603 2.1-.407 2.494.232 5.202.72 5.734-.16-.078-.187-.05-.146-.029.035.04-.082.138-.106.189.02.062.032.224.035.166.009-.1-.025-.215-.194-.426a.45.45 0 11.634-.64"/><path d="M52.312 794.887c.067.31.126.5.177.597a.53.53 0 11-1.029.253.53.53 0 011.029-.253c.041.069-.567-.283-.985-.018a.608.608 0 011.098.525.608.608 0 11-1.098-.525c-.063.086-.098-.258-.142-.886a.766.766 0 011.532.02.766.766 0 01-1.532-.02c-.088-1.263-.237-3.445-.418-5.838-.05-1.837-.126-3.799-.175-5.595a1.034 1.034 0 112.067-.075 1.034 1.034 0 01-2.067.075c-.032-.899-.058-1.76-.07-2.542a1.032 1.032 0 112.065-.035 1.032 1.032 0 11-2.065.035c.021-1.173.072-2.2.175-2.926a.908.908 0 011.809.154.908.908 0 01-1.809-.154c.238-.47.514-.859.818-1.02a.317.317 0 01.552.314c.125.154.279.416.439.86-.015.648.019 1.589.08 2.737.014.767.04 1.61.073 2.502.08 1.784.186 3.745.269 5.596-.028 2.416-.089 4.636-.21 5.932-.062.652-.144 1.126-.293 1.39-.46.354-1.12-.068-1.142-.253-.01-.157-.025-.403-.042-.733a.45.45 0 11.894-.117zM66.48 779.764c-.03.606.155 1.678.116 2.455a.567.567 0 01-1.128-.123.567.567 0 011.128.123 2.31 2.31 0 01-.13.662.658.658 0 01-1.13-.674.658.658 0 011.13.674c-.09.197-.347.457-.576.577a.749.749 0 01-.445-1.43.749.749 0 11.445 1.43c-.525.164-1.287.061-1.84-.274-.912-1.148-1.461-2.986-1.677-4.75-.124-.833-.178-1.804-.084-2.652.42-1.522 1.468-2.863 2.748-3.447a5.953 5.953 0 012.841-.211c1.848.642 3.661 2.17 4.66 3.798.62 1.086.943 2.294.911 3.332.019.743-.171 1.613-.579 2.267-.606.706-1.409 1.207-2.215 1.517a.8.8 0 11-.514-1.514.8.8 0 11.514 1.514 8.214 8.214 0 01-2.641.427.821.821 0 11.034-1.642.821.821 0 01-.034 1.642c-.577-.01-1.2-.1-1.72-.256a.83.83 0 11.493-1.584.83.83 0 01-.493 1.584c-.714-.407-1.347-1.026-1.59-1.734a.317.317 0 01.544-.327c.395.35.886.459 1.538.477.39.127.786.186 1.262.198a5.89 5.89 0 002.093-.3c.689-.197 1.215-.46 1.61-.854.182-.321.25-.773.2-1.388-.01-.841-.265-1.618-.814-2.456-.951-1.218-2.394-2.198-3.77-2.438a2.531 2.531 0 00-1.452.163c-.661.254-1.012.755-1.226 1.725-.108.496-.12 1.166-.064 1.948.046 1.633.332 3.088.718 3.729-.02.024.012.07.138.066-.07.07-.174.192-.145.19.05-.017.087-.037.137-.152.106-.572 0-1.644.11-2.385a.45.45 0 11.897.093M80.063 779.798c-.214.442-.566.801-.9.965a.592.592 0 01-.339-1.135.592.592 0 01.339 1.135c-.388.141-.941.052-1.283-.144a.734.734 0 11.918-1.145.734.734 0 01-.918 1.145c-.629-.435-1.123-1.463-1.172-2.497a1.017 1.017 0 012.03.128 1.017 1.017 0 01-2.03-.128c.143-1.102.684-2.395 1.58-3.4 1.391-1.125 3.361-1.925 5.185-2.113 1.918-.011 3.832.632 4.889 1.675.651.875.902 1.978.753 2.903-.277.98-.904 1.85-1.563 2.581-.31.384-.65.764-.97 1.12a.933.933 0 11-1.287-1.352.933.933 0 111.287 1.352c-.53.486-1.024.924-1.404 1.32a.895.895 0 11-1.318-1.21.894.894 0 111.318 1.21c-.285.231-.489.399-.638.567a.734.734 0 01-1.288-.706.734.734 0 111.288.706c-.178.034-.331.04-.485.09a.317.317 0 11-.618-.146c-.096-.187-.148-.427-.185-.65.132-.344.364-.725.608-1.071.417-.471.933-.967 1.434-1.461.365-.298.72-.591 1.055-.896.63-.646 1.091-1.209 1.26-1.78.049-.511-.09-.953-.522-1.404-.657-.586-1.942-.91-3.456-.778-1.431.177-2.841.8-3.814 1.673a3.582 3.582 0 00-1.089 1.989c-.144.553-.09.936.07 1.133.052.12-.047.151.027.154.13.025.248-.012.462-.29a.45.45 0 11.775.46M97.206 794.037c.023.221.043.385.062.494a.503.503 0 01-1.006.01v.001a.503.503 0 011.006-.01c.018.11.033.202-.238.65a.555.555 0 11-.536-.971.555.555 0 01.536.971c-.835-.39-.863-.485-.887-.583a.607.607 0 111.21-.086.607.607 0 01-1.21.086 4.86 4.86 0 01-.078-.416c-.11-.712-.243-2.065-.39-3.742-.162-1.67-.335-3.669-.477-5.655a228.12 228.12 0 01-.15-4.482c.012-1.62.053-2.954.13-3.969.06-.636.121-1.121.159-1.457.018-.167.03-.286.033-.363.074-.045.142-.003.214.07a.936.936 0 011.859-.227.936.936 0 01-1.859.227c.046.064.23.382.552.608a.833.833 0 11.734-1.496.833.833 0 01-.734 1.496c.45.044.871-.183.906-.268a.73.73 0 01-1.12-.937h.001a.73.73 0 111.12.937c-.071-.15-.238-.11-.469.102a.317.317 0 11-.59-.232c-.02-.325-.06-.575-.061-.807.052-.105.488-.34.947-.29.333.23.522.565.573.66.079.13.142.278.201.381-.017.121-.042.277-.07.448-.056.341-.13.793-.2 1.33-.02.9-.012 2.17.024 3.777-.03 1.364-.043 2.896-.038 4.428-.002 1.963.028 3.951.046 5.632.009 1.689.004 3.043-.025 3.756a5.61 5.61 0 01-.028.403c-.011.088-.03.09-.859-.303-.265.445-.248.433-.232.332.016-.104.03-.262.042-.482a.451.451 0 01.901-.023"/><path d="M93.045 785.224c-.12.09-.098.127-.025.135a.59.59 0 01-.88-.79.591.591 0 01.88.79c.051-.033.155-.24.186-.367a.661.661 0 01-1.318.107.661.661 0 111.318-.107c-.006-.13-.088-.335-.105-.391a.731.731 0 11-1.02 1.048.73.73 0 111.02-1.048c-.052-.038.422.027 1.26.13.568.025 1.246.05 1.997.08.744.07 1.553.144 2.372.224a1.211 1.211 0 11-.341 2.398 1.211 1.211 0 11.341-2.398c.81.154 1.636.315 2.414.484a1.096 1.096 0 11-.36 2.162 1.096 1.096 0 01.36-2.162c.392.07.78.144 1.144.219a1.082 1.082 0 11-.409 2.125 1.082 1.082 0 01.409-2.125c.316.32.616.643.88.967a.317.317 0 11-.145.618c-.366.176-.744.357-1.144.54-.35-.063-.713-.123-1.095-.182-.77-.089-1.581-.17-2.395-.247-.803-.151-1.603-.297-2.345-.44a34.128 34.128 0 01-1.993-.546c-.87-.205-1.59-.444-1.97-.799-.07-.11-.183-.366-.193-.55.027-.18.152-.442.252-.53.17-.101.401-.174.612-.198a.45.45 0 01.293.853M20.444 765.235c-.307.292-1.44.538-1.826.775a.805.805 0 01-.442-1.548.805.805 0 11.442 1.548c-.065.054-.051.087-.025.116a.912.912 0 01-.764-1.657.912.912 0 01.764 1.657c.022.008.117-.028.187-.058a.966.966 0 11-1.245-1.477.966.966 0 111.245 1.477c.085-.058.29-.35.37-.59.01-.272-.16-.72-.253-.855-.078-.089-.207-.191-.232-.224-.023-.045-.045-.09.04-.109.996.104 3.617.258 8.073.467 3.713.221 8.494.474 14.042.669 1.52.047 3.134.09 4.845.125 2.612.08 5.29.142 8.178.181a681.271 681.271 0 0014.562.12c2.07.045 4.131.08 6.135.103a1.348 1.348 0 01.016 2.697 1.348 1.348 0 11-.016-2.697c6.558-.136 12.832-.427 18.452-.678a1.12 1.12 0 01.13 2.235 1.12 1.12 0 11-.13-2.235c14.073-.564 23.626-.975 26.177.619a.605.605 0 01-.61 1.045.605.605 0 01.61-1.045c.228.247.415.564.452.847a.317.317 0 11-.572.275c-.13-.067-.26-.057-.49-.077-2.041-1.09-11.388-.335-25.444.571-5.603.404-11.902.848-18.523 1.14-2.049.046-4.125.08-6.186.103a361.38 361.38 0 01-4.073 0c-3.717.024-7.24.021-10.537-.004a459.44 459.44 0 01-8.22-.243c-1.705-.05-3.334-.11-4.867-.173a488.416 488.416 0 01-14.102-.826c-4.458-.306-7.16-.563-8.34-.79a2.3 2.3 0 01-.519-.261 2.548 2.548 0 01-.342-.291c-.115-.157-.295-.628-.282-.92.082-.263.3-.576.411-.655.096-.052.226-.11.293-.122.117-.012.258-.02.364-.011.59-.042 1.745-.051 1.743.032a.45.45 0 11.51.744z"/></g></g></svg>