<?xml version="1.0" ?><svg xmlns="http://www.w3.org/2000/svg"><text fill-opacity="0" font-size="21" font-weight="400" transform="matrix(1.3909 0 0 1.3909 56.459 76.195)"><tspan x="0 15.708 27.111 31.752001 42.630001 53.172001 57.813" y="0">Quickly</tspan></text><text fill-opacity="0" font-size="23" font-weight="400" transform="matrix(1.3909 0 0 1.3909 172.632 61.115)"><tspan x="0 5.0416002 17.1672 29.062799 36.496399 48.966999 61.092602" y="0">learned</tspan></text><text fill-opacity="0" font-size="18" font-weight="400" transform="matrix(1.3909 0 0 1.3909 276.379 60.053)"><tspan x="0 10.2042 20.2824 26.2206 35.2188 39.213001 49.8312" y="0">outside</tspan></text><text fill-opacity="0" font-size="31" font-weight="400" transform="matrix(1.3909 0 0 1.3909 378.24 69.785)"><tspan x="0 16.817499" y="0">of</tspan></text><text fill-opacity="0" font-size="28" font-weight="400" transform="matrix(1.3909 0 0 1.3909 421.757 91.654)"><tspan x="0 22.8452" y="0">my</tspan></text><text fill-opacity="0" font-size="22" font-weight="400" transform="matrix(1.3909 0 0 1.3909 490.47 70.723)"><tspan x="0 10.582 23.011999 34.627998 46.001999 50.841999 57.860001 62.700001" y="0">specific</tspan></text><text fill-opacity="0" font-size="23" font-weight="400" transform="matrix(1.3909 0 0 1.3909 604.043 69.455)"><tspan x="0 13.0824 25.635799 44.468201 56.354599 61.387001" y="0">domain</tspan></text><text fill-opacity="0" font-size="24" font-weight="400" transform="matrix(1.3909 0 0 1.3909 64.48 125.9)"><tspan x="0 7.2312002" y="0">to</tspan></text></svg>