<?xml version="1.0" ?><svg height="43.4596" viewBox="8.563917 10.15775 111.21903 43.4596" width="111.21903" xmlns="http://www.w3.org/2000/svg"><defs><clipPath clipPathUnits="userSpaceOnUse" id="a"><path d="M0 0h612v803.25H0V0z"/></clipPath></defs><text fill-opacity="0" font-size="31" font-weight="400" transform="matrix(1.35398 0 0 1.35398 8.236 53.023)"><tspan x="0 19.920601 37.454201 54.274799 70.971397" y="0">About</tspan></text><g><g clip-path="url(#a)" transform="matrix(1.25 0 0 -1.25 0 1004.063)"><path d="M20.21 787.489c.453.123.857.44 1.118.79a.494.494 0 01-.816.557.494.494 0 01.816-.557c.253.35.454.797.636 1.252a.537.537 0 01-1.009.37.537.537 0 011.009-.37c.281.533.591 1.213.845 1.895a.686.686 0 01-1.317.389.686.686 0 011.317-.389c.227.68.425 1.391.509 1.81.033.037.083.225.093.45-.013.103-.157.43-.377.644-.323.137-.837.083-.973.014a1.94 1.94 0 01-.332-.3c-.5-.654-1.504-2.472-2.638-4.845-1.308-2.942-2.81-6.79-3.74-9.859a35.38 35.38 0 01-.681-3.466c-.12-.61-.209-1.167-.238-1.548a2.779 2.779 0 01.025-.642c.032-.128.194-.444.409-.649a.944.944 0 111.114 1.524.944.944 0 11-1.114-1.524c.322-.157.93-.125 1.119-.024a.938.938 0 11-1.004 1.584.938.938 0 111.004-1.584c.526.856.912 1.908 1.316 3.134a.644.644 0 11-1.19.495.644.644 0 011.19-.495c1.007 2.743 2.394 7.25 2.94 10.76a.317.317 0 11-.624.116c-.745-3.404-2.316-7.769-3.507-10.384-.572-1.12-1.09-1.996-1.422-2.337.433.364 1.001.394 1.292.26.182-.182.321-.449.34-.502.004-.048.01-.045.028.088.034.287.122.746.259 1.36.182.871.452 1.97.827 3.247.86 2.959 2.292 6.71 3.543 9.601 1.027 2.352 1.898 4.102 2.234 4.659 0 .013-.08-.063-.2-.148-.12-.059-.622-.11-.936.02-.213.21-.351.522-.362.605.02.145.032.14.018.012-.006-.416-.106-1.047-.243-1.7a18.424 18.424 0 00-.523-1.877c-.158-.472-.283-.82-.453-1.089-.163-.27-.28-.4-.548-.48a.45.45 0 11.245-.868"/><path d="M22.383 793.419c.186 1.19.338 1.717.417 1.705a.554.554 0 11-.84.72h-.001a.554.554 0 11.84-.72c-.142-.087-.696.009-.715-.022a.605.605 0 011.037.623.605.605 0 01-1.037-.623c.026-.067.063-.228.124-.522a.656.656 0 011.267.342.656.656 0 01-1.267-.342c.255-1.201.588-3.766 1.106-6.678.64-2.906 1.346-6.13 1.988-8.652.315-1.093.628-2.076.915-2.821.275-.652.558-1.198.827-1.46a.52.52 0 11.83.626.52.52 0 11-.83-.626c.079-.074.224-.179.355-.224a.47.47 0 11.343.874.47.47 0 01-.343-.874c.159-.026.455.052.56.159a.419.419 0 01-.584.6.419.419 0 01.584-.6c.107.178.159.431.165.71a.317.317 0 11-.628.089c-.065-.223-.11-.262-.121-.199.046.05.277.115.367.115.062-.017.133-.055.133-.024-.045.154-.143.606-.281 1.275a53.69 53.69 0 00-.656 2.79c-.623 2.497-1.312 5.7-1.938 8.596-.643 2.84-1.114 5.398-1.525 6.666-.105.324-.226.615-.354.803-.171.223-.874.377-1.162.12-.214-.355-.348-1.082-.47-2.312a.45.45 0 01.894-.114"/><path d="M16.84 783.395c-.213-.302-.33-.706-.298-1.023a.557.557 0 111.074.295.557.557 0 11-1.074-.295c.079-.334.376-.68.653-.86a.663.663 0 11.572 1.196.663.663 0 11-.572-1.196c.679-.35 1.805-.473 3.038-.526a.793.793 0 11.013 1.587.793.793 0 11-.013-1.587c1.231-.022 2.644.012 3.985-.036a.829.829 0 11.044 1.656.829.829 0 11-.044-1.656c1.076.057 2.075.067 2.928-.045a.573.573 0 01.257 1.117.573.573 0 11-.257-1.117c.86-.108 1.487-.293 1.89-.687a.317.317 0 01.498.394c-.417.643-1.22 1.11-2.131 1.41-.919.297-2.033.47-3.14.585-1.39.024-2.82-.033-4.017-.035-1.196-.034-2.084-.027-2.479.137-.153.027-.135-.053-.151-.041-.063.03-.092.05.002.27a.45.45 0 11-.777.457zM36.015 780.34c.605.162 1.021.734 1.121 1.225a.55.55 0 11-1.095.12.55.55 0 111.095-.12c.075.504-.088 1.15-.384 1.553a.65.65 0 11-.964-.874.65.65 0 11.964.874 2.035 2.035 0 01-1.036.475.714.714 0 11-.034-1.427.714.714 0 01.034 1.427c-.323.02-.773-.084-1.1-.266-.863-.855-1.392-2.397-1.514-3.926-.1-.978-.048-2.155.27-3.115.796-1.404 2.261-2.313 3.641-2.475 1.684.096 3.406 1.118 4.292 2.385.459.848.676 1.8.61 2.58.033.464-.137 1.148-.506 1.64-.88.75-2.116 1.166-3.273 1.447-1.06.16-2.128.246-2.907.34a.563.563 0 11-.251-1.097v.001a.563.563 0 01.251 1.097c-.39.047-.68.086-.88.139a.44.44 0 01-.38-.794.44.44 0 01.38.794c-.097.023-.132.02-.163.03a.379.379 0 11-.561-.508.379.379 0 01.561.508c-.034 0-.027-.087-.038-.094a.317.317 0 01-.63.08.791.791 0 01.107-.495c.08-.114.218-.23.345-.315.25-.162.612-.31 1.008-.442.792-.265 1.822-.51 2.795-.818 1.102-.239 2.046-.512 2.552-.946.11-.11.14-.235.124-.584.033-.618-.117-1.135-.477-1.712-.636-.872-1.782-1.497-2.88-1.454-.843.09-1.585.56-2.013 1.455-.215.545-.265 1.344-.2 2.23.024 1.355.32 2.444.723 2.86-.023 0-.022.018.08.028.102.027.109.046.194-.003.083-.031.174-.218.165-.478.017-.273.013-.396-.263-.474a.45.45 0 01.237-.87"/><path d="M33.76 792.463a7.53 7.53 0 01-.075 1.365.504.504 0 11-.99-.192.504.504 0 01.99.192c-.062.409-.18.81-.382 1.064a.558.558 0 11-.733-.841.558.558 0 11.733.841c-1.037-.381-1.166-.694-1.28-1.083a.82.82 0 011.638-.11.82.82 0 11-1.638.11c-.092-.779-.156-2.073-.19-3.61a141.41 141.41 0 01.052-5.152c.039-1.357.097-2.729.177-3.994.08-1.266.184-2.455.311-3.429.27-.955.579-1.763.918-2.232a.699.699 0 011.279.565.699.699 0 11-1.279-.565c.178-.24.462-.499.752-.578a.508.508 0 01.375.944.508.508 0 11-.375-.944c.156-.018.404.021.526.104a.413.413 0 01-.347.75.413.413 0 11.347-.75c.095.084.198.214.252.333a.317.317 0 01-.5.39c-.066-.034-.08-.005-.099.026.009.03.146.066.196.091.077.005.16.014.151.199-.036.38-.05 1.047-.058 1.98-.15.917-.275 2.031-.381 3.27-.107 1.24-.193 2.576-.259 3.917-.088 1.788-.141 3.56-.165 5.08a89.653 89.653 0 00-.046 3.494c-.063.367-.129.554-.209.56-.914-.1-.84-.277-.757-.622.087-.352.152-.77.165-1.165a.45.45 0 01.902-.008M47.036 782.558c-.155.4-.42.743-.696.904a.54.54 0 01-.39-1.008.54.54 0 01.39 1.008c-.17.072-.452.09-.627.052a.585.585 0 11.386-1.104.585.585 0 11-.386 1.104 1.53 1.53 0 01-.496-.284.63.63 0 01.923-.856.63.63 0 01-.923.856c-.44-.423-.802-1.277-.98-2.192-.177-.863-.244-2.045.024-3.092.805-1.576 2.417-2.794 4.059-3.228 2.017-.2 4.156.618 5.328 1.942.622.87.97 1.93.947 2.864a3.305 3.305 0 01-.492 1.95c-.906.998-2.34 1.717-3.676 2.129-.806.25-1.66.415-2.361.466-.415-.035-.843-.113-1.164-.232a.729.729 0 11.332-1.42.73.73 0 01-.332 1.42c-.325-.127-.69-.369-.876-.648a.592.592 0 11.932-.729.592.592 0 11-.932.729c-.15-.3-.156-.776.01-1.086a.455.455 0 01.839.35.455.455 0 11-.839-.35c.165-.263.459-.567.853-.865a.317.317 0 11.427.47c-.295.329-.417.56-.44.746-.021.138.013.025.083.006.034.002.068-.04.275-.043.21.005.448-.024.781-.08.584.013 1.262-.066 1.998-.24 1.234-.297 2.393-.786 3.062-1.455.222-.295.306-.613.283-1.083-.009-.745-.266-1.395-.776-2.013-.9-.943-2.435-1.436-3.935-1.153-1.207.3-2.276 1.109-2.776 2.18-.192.608-.165 1.42-.037 2.219.042.833.162 1.374.306 1.581.021.049-.03.032-.041.037-.019.018-.141.035-.15.044.047.036.11.005.268-.273a.45.45 0 01.82.377M59.245 781.15a.607.607 0 01-.12.253.34.34 0 11-.674-.1.34.34 0 11.674.1c.018.015.027.063.024.124a.4.4 0 11-.723-.34.4.4 0 01.723.34c-.083.144-.74.054-.798-.029a.458.458 0 11.872-.282.458.458 0 01-.872.283.476.476 0 00-.14-.127c-.08-.026-.16-.07-.237-.114-.042-.232-.049-.864.053-1.537.8-1.662 2.67-3.386 4.618-3.898.894-.174 1.948-.157 2.785.18 1.063.674 1.801 1.84 2.05 2.975.173.632.218 1.42.073 2.126-.581 1.432-1.766 2.665-2.724 3.575-.471.466-.89.862-1.162 1.165-.157.124-.25.19-.309.238a.785.785 0 01-1.302-.877.785.785 0 011.302.877c-.028.018-.017-.03-.016-.06a.749.749 0 11-1.429-.45.749.749 0 111.429.45c-.005-.043-.014-.246-.05-.356a.713.713 0 01-1.335.501.713.713 0 011.335-.501c-.186-.053-.41-.073-.444.049a.317.317 0 11-.189.606c-.175.077-.483-.011-.702-.154a1.435 1.435 0 01-.044-.594c.029-.12.094-.272.143-.368.094-.179.246-.385.397-.572.348-.317.812-.696 1.297-1.117.953-.863 1.97-1.85 2.385-2.863.094-.385.078-.82-.052-1.322-.231-.883-.69-1.531-1.361-1.857-.406-.133-.963-.082-1.649.114-1.445.339-2.777 1.63-3.261 2.746-.099.32-.167.77-.215.949a.833.833 0 01-.236.032c-.04-.002-.084-.04-.138-.098-.058-.082-.714-.172-.796-.031-.002.061.007.106.025.117-.037.01-.072-.038-.108-.155a.45.45 0 11.902.003M71.96 793.548c.093.236.166.371.236.456a.496.496 0 01-.85.512h.001a.496.496 0 11.85-.512c.054.069-.03-.017-.126-.076a.54.54 0 11-.158 1.07.54.54 0 01.158-1.07 1.18 1.18 0 00-.281.036.563.563 0 11.61.947.563.563 0 11-.61-.947c-.031.017-.082.058-.08.04.016-.043.028-.115.063-.277.162-.678.284-2.038.366-3.703.075-1.332.12-2.826.139-4.286.068-1.824.093-3.571.081-4.846a24.716 24.716 0 00-.063-1.25c-.027-.315-.052-.468-.066-.456.057.008.17.124.296.21a.777.777 0 011.148-1.048.777.777 0 11-1.148 1.048c.09.051.356.165.532.17a.7.7 0 11.059-1.4.7.7 0 11-.059 1.4c.164-.04.396-.169.447-.243a.624.624 0 01-.861-.904.624.624 0 01.861.904c.012-.19-.063-.271-.179-.221a.317.317 0 01-.62-.139.772.772 0 01-.062-.543c.059-.083.3-.216.473-.255.184.005.458.124.557.184.143.103.27.255.343.314.045.216.069.527.078.881.01.349.014.805.012 1.327.02 1.3 0 3.086-.063 4.93a95.933 95.933 0 01-.34 4.35c-.188 1.687-.429 3.154-.727 3.952-.08.206-.189.419-.3.562-.063.076-.18.186-.277.246a1.066 1.066 0 01-.487.087 1.117 1.117 0 01-.566-.482 4.037 4.037 0 01-.244-.69.45.45 0 11.858-.278z"/><path d="M66.733 785.365c.774-.199 2.274.058 4.162.33a.62.62 0 11-.213 1.22.62.62 0 01.213-1.22c.55.013 1.129.026 1.738.032a.866.866 0 01-.25 1.714.866.866 0 01.25-1.714c.6.06 1.215.111 1.858.146a.947.947 0 01-.182 1.885.947.947 0 01.182-1.885c.64.064 1.282.11 1.95.13a.941.941 0 11-.051 1.882v-.001a.941.941 0 11.051-1.882c.67.008 1.326-.009 2.005-.063a.971.971 0 11.124 1.938.971.971 0 01-.124-1.938c.699.174 1.397.313 2.125.401a.317.317 0 11.114.624c-.684.346-1.405.65-2.115.913-.73.037-1.474.036-2.18.007a30.686 30.686 0 01-2.081-.126 37.922 37.922 0 01-1.926-.317c-.6-.171-1.174-.35-1.701-.525-1.886-.386-3.258-.739-3.764-.669a.45.45 0 01-.186-.882M12.896 766.696c-.568.066-.957.131-1.08.197a.648.648 0 110-1.295.648.648 0 010 1.295c-.032.016-.046.033-.043-1.345a.697.697 0 110 1.394.697.697 0 010-1.394c.003-.016.024-.033.064-.05a.746.746 0 010 1.492v.001a.746.746 0 110-1.492c.08-.033.237-.066.48-.099 1.164-.06 3.753-.12 7.714-.18a68.65 68.65 0 011.871-.029c4.371.164 9.9.509 15.715.93 5.607.414 11.593.88 17.768 1.405 3.983.41 8.049.842 11.834 1.234a.863.863 0 01-.151 1.72.863.863 0 01.151-1.72c1.061.124 2.092.242 3.108.356a.78.78 0 01-.13 1.556.78.78 0 01.13-1.556c5.862.496 11.137.853 14.77 1.128a.496.496 0 11-.05.992h.001a.497.497 0 01.05-.992c1.395.13 2.62.28 3.717.493a.317.317 0 01-.088.629c-1.088-.092-2.287-.12-3.68-.13-3.642-.086-8.94-.255-14.838-.564a435.34 435.34 0 01-3.144-.193c-3.796-.275-7.873-.592-11.854-.884-6.165-.466-12.142-.875-17.757-1.233-5.81-.467-11.302-.857-15.61-1.064a83.93 83.93 0 00-1.8-.028c-3.974-.06-6.563-.12-7.727-.18a2.297 2.297 0 01-.48-.099c-.04-.016-.061-.033-.064-.049-.003-1.378.011-1.361.042-1.345.124.066.513.132 1.081.197a.45.45 0 110 .902"/></g></g></svg>