<?xml version="1.0" ?><svg viewBox="22.049353 10.833067 72.475984 17.0056" xmlns="http://www.w3.org/2000/svg" xmlns:xlink="http://www.w3.org/1999/xlink"><use x="15.938" xlink:href="#a" y="12.374"/><path d="M20.21 15.762c.454-.125.856-.442 1.118-.79a.498.498 0 00-.129-.687.495.495 0 10.129.688c.254-.352.453-.801.637-1.254a.537.537 0 10-1.01-.366.537.537 0 001.01.366c.281-.531.59-1.211.844-1.895a.684.684 0 00-.465-.851.683.683 0 00-.852.46.693.693 0 00.465.856.687.687 0 00.852-.465c.226-.68.425-1.39.507-1.808.036-.04.086-.227.094-.454-.012-.101-.156-.425-.375-.64-.324-.137-.836-.086-.973-.016-.152.106-.273.23-.332.301-.5.652-1.507 2.473-2.64 4.844-1.305 2.941-2.809 6.789-3.738 9.86a36.84 36.84 0 00-.684 3.464c-.117.613-.207 1.168-.234 1.55-.016.2-.012.446.023.641.031.13.195.446.41.649a.94.94 0 001.317-.207.943.943 0 10-1.317.207c.32.156.93.125 1.117.023a.936.936 0 10-1.001-1.581.936.936 0 001.001 1.581c.528-.855.914-1.906 1.317-3.133a.646.646 0 00-.348-.843.645.645 0 10.348.844c1.008-2.743 2.394-7.25 2.937-10.762a.315.315 0 10-.62-.117c-.747 3.406-2.317 7.77-3.509 10.386-.57 1.121-1.09 1.996-1.422 2.336.434-.363 1-.394 1.293-.258.184.18.32.45.34.5.004.047.012.047.028-.086.035-.289.12-.746.257-1.363.184-.87.454-1.969.829-3.246.859-2.957 2.293-6.71 3.543-9.601 1.027-2.352 1.898-4.102 2.234-4.657 0-.015-.082.063-.2.149-.12.058-.62.11-.937-.024-.21-.207-.351-.52-.363-.601.02-.145.035-.14.02-.016-.004.418-.106 1.05-.243 1.703-.14.653-.332 1.301-.523 1.875-.156.473-.281.82-.453 1.09-.164.27-.282.399-.547.48a.451.451 0 10.246.867"/><path d="M22.383 9.832c.187-1.191.34-1.719.418-1.707a.553.553 0 00-.063-.781.556.556 0 00-.781.062.556.556 0 00.063.782c.23.199.582.171.78-.063-.144.09-.698-.008-.714.023a.604.604 0 101.035-.625.604.604 0 10-1.035.625c.023.067.062.227.121.52a.658.658 0 101.27-.341.658.658 0 00-1.27.341c.258 1.203.59 3.77 1.105 6.68.641 2.906 1.348 6.129 1.989 8.652.316 1.094.629 2.074.918 2.82.273.653.554 1.2.824 1.461a.521.521 0 10.83-.626.521.521 0 00-.83.626c.078.074.227.18.355.223a.47.47 0 10.344-.875.47.47 0 00-.344.875c.16.027.457-.05.559-.156a.42.42 0 00.012-.594.42.42 0 10-.602.586c.16.164.426.168.59.008.11-.18.16-.434.168-.711a.318.318 0 00-.629-.09c-.066.223-.11.262-.121.2.047-.052.277-.114.367-.118.063.02.133.058.133.027a28.12 28.12 0 01-.281-1.277 53.211 53.211 0 01-.657-2.79c-.62-2.495-1.312-5.698-1.937-8.597-.645-2.84-1.113-5.394-1.523-6.664-.106-.324-.227-.613-.356-.805-.172-.222-.875-.375-1.164-.117-.21.352-.348 1.082-.469 2.313a.452.452 0 00.39.504.452.452 0 00.505-.391"/><path d="M16.84 19.855c-.211.301-.332.707-.297 1.024a.554.554 0 00.684.387.554.554 0 00.39-.684.563.563 0 00-.687-.39.558.558 0 00-.387.687c.078.332.375.68.652.86a.662.662 0 10.57-1.196.663.663 0 10-.57 1.195c.68.352 1.805.473 3.04.528a.794.794 0 00.796-.79.794.794 0 00-.785-.8.794.794 0 10-.012 1.59c1.23.02 2.645-.012 3.985.035a.826.826 0 00.847-.809.823.823 0 00-.804-.847.831.831 0 00-.852.804.832.832 0 00.809.852c1.074-.059 2.074-.067 2.926.043a.573.573 0 10.257-1.118.573.573 0 00-.257 1.118c.863.11 1.488.293 1.89.687.11.137.309.16.445.055a.314.314 0 00.055-.445c-.418-.645-1.223-1.114-2.133-1.414-.918-.297-2.03-.47-3.14-.582-1.39-.028-2.82.03-4.016.03-1.195.036-2.086.028-2.48-.132-.153-.027-.133.05-.149.039-.062-.027-.094-.05 0-.27a.451.451 0 00-.777-.457zm0 0M36.016 22.91c.605-.164 1.02-.734 1.12-1.226a.552.552 0 00-.488-.606.546.546 0 00-.605.488.55.55 0 101.094.117c.074-.503-.09-1.148-.383-1.55a.654.654 0 00-.922-.047.654.654 0 00-.043.922.65.65 0 00.918.043.653.653 0 00.047-.918 2.044 2.044 0 00-1.04-.477.717.717 0 00-.73.696.721.721 0 00.7.734.72.72 0 00.73-.7.718.718 0 00-.7-.73c-.32-.02-.769.086-1.097.266-.863.855-1.394 2.398-1.515 3.926-.102.98-.047 2.156.27 3.117.796 1.402 2.26 2.312 3.64 2.473 1.683-.094 3.406-1.118 4.293-2.383.46-.848.675-1.801.61-2.582.034-.461-.138-1.149-.505-1.637-.883-.75-2.117-1.168-3.273-1.45-1.063-.16-2.13-.245-2.907-.34a.564.564 0 00-.253 1.099.562.562 0 10.254-1.098c-.391-.047-.684-.086-.88-.14a.442.442 0 00-.59.206.438.438 0 00.208.586.435.435 0 00.586-.207.438.438 0 00-.203-.586c-.098-.023-.133-.02-.164-.027a.378.378 0 00-.536-.027.378.378 0 00-.027.535c.14.152.379.164.535.027a.378.378 0 00.028-.535c-.036 0-.028.086-.04.09a.316.316 0 00-.277-.352.31.31 0 00-.351.274c-.032.152.027.37.105.496.082.113.219.23.344.312.25.164.613.313 1.008.446.793.261 1.824.507 2.796.816 1.102.238 2.047.512 2.551.945.11.11.14.235.125.586.031.617-.117 1.133-.476 1.711-.637.871-1.782 1.496-2.883 1.453-.84-.09-1.582-.558-2.012-1.453-.215-.547-.266-1.344-.2-2.23.024-1.356.321-2.446.724-2.86-.024 0-.02-.02.082-.027.101-.027.105-.047.191 0 .086.031.176.219.168.48.016.274.012.395-.266.473a.452.452 0 00.239.871"/><path d="M33.762 10.785c.02-.453-.02-.96-.078-1.363a.5.5 0 00-.59-.399.5.5 0 00-.399.59.5.5 0 00.59.399.5.5 0 00.399-.59c-.063-.41-.18-.809-.38-1.063a.558.558 0 10-.739.836.558.558 0 00.74-.836c-1.04.38-1.168.692-1.282 1.082a.819.819 0 00.762.875.822.822 0 00.113-1.64.825.825 0 00-.875.765c-.093.778-.156 2.075-.191 3.61-.016 1.539.004 3.344.055 5.152.035 1.356.093 2.73.175 3.992.079 1.27.184 2.457.313 3.43.266.957.578 1.766.914 2.234a.7.7 0 001.281-.566.7.7 0 00-1.28.566c.179.239.464.496.753.578a.509.509 0 10.375-.945.509.509 0 00-.375.945c.156.016.402-.023.527-.105a.413.413 0 10-.55-.203c.097.207.343.3.55.203a1.16 1.16 0 00.25-.332.317.317 0 00-.054-.445.314.314 0 00-.446.054c-.066.036-.078.004-.097-.027.007-.031.144-.066.195-.09.078-.004.16-.015.152-.199-.035-.379-.05-1.047-.058-1.98a44.978 44.978 0 01-.383-3.27 112.551 112.551 0 01-.258-3.918c-.09-1.785-.14-3.559-.164-5.078a89.672 89.672 0 01-.047-3.496c-.062-.367-.129-.555-.207-.559-.914.098-.844.278-.758.621.086.352.149.77.164 1.164-.004.25.2.453.446.457.25 0 .453-.199.457-.449M47.035 20.691c-.152-.398-.418-.742-.695-.902a.54.54 0 00-.39 1.008.544.544 0 00.698-.309.538.538 0 00-.308-.699 1.22 1.22 0 00-.625-.055.582.582 0 00-.36.746.583.583 0 101.102-.386.583.583 0 00-.742-.36c-.168.051-.375.176-.496.286a.63.63 0 10.921.859.63.63 0 00-.921-.86c-.442.422-.805 1.278-.98 2.192-.18.863-.247 2.047.023 3.094.804 1.574 2.418 2.793 4.058 3.226 2.016.2 4.157-.617 5.328-1.941.622-.871.97-1.93.946-2.863a3.287 3.287 0 00-.492-1.95c-.907-1-2.34-1.718-3.676-2.129-.805-.25-1.66-.418-2.36-.468-.414.035-.843.113-1.164.234a.727.727 0 00-.543.875c.09.39.485.637.875.543a.727.727 0 00.543-.875.727.727 0 00-.875-.543c-.324.125-.691.367-.875.648a.587.587 0 00.102.829.587.587 0 00.828-.102.587.587 0 00-.102-.828.587.587 0 00-.828.102c-.152.3-.156.773.008 1.085.098.23.363.34.598.243a.454.454 0 00.242-.594.459.459 0 00-.594-.246.462.462 0 00-.246.597c.168.262.461.567.856.864.129.117.328.11.445-.02a.316.316 0 00-.02-.449c-.296-.328-.418-.559-.441-.746-.02-.14.016-.027.082-.008.035 0 .07.043.277.043.211-.004.45.023.782.082.582-.016 1.261.066 1.996.238 1.234.297 2.394.785 3.062 1.457.223.293.309.61.285 1.082-.011.743-.27 1.395-.777 2.012-.898.942-2.434 1.438-3.934 1.152-1.207-.296-2.277-1.109-2.777-2.18-.191-.605-.164-1.417-.039-2.218.043-.832.164-1.371.309-1.582.02-.047-.032-.031-.043-.035-.016-.02-.141-.035-.149-.043.047-.04.11-.008.27.273a.447.447 0 00.597.22.447.447 0 00.22-.599M59.246 22.098a.61.61 0 00-.121-.25.34.34 0 00-.387-.29.342.342 0 00.102.676.342.342 0 00.285-.386c.02-.016.027-.063.023-.125a.4.4 0 10-.723.34.4.4 0 00.723-.34c-.082-.145-.738-.055-.796.027a.46.46 0 00.293.578.46.46 0 00.578-.293.46.46 0 00-.293-.578.46.46 0 00-.578.293.442.442 0 01-.141.129c-.082.023-.16.07-.238.113-.043.23-.047.863.054 1.54.801 1.66 2.668 3.382 4.618 3.894.894.176 1.949.156 2.785-.18 1.062-.672 1.8-1.84 2.05-2.973a4.802 4.802 0 00.075-2.128c-.582-1.43-1.77-2.665-2.727-3.575-.469-.465-.89-.86-1.16-1.164-.16-.125-.25-.187-.309-.238a.785.785 0 00-1.09-.211.785.785 0 00-.214 1.09c.242.36.73.453 1.09.21a.786.786 0 00.214-1.089c-.027-.02-.02.031-.02.059a.744.744 0 00-.937-.489.746.746 0 00-.488.938.751.751 0 00.938.492.75.75 0 00.488-.941c-.004.043-.012.246-.047.355a.717.717 0 00-.418-.918.714.714 0 00-.5 1.336.71.71 0 00.918-.418c-.188.055-.41.074-.445-.047a.32.32 0 00.21-.398.319.319 0 00-.398-.207c-.176-.078-.484.011-.703.152-.062.176-.07.461-.043.594.027.12.094.273.14.37.094.177.247.384.4.571.347.317.812.695 1.296 1.117.953.864 1.969 1.852 2.387 2.864.093.382.078.82-.055 1.32-.23.883-.687 1.531-1.36 1.86-.406.132-.964.081-1.648-.118-1.445-.336-2.777-1.629-3.261-2.742-.098-.32-.168-.773-.215-.95-.078-.027-.16-.03-.239-.034-.039.003-.082.039-.136.101-.059.078-.715.172-.797.027 0-.058.008-.105.027-.117-.039-.008-.074.04-.11.157a.45.45 0 10.903-.004M71.96 9.703c.09-.238.165-.371.235-.457a.495.495 0 10-.848-.512.495.495 0 00.848.512c.055-.07-.027.016-.125.078.297-.047.5-.32.457-.617a.538.538 0 00-.613-.453.542.542 0 00.156 1.07 1.436 1.436 0 01-.28-.039.562.562 0 10.609-.944.562.562 0 00-.61.944c-.031-.015-.082-.058-.078-.039.016.043.027.113.062.277.16.676.282 2.04.368 3.704.074 1.332.117 2.824.136 4.285.067 1.824.094 3.57.082 4.847a24.29 24.29 0 01-.062 1.246c-.027.317-.05.47-.067.457.055-.007.168-.12.297-.207a.774.774 0 00.047 1.098.778.778 0 10-.047-1.098c.09-.05.356-.167.532-.171a.702.702 0 10.06 1.403.702.702 0 00-.06-1.403c.164.039.394.168.445.242a.624.624 0 10-.86.904.624.624 0 00.86-.904c.012.191-.063.273-.176.222a.322.322 0 00-.379-.242.32.32 0 00-.242.38.77.77 0 00-.062.546c.058.082.3.215.472.254.184-.004.457-.125.559-.184.14-.105.27-.257.34-.316.046-.215.07-.527.078-.879.011-.352.015-.805.011-1.328.02-1.3 0-3.086-.062-4.93-.082-1.472-.195-3-.34-4.347-.187-1.692-.43-3.157-.726-3.954a2.309 2.309 0 00-.301-.562 1.214 1.214 0 00-.278-.246.994.994 0 00-.484-.086 1.103 1.103 0 00-.566.48c-.082.168-.168.41-.246.688a.456.456 0 00.293.57.455.455 0 00.566-.289zm0 0"/><path d="M66.734 17.887c.774.199 2.274-.059 4.16-.332a.62.62 0 10-.212-1.22.62.62 0 00.213 1.22c.55-.012 1.128-.028 1.738-.032.472-.07.8-.507.73-.98a.865.865 0 10-1.71.25c.066.473.507.8.98.73a37.802 37.802 0 011.86-.148.947.947 0 10-.184-1.883.947.947 0 00-.852 1.035c.05.52.512.899 1.035.848.64-.063 1.281-.11 1.95-.129a.936.936 0 00.913-.965.936.936 0 00-.964-.914.936.936 0 00-.914.965c.011.52.445.93.964.914.668-.008 1.325.012 2.004.067a.976.976 0 001.032-.91.97.97 0 10-1.938-.122.97.97 0 00.906 1.032c.7-.176 1.399-.313 2.125-.403a.318.318 0 10.113-.625 21.42 21.42 0 00-2.113-.914 23.875 23.875 0 00-2.18-.004 29.52 29.52 0 00-2.081.125c-.664.09-1.317.203-1.926.317-.602.171-1.172.351-1.7.527-1.886.383-3.257.738-3.765.668a.454.454 0 00-.535.348.453.453 0 00.351.535M12.895 36.555c-.567-.067-.957-.133-1.079-.2a.65.65 0 000 1.297.65.65 0 000-1.297c-.03-.015-.046-.03-.043 1.348a.698.698 0 10-.004-1.395.698.698 0 00.004 1.395c.004.016.024.031.063.047a.746.746 0 100-1.492.746.746 0 000 1.492c.082.035.238.066.48.098 1.164.062 3.754.12 7.715.183.563.016 1.188.028 1.871.028 4.371-.164 9.899-.508 15.715-.93 5.606-.414 11.594-.879 17.77-1.406 3.98-.41 8.047-.84 11.832-1.23a.869.869 0 00.785-.938.869.869 0 00-.938-.785.863.863 0 00-.78.937c.038.473.456.824.933.785a521.74 521.74 0 013.11-.36.776.776 0 00.71-.839.78.78 0 10-.71.84c5.859-.496 11.136-.852 14.769-1.125a.503.503 0 00.472-.524.498.498 0 10-.472.524c1.394-.133 2.62-.281 3.718-.496a.316.316 0 00.27-.356.32.32 0 00-.36-.273c-1.085.094-2.285.12-3.68.133-3.64.086-8.937.254-14.839.562-1.035.059-2.074.125-3.14.192-3.797.277-7.876.593-11.856.886-6.164.465-12.14.875-17.758 1.23-5.808.47-11.3.86-15.61 1.067-.636.016-1.234.024-1.8.027-3.973.06-6.563.122-7.727.18a2.374 2.374 0 00-.48.098c-.04.015-.059.035-.063.05-.003 1.376.012 1.36.043 1.344.121-.066.512-.132 1.079-.195.25 0 .453-.203.453-.453a.453.453 0 00-.453-.45"/></svg>