<?xml version="1.0" ?><svg viewBox="25.546667 20.162667 33.688001 10.9" xmlns="http://www.w3.org/2000/svg" xmlns:xlink="http://www.w3.org/1999/xlink"><use x="15.938" xlink:href="#a" y="12.374"/><path d="M19.16 18.012c.164-.649.406-2.215.242-2.89a.701.701 0 00-.93-.34.701.701 0 00.59 1.269.7.7 0 00.34-.93c-.375-.426-.898-.55-1.21-.488a.802.802 0 10.62 1.48.802.802 0 00-.62-1.48c-.243.07-.575.328-.77.55a.902.902 0 00.262 1.25.9.9 0 001.253-.261.902.902 0 00-.261-1.25.907.907 0 00-1.254.262c-.488 1.18-.918 3.277-1.309 5.632-.21 1.204-.422 2.504-.59 3.72-.214 2.265-.261 4.194-.214 5.335-.028.531-.036 1.027.035 1.383a1.028 1.028 0 101.975-.568 1.028 1.028 0 00-1.975.568c1.656.492 1.867.238 1.926.121.054-.125.097-.262.117-.352.05-.203.101-.488.144-.789.086-.593.176-1.433.23-2.414.079-2.03.048-4.652.048-7.27-.008-1.812.007-3.57.156-5.01.285-1.661.82-2.614 1.598-3.227.734-.63 1.542-.805 2.648-.727 1.117.023 2.11.262 2.918.84.844.699 1.351 1.832 1.441 3.27a6.453 6.453 0 01-.836 3.55c-.89 1.371-2.347 2.234-3.863 2.715a.93.93 0 10.574 1.77.934.934 0 00.602-1.172.933.933 0 00-1.176-.598c-1.484.539-2.71.59-3.191.277a.813.813 0 00-1.121.266.816.816 0 00.265 1.121.816.816 0 001.121-.27.811.811 0 00-.265-1.117c-.23-.027-.285.067-.325-.113a.566.566 0 10-.609.516.564.564 0 00.61-.516c-.07-.273.027-.64.433-1.207a.316.316 0 10-.469-.426c-.586.52-.957 1.063-1.09 1.535-.101.551.188 1.22.586 1.59 1.016.61 2.872.64 4.633.113 1.727-.57 3.668-1.77 4.86-3.52a9.139 9.139 0 001.101-4.624c-.148-1.785-.957-3.547-2.172-4.617-1.207-.785-2.691-1.125-3.972-1.133-1.32-.043-2.743.34-3.774 1.203-.992.879-1.77 2.36-2.086 4.297-.133 1.582-.113 3.41-.078 5.219-.039 2.613-.05 5.207-.16 7.152-.125.895-.273 1.629-.422 2.152-.074.262-.137.43-.191.532-.035.062-.043.062-.035.02a1.59 1.59 0 01.398-.38c1.402.774 1.414.442 1.434-.144-.004-1.13.074-2.938.312-5.114.125-1.168.293-2.437.469-3.644.308-2.344.637-4.324.898-5.14a.598.598 0 01-.273.144c-.055-.04-.395-.133-.461-.2.039-.12-.035 1.313-.031 1.965a.45.45 0 10.894.114M30.832 22.453c.05-.156.086-.32.098-.445a.483.483 0 10-.963-.002.483.483 0 00.963.002 1 1 0 00-.145-.52.513.513 0 00-.726-.043.514.514 0 00-.047.727.519.519 0 00.73.047.518.518 0 00.043-.73c-.152-.15-.457-.239-.598-.235a.552.552 0 00-.457.629c.047.297.329.5.625.457a.549.549 0 00-.168-1.086 1.651 1.651 0 00-.437.168c-.402.234-.938.793-1.395 1.465a12.017 12.017 0 00-1.156 3.488c-.05.781.07 1.54.328 2.094a3.175 3.175 0 001.383 1.355c1.067.387 2.5.38 3.613-.129 1.247-.746 2.114-2.195 2.336-3.48.184-.664.188-1.516-.097-2.219-.543-.758-1.34-1.332-2.114-1.703a.874.874 0 00-1.148.45.874.874 0 00.45 1.148.874.874 0 001.148-.45.874.874 0 00-.45-1.148 7.733 7.733 0 00-2.449-.605.85.85 0 00-.898.792.844.844 0 00.789.895.842.842 0 00.898-.79.847.847 0 00-.789-.898c-.476.063-.972.2-1.308.41a.582.582 0 00.406 1.09.583.583 0 00.344-.746.584.584 0 00-.75-.343c-.332.238-.61.648-.602 1.035a.316.316 0 00.262.363.313.313 0 00.363-.262c.09-.12.172-.066.398-.05.192.011.43.082.782.191.574.043 1.21.21 1.847.512.66.261 1.157.562 1.465.957.176.23.219.578.149 1.125-.172 1.043-.762 2.027-1.653 2.5-.761.32-1.652.265-2.37-.074-.313-.133-.458-.27-.602-.602-.176-.332-.235-.695-.192-1.266.102-.941.434-2.066.864-2.953.296-.586.617-1.027.808-1.199.04-.04.027-.047.024-.055a.776.776 0 01-.418-.148c-.04-.082-.059-.192-.051-.164a.529.529 0 01-.008.219.452.452 0 00.875.227M42.34 23.773c.297-.636.293-1.324.058-1.773a.608.608 0 00-.855-.129.612.612 0 10.727.984c.27-.199.328-.582.128-.855-.3-.445-.894-.746-1.402-.855a.776.776 0 10-.152 1.543.776.776 0 00.152-1.543c-.465-.122-1.27-.122-1.914.144a.817.817 0 00.703 1.473.818.818 0 00.387-1.086.818.818 0 00-1.09-.387 3.71 3.71 0 00-1.45 1.875c-.152 1.934 1.184 3.953 1.891 5.324.227.414.407.754.508 1.059.11.285.145.32.121.312.114-.12-.039-.156-.48-.27a.85.85 0 00-.285 1.676.853.853 0 00.984-.695.852.852 0 00-.7-.98c-.937-.094-2.054-.668-2.308-1.434a.69.69 0 10-.43.879.69.69 0 00.43-.879c-.074-.183-.09-.285-.047-.476a.68.68 0 00-.543-.797.682.682 0 10.543.797 1.32 1.32 0 01-.238-.43.317.317 0 00-.144-.422.316.316 0 00-.426.14c-.196.122-.38.302-.531.458-.07.379-.032.84.078 1.18.472 1.331 2.078 2.367 3.328 2.66.664.074 1.472-.063 1.957-.493.36-.628.351-1.238.238-1.683-.113-.438-.32-.926-.531-1.38-.754-1.483-1.914-3.155-1.692-4.206.06-.313.227-.582.543-.809.168-.105.465-.105.844-.027.446-.008.574-.035.668.059.168.093.235.218.09.714a.45.45 0 00.254.586c.23.09.492-.023.586-.254M47.95 12.082c0 .227-.02.508-.048.898a.683.683 0 001.356-.187.683.683 0 10-1.356.187c.157 1.73.02 4.957-.203 8.114a.938.938 0 00.895.976.935.935 0 10-.895-.977c-.101 3.516-.32 6.887-.367 7.95-.039.43.277.809.707.852a.782.782 0 00.848-.707c.152-1.07.472-4.47.68-8.008.058-3.192.027-6.528-.31-8.387-.132-.406-.292-.766-.46-1.016a.45.45 0 10-.848.305"/><path d="M44.352 22.871c.062.055.066.336.074.426a.612.612 0 00-.074-.86.612.612 0 00-.86.079.608.608 0 10.934.781c-.055.117-.07.191 0 .219a.768.768 0 00-.566-1.426.766.766 0 10.566 1.426c.246-.07 1.176-.082 2.383-.059a.841.841 0 10-.003-1.682.841.841 0 00.003 1.682c1.203-.004 2.629.027 3.886.031a.803.803 0 00.024-1.605.802.802 0 00-.023 1.605c1.257-.144 2.363-.308 2.91-.558a.318.318 0 00.261-.364.318.318 0 00-.363-.261c-.496-.082-1.54-.242-2.785-.422-1.246-.028-2.676-.086-3.907-.106-1.242.024-2.343.098-2.914.301-.14.11-.28.25-.359.387-.11.223-.125.586-.02.746a.449.449 0 10.833-.34M60.867 21.063c-.144-.258-.441-.493-.722-.622a.533.533 0 10-.356 1.004.533.533 0 00.356-1.004 3.857 3.857 0 00-1.004-.265.613.613 0 00-.645.582c-.02.34.242.625.578.644.34.02.63-.242.649-.582a.617.617 0 00-.582-.644c-.703-.086-1.59-.028-2.286.191a.78.78 0 00-.425 1.016.78.78 0 001.015.422.776.776 0 00-.59-1.438c-1.078.621-1.613 1.863-1.625 2.914.27 1.551 1.352 2.844 1.836 4.094.387 1.035.465 1.836.032 2.309-.09.062-.223.109-.524.183-.39.156-.816.207-1.39.184a4.592 4.592 0 01-1.243-.18 1.02 1.02 0 00-1.265.695 1.02 1.02 0 101.957.57 1.02 1.02 0 00-.692-1.265c-.605-.094-1.117-.246-1.601-.531a.783.783 0 10-.969 1.23.78.78 0 001.102-.133.779.779 0 00-.133-1.097 2.092 2.092 0 01-.305-.235.758.758 0 10-1.09 1.054.758.758 0 001.09-1.054c-.219-.007-.406.004-.61-.02a.314.314 0 00-.445-.058.31.31 0 00-.058.442c-.008.23.016.48.043.71.105.126.273.286.433.41.524.509 1.262.946 1.965 1.243.551.168 1.184.281 1.746.313.73.027 1.559-.079 2.203-.31.473-.214.989-.589 1.301-.987.739-1.23.61-2.852.098-4.125-.637-1.52-1.66-2.684-1.766-3.602-.058-.61.063-1.094.582-1.355.375-.215.97-.344 1.547-.364.293-.011.516-.004.715.043.2.035.266.043.309.09a.45.45 0 00.77-.473M8.02 35.96c-.418-.07-.66-.132-.743-.19a.546.546 0 00-.304 1.046c.289.082.59-.082.675-.37a.548.548 0 00-.37-.676c-.071-.04.03.957-.012 1.03a.636.636 0 00.421-.796.636.636 0 00-.796-.422.638.638 0 10.375 1.219c.132.015.789.02 1.879.031a.83.83 0 00.789-.863.83.83 0 00-.868-.79.823.823 0 00-.785.864c.02.457.406.809.864.789 2.195.016 5.953.055 10.53.148 4.544-.011 9.903.02 15.317.067 3.89-.008 7.79.004 11.309.008 4.844-.035 8.922-.075 11.746-.11 1.648-.054 2.914-.105 3.61-.16.347-.031.554-.066.597-.097 0 0 .004-.004.004-.008 0 0 .004-.004.004-1.7a.847.847 0 10-.002 1.694.847.847 0 00.002-1.694c0 .004-.004.008-.012.012a.836.836 0 00-.832.836.834.834 0 10.832-.836c-.008.012-.031.02-.063.028a.81.81 0 00-.808.808.81.81 0 00.809.809.81.81 0 00.808-.809.81.81 0 00-.809-.808 1.585 1.585 0 01-.332.492.315.315 0 00-.316.316c0 .176.14.317.316.317.157.164.266.328.333.492a.171.171 0 01.062.023c.008.004.012.012.012.016 0-1.7-.004-1.7-.004-1.703l-.004-.004c-.043-.035-.25-.067-.598-.102-.695-.05-1.96-.101-3.61-.156-2.823-.035-6.901-.074-11.737-.11-3.512-.03-7.414-.07-11.309-.093-5.414-.004-10.79.008-15.344.066-4.59.16-8.379.367-10.59.606-1.109.113-1.87.25-2.175.402-.27.14-.141 1.207.109 1.242.18.016.496.024.93.035a.45.45 0 00.09-.898zm0 0"/></svg>