<?xml version="1.0" ?><svg xmlns="http://www.w3.org/2000/svg"><defs><clipPath clipPathUnits="userSpaceOnUse" id="a"><path d="M0 0h612v803.25H0V0z"/></clipPath></defs><text fill-opacity="0" font-size="25" font-weight="400" transform="matrix(1.35398 0 0 1.35398 2.943 51.646)"><tspan x="0 14.185 27.82 39.805 47.689999" y="0">Posts</tspan></text><g><g clip-path="url(#a)" transform="matrix(1.25 0 0 -1.25 0 1004.063)"><path d="M25.397 787.035c-.035.617-.57 2.143-.936 3.333a.661.661 0 01-1.24-.459.661.661 0 111.24.459c-.067.627-.138 1.33-.35 1.8a.912.912 0 11-1.38-1.194.912.912 0 111.38 1.194c-.947.298-1.362.085-1.49-.037a.951.951 0 111.485-1.189.951.951 0 11-1.485 1.189 2.192 2.192 0 01-.24-.353 3.492 3.492 0 01-.235-.617c-.128-.44-.254-1.106-.376-1.983a98.776 98.776 0 01-.518-6.076c-.123-2.984-.164-6.3.03-8.73.317-1.837.87-3.215 1.469-3.925.27-.259.745-.538 1.12-.617.41-.022 1.048.187 1.325.43.382.455.647 1.206.714 1.967.073.975.037 2.323-.193 3.764-.349 1.422-.869 2.917-1.46 4.511-.702 2.244-1.579 4.722-2.362 7.084-.962 2.846-1.758 5.434-2.02 7.432-.072 1.14.026 1.93.357 2.555.79 1.377 2.789 2.066 5.175 2.064 1.415.175 2.538.09 3.623-.467.79-.442 1.455-1.07 2.041-2.022.544-.902.9-1.977 1.052-3.296a11.943 11.943 0 00-.185-4.153c-.407-1.255-1.061-2.477-1.846-3.565a1.173 1.173 0 011.88-1.404 1.173 1.173 0 11-1.88 1.404c-.993-1.489-2.046-2.383-3.2-2.917a1.005 1.005 0 11.78-1.854h-.001a1.006 1.006 0 11-.78 1.854c-1.143-.556-2.12-.662-3.07-.373a.838.838 0 11-.548-1.584.838.838 0 11.548 1.584c-1.148.194-2.06.863-2.637 2.207a.317.317 0 01-.607-.184c.333-1.652 1.381-2.95 2.696-3.608 1.267-.477 2.913-.446 4.398.104 1.473.572 3.055 1.751 4.312 3.384a16.499 16.499 0 012.348 4.25c.455 1.718.608 3.529.485 5.138-.165 1.595-.661 3.212-1.358 4.471-.854 1.275-2.03 2.34-3.202 2.98-1.65.722-3.519.844-5.105.61-2.672-.316-5.46-1.706-6.54-3.932-.26-1.072-.175-2.213.102-3.406.253-2.1 1.05-4.797 1.993-7.669.798-2.37 1.683-4.836 2.395-7.07.527-1.621.96-3.068 1.212-4.355.04-1.271-.09-2.4-.317-3.235-.13-.556-.22-.648-.27-.565.06.056.463.196.628.224.131-.029.353-.14.35-.083-.205.26-.462 1.062-.649 2.591-.189 2.186-.162 5.355-.054 8.305.03 2.308.12 4.417.21 5.97.017.869.028 1.45.04 1.824.005.18-.006.248-.017.284-.012.007-.073-.08-.128-.136-.091-.075-.467-.266-.728-.283-.628.516-.435-.004-.178-.682.524-1.227 1.175-2.66 1.307-3.085a.45.45 0 01.89.142M39.518 785.133c.254.094.504.266.654.429a.516.516 0 11-.84.602.516.516 0 01.84-.602c.15.185.257.484.278.699a.582.582 0 11-1.163-.046.582.582 0 011.163.046c-.004.445-.32.973-.683 1.235a.713.713 0 11-.663-1.264.713.713 0 11.663 1.264 2.08 2.08 0 01-1.294.004c-.34-.125-.762-.383-1.124-.698-1.454-1.616-3.022-4.914-3.346-7.836-.037-1.94.596-3.891 1.84-5.001 1.284-.761 2.923-.989 4.373-.728 1.816.533 3.653 1.781 4.883 3.224.94 1.167 1.603 2.585 1.804 3.92a5.77 5.77 0 01-.14 2.873c-.72 1.792-2.147 3.652-3.646 4.97-.896.742-1.892 1.34-2.781 1.699-1.228.418-2.615.458-3.565-.023a.964.964 0 11.889-1.712.964.964 0 11-.889 1.712c-.447-.304-.888-.854-1.068-1.399a.813.813 0 111.509-.609.813.813 0 01-1.509.609c-.146-.52-.171-1.213-.041-1.905a.662.662 0 011.315.157.662.662 0 11-1.315-.157c.154-.322.344-.68.564-1.038a.317.317 0 01.611.172c.01.391.06.72.14 1.023-.02.56.065.875.235 1.14.136.238.218.247.447.295.402.22.982.13 1.911-.273.729-.258 1.459-.667 2.234-1.28 1.374-1.106 2.6-2.59 3.232-4.037.25-.652.294-1.206.163-1.91-.182-1.103-.678-2.08-1.494-3.02-1.099-1.143-2.53-1.993-3.95-2.27-1.026-.17-1.867-.032-2.548.451-.643.472-.938 1.483-.889 3.006.062 2.477 1.258 5.372 2.313 6.767.166.198.312.33.478.426.148.1.119.125.137.129-.002.054.024.099.04.039.03-.038.068.003.046-.052-.022-.077-.044-.125-.183-.208a.45.45 0 01.37-.822"/><path d="M59.934 785.5c-.68.544-2.313 1.2-3.934 1.565a.745.745 0 11-.238-1.471.745.745 0 11.238 1.471c-.938.183-1.972.262-2.817.129a.818.818 0 01.315-1.606.818.818 0 11-.315 1.606c-.968-.141-1.964-.719-2.48-1.518a1.196 1.196 0 112.213-.91 1.196 1.196 0 01-2.213.91c-.184-2.076 1.206-4.25 2.501-6.369 1.241-2.058 2.238-4.207 2.555-5.596.136-.435.199-.653.215-.832.028-.158.089.015.119.096.343.231.13.24-.463.358-.615.115-1.332.351-2.153.696a20.763 20.763 0 00-3.99 2.228 1.065 1.065 0 01-1.259-1.719 1.065 1.065 0 011.259 1.719c-1.13.67-1.938 1.277-2.26 1.772a.691.691 0 11-1.271-.544.691.691 0 111.271.544c-.177.234-.253.273-.207.425a.504.504 0 01-.868.513.504.504 0 11.868-.513c.038.216.211.401.699.596a.317.317 0 01-.168.612c-.614-.107-1.115-.365-1.4-.695-.277-.394-.323-1.003-.196-1.482.287-.929 1.192-1.998 2.273-2.947 1.279-.946 2.908-1.874 4.386-2.52.89-.391 1.807-.71 2.567-.876.782-.164 1.687-.163 2.342.118.655.718.802 1.35.793 1.765-.02.392-.113.858-.224 1.278-.33 1.622-1.409 4.1-2.69 6.34-1.387 2.154-2.584 3.81-2.405 4.438-.124.036.006.256.556.52.565.141 1.335.118 2.202-.007 1.552-.15 3.067-.56 3.693-.853a.45.45 0 01.486.76M66.42 795.063a2.12 2.12 0 01-.051.336.52.52 0 01-.915-.496.52.52 0 11.915.496.9.9 0 01-.127.218.555.555 0 01-.733-.834.555.555 0 11.733.834c-.075.072-.312.17-.468.182a.59.59 0 01.136-1.172.59.59 0 01-.136 1.172 1.162 1.162 0 01-.436-.195 1.533 1.533 0 01-.163-.193 1.985 1.985 0 01-.171-.314c-.153-.395-.29-1.104-.409-1.995a60.63 60.63 0 01-.314-3.237c-.064-1.23-.117-2.59-.156-3.972a218.907 218.907 0 01-.031-4.143c.028-1.345.07-2.633.125-3.753.112-1.493.252-2.74.421-3.478.108-.23.235-.468.366-.626.073-.088.204-.247.33-.344.17-.104.653-.213.908-.127a.72.72 0 01-.499 1.351.72.72 0 01.499-1.351c.17.123.325.324.356.436a.62.62 0 01-1.068.629.62.62 0 011.068-.629c.015.095.032.219.032.324a.519.519 0 01-.983.332.519.519 0 11.983-.332l-.018.783a.317.317 0 11-.624.117c-.12-.28-.233-.46-.34-.568-.052-.047-.085-.04-.118-.027-.018.03.09.18.213.287.209.069.646-.026.772-.084.084-.052.172-.135.203-.119.05.05.099.134.134.327-.062.615-.102 1.748-.123 3.211a139.095 139.095 0 00-.09 3.683c-.041 1.331-.07 2.724-.086 4.094-.03 1.371-.05 2.708-.055 3.926a190.304 190.304 0 00-.073 4.966c-.008.07-.03.081-.05.088-.014-.002-.06-.055-.098-.086a1.223 1.223 0 00-.37-.154c-.133.015-.348.104-.4.156-.028.045-.061.11-.056.121.026.007.054-.004.097-.076a.45.45 0 01.87.235"/><path d="M60.678 784.342a2.136 2.136 0 00-.516.215.528.528 0 11-.372-.99v.001a.528.528 0 11.372.99c-.088.058.003.021.12-.084a.606.606 0 11-1.098-.514.606.606 0 111.098.514c.048-.116.037-.423.002-.53a.645.645 0 01-1.088.693.645.645 0 111.088-.693c-.044-.074-.124-.161-.121-.177.023-.011.077-.021.23-.011.135-.027.283-.057.473-.085.377-.04.838-.084 1.393-.133.551.01 1.167.011 1.847.007.677.04 1.398.072 2.155.096a1.364 1.364 0 11-.09 2.726 1.364 1.364 0 01.09-2.726c.756.027 1.533.047 2.319.058a1.358 1.358 0 01-.032 2.715 1.358 1.358 0 01.032-2.715c1.572.175 3.141.317 4.541.42a.89.89 0 01.068 1.777.89.89 0 01-.068-1.777c.357.176.701.35 1.036.523a.317.317 0 11.036.634c-.318.209-.656.415-1.004.62-1.42.21-3.04.38-4.641.518a91.726 91.726 0 01-4.599-.146 41.094 41.094 0 01-1.92-.269 12.136 12.136 0 01-1.468-.48 4.427 4.427 0 01-.53-.284 2.436 2.436 0 01-.545-.28 1.42 1.42 0 01-.29-.319c-.066-.156-.082-.511-.011-.677.164-.205.413-.345.605-.391.177-.038.42-.077.707-.11a.45.45 0 01.181.883M87.214 787.22c-.078.315-.184.45-.24.519a.531.531 0 01-.58-.89.531.531 0 11.58.89 1.886 1.886 0 01-.226.224.612.612 0 11-.581-1.076.612.612 0 11.581 1.076 6.956 6.956 0 01-.775.56.772.772 0 01-.643-1.405.773.773 0 01.643 1.405c-.64.41-1.537.893-2.428 1.29-1.049.306-2.155.491-3.032.475a4.149 4.149 0 01-1.38-.258c-.42-.192-.933-.647-1.188-1.08-.393-.983-.369-2.32.041-3.505.806-1.537 2.096-3.015 3.226-4.326 1.208-1.436 2.233-2.733 2.741-3.84.189-.486.251-.799.191-1.135-.064-.415-.148-.502-.71-.715-.269-.088-.637-.158-1.136-.2a7.755 7.755 0 00-1.538-.007c-.84.012-1.608.122-2.364.367-.499.175-.87.355-1.231.618a2.545 2.545 0 00-.425.378 1.254 1.254 0 01-1.838-1.706 1.254 1.254 0 011.838 1.706c-.131.146-.197.24-.28.398a1.267 1.267 0 01-2.201-1.255 1.267 1.267 0 012.201 1.255c-.087.155-.12.24-.159.411a1.276 1.276 0 01-2.467-.65 1.276 1.276 0 112.467.65c-.361.11-.699.234-1.015.478a.318.318 0 01-.635.005c-.32-.323-.59-.737-.817-1.133.094-.335.259-.725.426-1.016.171-.288.416-.609.642-.849.225-.238.517-.494.782-.689a8.086 8.086 0 011.83-.986c.94-.382 2.062-.639 3.075-.74a11.46 11.46 0 012.05.098 8.11 8.11 0 011.852.52c1.09.603 1.86 1.697 2.03 2.692.1.75-.035 1.651-.304 2.41-.616 1.497-1.755 3.091-2.966 4.65-1.188 1.343-2.335 2.604-2.907 3.68-.279.657-.317 1.091-.17 1.416-.039-.018-.153-.115-.052-.071.108.073.199.097.481.112.649.062 1.433-.036 2.324-.257.834-.152 1.71-.397 2.403-.597.347-.099.629-.179.837-.23a1.22 1.22 0 01.226-.038c.047.002-.003.088-.08.381a.45.45 0 11.902-.01M21.518 763.94c-.545.102-1.583.308-2.578.463a.54.54 0 01-.134-1.072.54.54 0 01.134 1.072c-.433.063-.824.111-1.187.16a.598.598 0 11-.094-1.192.598.598 0 11.094 1.192c-.598.097-1.137.2-1.394.322a.755.755 0 11-.366-1.465.755.755 0 11.366 1.465c-.054.026-.04.034-.02.043.038-.011.262-.23.377-.48.001-.3-.195-.69-.243-.756-.023-.028-.05-.056.022-.044.592.12 2.094.32 4.753.568 2.187.245 4.95.5 8.107.706 1.264.082 2.575.159 3.881.227 2.201.13 4.374.225 6.403.269 6.134.22 12.892.336 19.82.441 4.304.147 8.657.287 12.795.399 5.26.104 10.168.155 14.462.225 5.357.184 9.659.398 12.505.587 1.826.089 2.995.168 3.616.274.162.027.328.063.449.102.142.049.465.234.709.565.077.566-.269 1.116-.421 1.202a2.626 2.626 0 01-.403.138.82.82 0 01-.526-1.553.82.82 0 01.526 1.553c-.277.083-.69.182-1.2.302a.79.79 0 11-.39-1.53v-.001a.79.79 0 11.39 1.53l-.847.2a.776.776 0 01-.381-1.505.776.776 0 11.381 1.505c-.346-.07-.717-.133-1.114-.187a.317.317 0 11-.16-.614c.322-.242.621-.477.893-.703l.839-.226c.498-.137.856-.242 1.063-.323.082-.04.085-.052.066-.056-.054.028-.36.527-.305 1.047.22.284.459.429.45.44-.032.002-.085.006-.212.004-.536-.012-1.653-.002-3.488-.004-2.856-.014-7.142-.052-12.473-.06-4.272.013-9.19.046-14.477.026-4.16-.062-8.526-.153-12.82-.25-6.916-.159-13.703-.33-19.85-.604-2.046-.08-4.268-.213-6.48-.38-1.303-.088-2.632-.188-3.918-.293-3.2-.333-6.017-.72-8.209-1.09-2.674-.44-4.321-.858-5.064-1.219a2.234 2.234 0 01-.431-.265c-.14-.132-.372-.586-.36-.942.125-.308.406-.58.541-.64.115-.041.265-.078.378-.093.413-.046 1.052-.056 1.668-.05.367-.01.748-.019 1.157-.04.967-.092 2.006-.238 2.583-.284a.45.45 0 11.117.894"/></g></g></svg>