<?xml version="1.0" ?><svg viewBox="6.2651433 18.9005 77.231811 33.224814" xmlns="http://www.w3.org/2000/svg"><defs><clipPath clipPathUnits="userSpaceOnUse" id="a"><path d="M0 0h612v803.25H0V0z"/></clipPath></defs><text fill-opacity="0" font-size="25" font-weight="400" transform="matrix(1.35398 0 0 1.35398 2.943 51.646)"><tspan x="0 14.185 27.82 39.805 47.689999" y="0">Posts</tspan></text><g><g clip-path="url(#a)" transform="matrix(1.25 0 0 -1.25 0 1004.063)"><path d="M19.16 785.24c.163.648.406 2.213.242 2.89a.699.699 0 01-1.266-.591.699.699 0 111.266.591c-.375.425-.9.55-1.21.485a.802.802 0 11.62-1.478.802.802 0 11-.62 1.478c-.243-.07-.576-.324-.769-.548a.905.905 0 111.514-.99.905.905 0 01-1.514.99c-.49-1.18-.92-3.28-1.308-5.634a101.393 101.393 0 01-.593-3.717c-.212-2.265-.26-4.198-.213-5.336-.026-.532-.036-1.029.035-1.385a1.027 1.027 0 111.974.57 1.027 1.027 0 01-1.974-.57c1.655-.49 1.868-.238 1.926-.121.054.126.097.263.117.352.05.204.103.49.146.79.085.593.175 1.431.23 2.413.075 2.033.046 4.652.045 7.271-.006 1.813.007 3.57.156 5.011.287 1.66.82 2.615 1.597 3.227.735.628 1.545.802 2.649.725 1.116-.024 2.11-.26 2.919-.84.842-.697 1.352-1.83 1.443-3.268a6.449 6.449 0 00-.839-3.551c-.89-1.372-2.347-2.235-3.86-2.714a.931.931 0 01.573-1.772.931.931 0 11-.573 1.772c-1.485-.54-2.713-.59-3.195-.277a.814.814 0 11-.852-1.387.814.814 0 11.852 1.387c-.227.027-.283-.066-.322.112a.566.566 0 01-1.127.097.566.566 0 011.127-.097c-.072.274.026.642.432 1.206a.317.317 0 01-.469.428c-.583-.52-.955-1.065-1.09-1.538-.102-.548.187-1.216.586-1.588 1.017-.608 2.874-.641 4.635-.113 1.725.568 3.668 1.77 4.857 3.52a9.117 9.117 0 011.104 4.623c-.147 1.787-.959 3.549-2.174 4.617-1.208.786-2.689 1.125-3.973 1.136-1.32.04-2.74-.344-3.774-1.206-.991-.877-1.767-2.358-2.084-4.297-.13-1.58-.113-3.41-.076-5.216-.04-2.613-.051-5.207-.163-7.155-.123-.894-.274-1.63-.422-2.153a2.705 2.705 0 00-.192-.53c-.032-.063-.04-.062-.032-.02.011.032.18.233.398.382 1.403-.775 1.411-.443 1.434.142-.007 1.13.072 2.938.313 5.112.124 1.169.292 2.439.467 3.645.31 2.346.636 4.326.898 5.143a.567.567 0 00-.274-.147c-.054.042-.396.133-.459.201.036.12-.035-1.311-.033-1.966a.45.45 0 11.895-.11M30.831 780.798c.05.154.086.32.099.444a.483.483 0 11-.966 0 .483.483 0 01.966 0c.007.14-.048.368-.143.518a.516.516 0 11-.773-.682.516.516 0 11.773.682c-.154.15-.46.239-.599.235a.548.548 0 01.168-1.083.548.548 0 11-.168 1.083 1.683 1.683 0 01-.438-.165c-.4-.234-.937-.794-1.393-1.467a11.909 11.909 0 01-1.156-3.487c-.051-.783.07-1.538.328-2.093a3.17 3.17 0 011.38-1.358c1.067-.384 2.5-.38 3.615.13 1.246.746 2.112 2.196 2.337 3.479.181.666.186 1.518-.1 2.22-.543.757-1.338 1.333-2.112 1.702a.871.871 0 11-.7-1.596.871.871 0 11.7 1.596c-.781.34-1.705.561-2.45.605a.845.845 0 11-.108-1.687.845.845 0 11.108 1.687c-.475-.061-.971-.198-1.308-.41a.581.581 0 11.406-1.09v.001a.581.581 0 11-.406 1.09c-.334-.239-.61-.649-.603-1.037a.317.317 0 11.627-.1c.088.12.172.066.397.053.194-.014.429-.083.781-.195a5.281 5.281 0 001.848-.509c.66-.26 1.156-.565 1.464-.958.176-.229.22-.579.148-1.124-.172-1.042-.759-2.03-1.65-2.5-.763-.323-1.652-.267-2.373.075-.31.132-.455.269-.602.601-.174.331-.231.693-.19 1.264.103.941.433 2.067.862 2.956.3.585.619 1.024.808 1.196.04.042.028.048.027.056a.79.79 0 00-.421.148c-.036.084-.059.193-.05.164a.487.487 0 00-.005-.217.45.45 0 11.873-.227M42.338 779.477c.299.638.294 1.323.06 1.772a.613.613 0 01-.987-.726.613.613 0 11.987.726c-.301.448-.895.746-1.402.857a.774.774 0 11-.153-1.541.774.774 0 11.153 1.541c-.465.122-1.27.122-1.912-.145a.815.815 0 01.701-1.472.815.815 0 11-.701 1.472c-.684-.45-1.218-1.162-1.45-1.875-.155-1.934 1.183-3.953 1.888-5.325.228-.413.408-.754.51-1.056.107-.288.145-.321.122-.313.113.119-.041.155-.48.268a.85.85 0 11-.285-1.677.85.85 0 11.285 1.677c-.94.095-2.058.667-2.312 1.435a.691.691 0 11-1.307-.45.691.691 0 111.307.45c-.071.184-.087.284-.046.477a.682.682 0 01-1.34.255.682.682 0 011.34-.255c-.1.133-.188.26-.24.426a.317.317 0 01-.57.28 3.173 3.173 0 01-.53-.452 2.623 2.623 0 01.08-1.182c.47-1.331 2.079-2.366 3.326-2.66.664-.074 1.473.064 1.959.494.359.628.35 1.237.239 1.683-.114.437-.322.925-.534 1.376-.751 1.488-1.912 3.158-1.692 4.21.059.312.23.582.543.806.17.108.465.108.847.027.442.01.57.037.667-.057.166-.092.234-.22.088-.716a.45.45 0 11.84-.33M47.947 791.167c0-.225-.019-.508-.045-.896a.684.684 0 111.356.186.684.684 0 01-1.356-.185c.156-1.731.022-4.96-.202-8.117a.935.935 0 111.868-.083.935.935 0 01-1.868.083c-.104-3.516-.32-6.887-.366-7.95a.78.78 0 011.552-.145c.152 1.071.473 4.47.682 8.012.058 3.19.025 6.528-.31 8.385-.134.407-.291.768-.463 1.017a.45.45 0 11-.848-.307"/><path d="M44.353 780.379c.062-.057.063-.336.073-.426a.609.609 0 11-.933.783.609.609 0 11.933-.783c-.054-.118-.071-.19-.001-.22a.767.767 0 01-.564 1.427.767.767 0 01.564-1.427c.247.072 1.176.084 2.382.059a.84.84 0 110 1.68.84.84 0 010-1.68c1.205.005 2.63-.025 3.889-.029a.802.802 0 01.022 1.603.802.802 0 01-.022-1.603c1.258.144 2.364.307 2.91.556a.317.317 0 01-.102.626c-.495.08-1.541.243-2.786.421-1.245.03-2.674.085-3.905.107-1.243-.025-2.344-.098-2.915-.3a1.527 1.527 0 01-.359-.387c-.107-.225-.124-.588-.021-.746a.45.45 0 01.835.34M60.867 782.189c-.143.258-.442.49-.724.62a.532.532 0 11-.354-1.004v.001a.532.532 0 01.354 1.004c-.28.125-.65.216-1.003.263a.614.614 0 01-.065-1.225.614.614 0 01.065 1.225c-.703.088-1.59.028-2.286-.191a.776.776 0 11.59-1.436.776.776 0 11-.59 1.436c-1.078-.622-1.613-1.864-1.622-2.914.268-1.552 1.35-2.844 1.834-4.094.385-1.034.464-1.834.03-2.309-.088-.063-.222-.11-.52-.18-.393-.159-.818-.209-1.39-.185-.428.004-.811.059-1.245.178a1.02 1.02 0 11-.574-1.96 1.02 1.02 0 11.574 1.96c-.605.095-1.116.246-1.6.534a.784.784 0 11-.969-1.233.784.784 0 01.969 1.233c-.127.08-.203.139-.305.232a.759.759 0 01-1.092-1.054.759.759 0 011.092 1.054c-.22.008-.409-.002-.611.021a.317.317 0 01-.504-.386c-.009-.23.015-.477.044-.709.107-.123.275-.285.433-.41.523-.506 1.264-.947 1.965-1.24a7.634 7.634 0 011.746-.314c.732-.027 1.558.076 2.203.308.472.215.99.591 1.303.988.738 1.232.608 2.853.098 4.125-.638 1.52-1.663 2.682-1.766 3.601-.061.61.059 1.094.58 1.358.374.215.967.341 1.549.362.29.012.514.003.713-.042.199-.038.266-.043.31-.09a.45.45 0 01.768.472M8.018 767.287c-.418.073-.658.133-.742.193a.545.545 0 01-.304-1.046.545.545 0 01.304 1.046c-.07.04.035-.956-.012-1.032a.639.639 0 11-.375 1.221.639.639 0 11.375-1.221c.135-.016.791-.017 1.88-.03a.827.827 0 11-.076 1.652v.001a.827.827 0 01.076-1.652c2.195-.016 5.952-.057 10.53-.149 4.544.012 9.902-.019 15.319-.066 3.89.006 7.79-.006 11.309-.01 4.843.038 8.921.075 11.744.112 1.649.053 2.914.105 3.611.158.349.033.555.065.596.098a.017.017 0 01.005.007c.002.002.002.004.002 1.701a.847.847 0 010-1.695.847.847 0 010 1.695c0-.004-.003-.009-.008-.013a.834.834 0 110-1.668.834.834 0 010 1.668.19.19 0 00-.065-.027.807.807 0 110-1.615.807.807 0 010 1.615 1.548 1.548 0 00-.331-.49.317.317 0 110-.635c.156-.163.266-.326.33-.49a.196.196 0 00.066-.026c.005-.004.008-.01.008-.014 0 1.697 0 1.7-.002 1.702l-.005.007c-.041.032-.247.065-.596.098-.697.052-1.962.105-3.611.157-2.823.037-6.901.075-11.739.112-3.51.03-7.413.07-11.306.093-5.417.003-10.79-.011-15.345-.067-4.59-.16-8.379-.37-10.59-.606-1.11-.114-1.87-.25-2.177-.401-.266-.144-.139-1.208.111-1.243.179-.017.497-.025.929-.036a.45.45 0 11.09.897z"/></g></g></svg>