<?xml version="1.0" ?><svg viewBox="svg2 119.38667 121.844 8.7853336 5.7440002
path4" xmlns="http://www.w3.org/2000/svg"><path d="M89.54 95.691c.026-.578 1.151-2.363 1.972-4.308a.672.672 0 10-1.268-.461.672.672 0 001.268.46c.449-1.312.765-2.695.781-3.679a.818.818 0 00-.856-.781.82.82 0 00-.785.851.821.821 0 101.64-.07c-.007-.41-.108-.89-.296-1.226a.878.878 0 00-1.445.996.879.879 0 001.445-.996c-.25-.348-.906-.665-1.379-.645-.531-.035-1.5.34-2.297 1.07-1.02 1.18-2.097 3.059-3.007 5.512-1.149 3.402-2.133 7.875-2.422 11.973-.207 2.035-.215 3.953.046 5.457.547 2.113 1.934 3.742 3.54 4.281a1.45 1.45 0 001.789-1 1.455 1.455 0 00-1.004-1.79 1.45 1.45 0 00-.785 2.79c1.375.188 2.894-.148 4.195-.777a1.313 1.313 0 10-1.075-2.392 1.313 1.313 0 001.075 2.392c1.664-.899 3.441-2.407 4.89-4.18a.944.944 0 10-1.4-1.266.944.944 0 001.4 1.266c.965-1.406 1.813-3.023 2.372-4.68a.26.26 0 00-.118-.343.262.262 0 00-.343.117 17.038 17.038 0 01-3.309 3.636c-1.496 1.477-3.07 2.524-4.57 3.059-1.067.438-1.809.55-2.457.352-.696-.114-1.102-.575-1.477-2.079-.242-1.128-.262-2.68-.101-4.644.18-3.945 1.011-8.145 2.02-11.406.76-2.297 1.585-3.887 2.331-4.852.422-.508.621-.625.824-.637.145-.058-.168-.21-.183-.218.05.004.074.043.105.308.09.758-.097 1.942-.422 3.176-.578 1.895-1.539 3.824-1.421 4.777.011.2.183.352.382.34a.36.36 0 00.344-.383M110.43 91.98c.125-.578-.004-1.218-.153-1.648a.45.45 0 10-.828.357.45.45 0 00.828-.357 4.552 4.552 0 00-.234-.777.64.64 0 10-.95.86.64.64 0 00.95-.86.96.96 0 00-.195-.22.69.69 0 10-.653 1.215.69.69 0 00.653-1.214c-.34-.102-.836.078-.93.156-.203.426-.215.703-.203.867.39.993 1.347 3.09 1.941 5.918.324 2.07.48 4.563.48 6.926.052 1.45.052 2.762-.019 3.914-.082 1.078-.203 1.942-.37 2.653-.161.69-.306 1.058-.505 1.308a1.321 1.321 0 00.34 1.832 1.32 1.32 0 001.832-.34 1.321 1.321 0 00-.34-1.832 1.322 1.322 0 00-1.832.34c-.101.152-.035.094-.078.082a1.336 1.336 0 101.043 2.461 1.336 1.336 0 10-1.043-2.46c-.031.1.09.132-.246.003a1.222 1.222 0 00-1.629.59 1.227 1.227 0 101.629-.59c-1.262-.207-3.215-1.906-5.95-5.27a.255.255 0 00-.417.293c2.234 3.778 3.941 6.149 5.324 7.196.664.336 1.637.453 2.344.234.43-.21.922-.656 1.195-1.047.363-.57.664-1.386.848-2.238.18-.848.304-1.894.379-3.055.062-1.254.043-2.683-.02-4.144-.09-2.414-.344-5.07-.785-7.317-.852-3.054-2.078-5.3-2.582-6.07.016.125-.004.277-.11.55-.16.18-.636.345-.949.255-.05-.051-.105-.117-.101-.137.07-.023.203.078.355.273.176.336.32.75.266 1.168a.366.366 0 00.293.422c.199.032.387-.097.422-.297"/><path d="M95.996 92.566c-.031-.246.008-.246.133-.308a.534.534 0 00-.188-.73.535.535 0 10-.546.917.536.536 0 00.734-.187c.09-.067.254-.113.687-.258a.706.706 0 10-.61-1.273.706.706 0 00.61 1.273c.586-.23 1.375-.473 2.54-.762a.947.947 0 00.609-1.187.947.947 0 00-1.188-.61.944.944 0 10.578 1.797c1.204-.34 2.723-.707 4.508-1.093 3.125-.66 6.883-1.34 10.262-1.747a70.255 70.255 0 013.512-.386 52.264 52.264 0 013.148-.14 1.17 1.17 0 10-.036-2.34 1.17 1.17 0 00.036 2.34c1.473-.145 2.75-.231 3.836-.274a.817.817 0 10.112-1.63.817.817 0 00-.112 1.63c.36.015.692.035 1 .058a.789.789 0 10.167-1.568.789.789 0 00-.167 1.568c.332-.148.633-.285.926-.426.14.016.27-.082.285-.222a.253.253 0 00-.219-.285 7.718 7.718 0 00-.84-.637c-.312-.043-.668-.078-1.035-.117a37.19 37.19 0 00-3.992-.438 59.489 59.489 0 00-3.27.145c-1.152.058-2.39.16-3.667.293-3.454.554-7.278 1.379-10.41 2.176-1.797.449-3.364.886-4.606 1.293-1.188.464-2.059.91-2.621 1.308-.442.274-.805.621-.961.961-.133.367-.066.8.102 1.106a.364.364 0 00.684-.246M147.441 95.813c-.254-.458-.425-1.278-.59-1.926a.51.51 0 10-.966.32.51.51 0 00.967-.32c-.07-.336-.165-.723-.399-1a.553.553 0 10-.68.872.553.553 0 00.68-.872c-.7-.075-.973.125-1.098.242a.728.728 0 00.356.965c.367.168.8.008.969-.356a.73.73 0 00-.36-.968.726.726 0 00-.965.359c-.101.078-.214.242-.308.379-.133.449-.25 1.191-.328 2.262-.082 1.64-.125 3.835-.14 6.058a129.173 129.173 0 000 4.766c.194 2.367.519 4.261.835 5.328.129.305.27.558.395.726.144.184.425.457.789.614.226.043.691-.04.808-.114.164-.132.34-.363.387-.488.055-.215.078-.484.062-.726-.007-.668-.101-1.668-.308-2.809-.328-1.395-.863-3.035-1.488-4.918-.746-2.48-1.657-5.39-2.41-8.27-.579-2.425-1.055-4.812-1.239-6.734-.09-1.664.086-2.664.606-3.308.37-.516.859-.825 1.613-1.028.75-.222 1.527-.234 2.496-.031 1.004.187 1.96.57 2.95 1.219.968.722 1.89 1.691 2.69 2.8a12.244 12.244 0 012.04 5.375c.21 1.704-.016 3-.633 4.04a1.092 1.092 0 00.39 1.5 1.094 1.094 0 10-.39-1.5c-.723 1.171-1.957 1.82-3.211 2.043a.965.965 0 00-.805 1.097.962.962 0 10.805-1.098c-.988.235-1.777.063-2.43-.464a.61.61 0 10-.87.852.61.61 0 00.87-.852c-.715-.547-1.097-1.356-.969-2.465a.254.254 0 00-.199-.301.251.251 0 00-.3.195c-.375 1.243-.094 2.52.597 3.422.754.906 2.113 1.524 3.543 1.52 1.656-.223 3.617-1.184 4.813-2.77.859-1.472 1.238-3.453 1.039-5.48-.246-2.063-1.059-4.457-2.375-6.461-.95-1.262-2.13-2.453-3.332-3.324-1.262-.774-2.63-1.278-3.856-1.477-1.203-.176-2.476-.078-3.48.273-.996.368-1.957 1.086-2.528 1.95-.535 1.156-.574 2.652-.273 4.414.289 1.972.883 4.406 1.566 6.824.77 2.898 1.696 5.82 2.453 8.293.555 1.902 1.012 3.523 1.25 4.844.079 1.062.047 1.945-.062 2.52-.043.152-.078.16-.113.14.015-.067.148-.242.261-.344.07-.05.477-.113.735-.062.16.078.308.187.304.105-.003-.07-.007-.172-.035-.379-.218-.883-.468-2.578-.605-4.816-.063-1.41-.082-3.031-.086-4.653a229.983 229.983 0 01-.14-5.984c.003-1.004.03-1.598.07-1.922-.04-.101-.09-.129-.145-.144-.047-.047-.258.082-.437.101-.528-.262-.461-.047-.352.309.258.625.55 1.5.96 2.039a.364.364 0 00.606-.403M164.406 99.398c.153-.293.196-.668.133-.949a.44.44 0 10-.832.29.44.44 0 10.832-.29c-.082-.285-.309-.586-.55-.777a.519.519 0 10-.56.875.519.519 0 10.56-.875c-.512-.352-1.36-.52-2.196-.39a.676.676 0 10.297 1.316.675.675 0 10-.297-1.316c-.816.156-1.793.636-2.652 1.402-.653.648-1.282 1.488-1.828 2.425-.754 1.383-1.426 3.051-1.868 4.559-.468 1.797-.617 3.531-.347 4.66.164.496.527 1.008.918 1.274.402.226 1.03.328 1.52.246 1.175-.309 2.694-1.371 4.066-2.977a29.093 29.093 0 002.32-3.379c1.144-2.156 1.77-4.195 1.996-5.469.137-.66.187-1.191.156-1.476-.07-.223-.172-.367-.187-.395-.192-.144-.485-.21-.492-.218a1.32 1.32 0 00-.7.402c-.086.09-.203.309-.293.539-.242.922-.504 2.543-.644 4.172-.078.937-.113 1.933-.059 2.824.14.906.403 1.719.73 2.332a1.051 1.051 0 001.833-1.031 1.047 1.047 0 00-1.43-.399 1.048 1.048 0 00-.402 1.43c.375.61.941 1.184 1.5 1.5a1.004 1.004 0 10-.368-1.371 1.003 1.003 0 00.368 1.371c.8.297 1.816.285 2.648-.07a.636.636 0 00.43-.785.63.63 0 10-1.21.352.632.632 0 00.78.433c.766-.36 1.586-1.024 2.332-1.965a.257.257 0 00-.367-.36c-.867.715-1.625 1.047-2.316 1.11-.63.066-.954-.094-1.29-.453-.292-.172-.46-.38-.68-.8-.253-.415-.421-.876-.542-1.548-.078-.699-.082-1.558-.047-2.457a36.57 36.57 0 01.305-3.906c.007-.125 0-.176-.028-.172 0-.035-.226.152-.55.227.007-.008-.266-.075-.446-.204 0-.015-.09-.148-.117-.218-.008-.067-.023.293-.137.883-.293 1.16-.937 2.984-2.093 4.96a26.164 26.164 0 01-2.223 3.102c-1.274 1.395-2.426 2.121-3.188 2.211-.183.039-.129.043-.183-.02-.067-.02-.04.004-.094-.214-.203-.696-.086-2.012.344-3.66.355-1.419.91-2.934 1.558-4.231.45-.863.922-1.563 1.43-2.129.645-.668 1.242-1.023 1.848-1.191.605-.2 1.035-.192 1.347-.043.153.062.215.086.266.183.07.102.094.176.035.364a.363.363 0 10.664.296M174.547 99.164c-.031.25-.027.512-.027.836 0 .203.16.363.363.363a.363.363 0 10-.363-.363c-.094.21-.188.457-.293.758a.646.646 0 00.617.672.645.645 0 00.05-1.29.642.642 0 00-.667.618c-.098.48-.215 1.082-.368 1.851a.842.842 0 001.672.188.842.842 0 00-1.672-.188c-.14.84-.316 1.82-.484 2.825a75.776 75.776 0 00-.371 3.004c-.055.957-.066 1.859 0 2.566.035.355.094.707.18.98.097.29.32.66.59.864.136.074.433.164.617.156a.716.716 0 10.005-1.432.716.716 0 00-.005 1.432 1.48 1.48 0 00.562-.203.675.675 0 00.246-.918.675.675 0 00-.922-.242.67.67 0 10.676 1.16c.203-.14.473-.422.707-.746a.59.59 0 00-.078-.825.583.583 0 00-.824.079.584.584 0 00.078.824.588.588 0 00.824-.078l.274-.926a.256.256 0 00-.07-.356.25.25 0 00-.356.07c-.274.212-.52.36-.75.462-.23.238-.352.312-.442.312-.058.02.043-.023.075-.043.05-.008.23.04.285.051.031.035.097.105.082-.043-.024-.164-.028-.355-.024-.656.008-.606.086-1.395.207-2.309.075-.93.188-1.937.313-2.937.098-1.004.2-2 .273-2.871.028-.813.016-1.465-.015-1.985a4.888 4.888 0 00-.266-.824c0-.332-.004-.547.02-.746a.36.36 0 00-.313-.406.365.365 0 00-.406.316M175.281 93.047c-.605-.059-1.176.008-1.594.164a.593.593 0 10.617 1.018.593.593 0 00-.617-1.018c-.164.062-.34.152-.488.25a.718.718 0 101.074.953.718.718 0 00-1.074-.953c-.238.23-.453.613-.55.941a.822.822 0 101.623.259.822.822 0 00-1.624-.259c-.043.489.07 1.102.29 1.653.14.394.578.597.972.453a.764.764 0 00.453-.973.757.757 0 00-.972-.453.757.757 0 00-.453.973c.066.183.148.386.242.582a.762.762 0 101.375-.658.762.762 0 00-1.375.658c.328.3.71.636 1.129.965a.253.253 0 00.351.074.255.255 0 00.074-.356 6.248 6.248 0 01-.18-1.34 5.659 5.659 0 01-.19-.445c-.137-.433-.157-.664-.09-.87-.02-.142-.051-.15 0-.25 0-.067-.004-.114.054-.204.164-.195.453-.348.973-.434.199-.007.36-.172.351-.375a.365.365 0 00-.37-.355M187.79 100.355c-.536-.718-2.173-2.082-3.727-2.738a.774.774 0 00-.473 1.473.773.773 0 10.472-1.473 6.74 6.74 0 00-1.292-.476.923.923 0 00-1.024.808.917.917 0 00.813 1.02.921.921 0 00.21-1.828c-.445-.098-1.085-.07-1.578.148a1.067 1.067 0 00-.308 1.48c.32.497.984.633 1.48.31.496-.321.633-.985.309-1.481a1.067 1.067 0 00-1.48-.309c-.383.324-.653.824-.731 1.172-.063.32-.066.746-.035 1.144.176 1.325.726 3.215 1.215 5.02.793 2.844 1.328 5.293 1.152 6.246-.004.149.043.04.059 0a6.06 6.06 0 01.367-.226c-.051.07-.461 0-1.13-.239-.323-.129-.66-.293-1.034-.488a1.037 1.037 0 00-1.403.402 1.033 1.033 0 001.809 1c.273-.5.094-1.125-.406-1.402a16.68 16.68 0 01-1.11-.629.994.994 0 00-1.382.29.997.997 0 00.285 1.382 1 1 0 001.098-1.672 27.384 27.384 0 01-.56-.363.995.995 0 00-1.378.254.995.995 0 00.254 1.379.994.994 0 001.379-.254.988.988 0 00-.254-1.38 34.479 34.479 0 01-1.965-.566.254.254 0 00-.36.028.259.259 0 00.028.363c.32.594.734 1.207 1.172 1.809.191.132.394.277.597.41.387.265.805.527 1.2.754.394.23.804.449 1.18.629.761.382 1.6.664 2.277.699.547-.106 1.086-.442 1.332-.727.222-.34.386-.816.433-1.156.149-1.52-.48-4.3-1.32-7.203-.54-1.813-1.102-3.582-1.277-4.656-.043-.262-.055-.383-.047-.485-.008-.078-.125.125-.188.192-.14-.004-.164-.032.11-.047.285-.02.613.027 1.007.113 1.45.313 3.063 1.336 3.711 1.79a.36.36 0 00.512 0 .364.364 0 000-.517M68.176 122.012c-.14-.008-.723-.024-1.098-.055a.454.454 0 000 .91.454.454 0 100-.91c-.137-.07-.238-.148-.36-.21a.692.692 0 00-.573.788.69.69 0 10.574-.79c.097-.03.09-.05.086-.07a.75.75 0 100 1.501.75.75 0 000-1.5c.59.261.77.883-.004 1.55a.807.807 0 10.003-1.613.807.807 0 00-.003 1.614c.004.039.133.07.234.093.535-.004 2.184-.12 4.496-.28 1.13-.11 2.39-.224 3.828-.317a201.54 201.54 0 014.938-.176c2.781-.082 5.992-.137 10.57-.238 1.106-.028 2.262-.055 3.45-.086 1.91-.035 3.98-.09 6.32-.141 2.691-.055 5.625-.125 8.699-.195a653.71 653.71 0 004.02-.153c1.683-.035 3.43-.066 5.183-.097 7.856-.121 16.25-.184 24.59-.192 1.871 0 3.73.004 5.547.008 3.097.004 6.105.024 9.117.059 1.898.035 3.785.078 5.605.129 2.938.07 5.641.164 8.09.273 1.711.055 3.399.117 5.043.172 2.598.094 5.059.184 7.504.285 1.469.063 2.977.137 4.535.223 1.14.047 2.235.09 3.305.133 3.688.128 7.152.234 10.32.261 2.907.024 5.39.008 7.438-.02 2.633 0 4.539-.003 5.906-.042 1.027-.02 1.781-.063 2.305-.13a1.117 1.117 0 001.004-1.226 1.118 1.118 0 00-1.223-1.004 1.125 1.125 0 00-1.008 1.227c.063.617.61 1.066 1.227 1.004.363-.043.73-.117 1.004-.227a1.106 1.106 0 10-.831-2.05 1.106 1.106 0 00.83 2.05c.278-.125.723-.558.868-.898a1.084 1.084 0 00-.68-1.367 1.078 1.078 0 10-.687 2.043 1.08 1.08 0 001.367-.676c-.172-.777-.688-1.113-1.055-1.453a.257.257 0 00-.496.129c-.11.629-.176.965-.496.64.086-.168.375-.453.387-.484-.067.031-.149.039-.438.062-.441.032-1.097.043-2.097.036-1.34-.012-3.23-.059-5.88-.11a521.774 521.774 0 01-7.413-.105c-3.149-.024-6.579-.125-10.258-.254-1.067-.04-2.153-.078-3.274-.125a349.865 349.865 0 00-4.558-.2c-2.461-.081-4.926-.152-7.528-.222-1.636-.055-3.324-.117-5.03-.172-2.446-.094-5.173-.18-8.118-.242a780.082 780.082 0 00-5.633-.121c-3.027-.028-6.05-.04-9.152-.035l-5.547.011c-8.348-.007-16.758.04-24.629.145-1.754.027-3.504.05-5.21.082-1.349.039-2.685.074-4.024.105-3.067.082-6 .164-8.692.23-2.344.071-4.414.141-6.316.2-1.184.027-2.344.05-3.45.078-4.57.117-7.788.188-10.59.281-1.831.075-3.511.149-5.019.247-1.488.14-2.785.3-3.902.449-2.285.277-3.945.515-4.55.652-.032.047.058.078.054.117-.778.668-.594 1.301.004 1.563a.184.184 0 01.023-.059c.074-.086.149-.164.277-.25.36-.031.973-.074 1.184-.137a.36.36 0 00.3-.414.362.362 0 00-.413-.304zm0 0"/></svg>