<?xml version="1.0" encoding="UTF-8"?>
<svg xmlns="http://www.w3.org/2000/svg" xmlns:xlink="http://www.w3.org/1999/xlink" width="612pt" height="792pt" viewBox="0 0 612 792" version="1.1">
<g id="surface1">
<path style=" stroke:none;fill-rule:nonzero;fill:rgb(0%,0%,0%);fill-opacity:1;" d="M 147 85.378906 C 147.027344 85.296875 147.179688 84.734375 147.394531 84.207031 C 147.472656 84.003906 147.371094 83.777344 147.167969 83.699219 C 146.96875 83.621094 146.738281 83.722656 146.660156 83.921875 C 146.582031 84.125 146.683594 84.351562 146.886719 84.429688 C 147.085938 84.507812 147.316406 84.410156 147.394531 84.207031 C 147.542969 83.960938 147.722656 83.683594 147.882812 83.480469 C 148.023438 83.269531 147.96875 82.988281 147.761719 82.847656 C 147.550781 82.707031 147.269531 82.761719 147.128906 82.972656 C 146.988281 83.179688 147.042969 83.464844 147.253906 83.605469 C 147.460938 83.746094 147.746094 83.6875 147.882812 83.480469 C 147.964844 83.386719 148.027344 83.3125 148.078125 83.277344 C 148.261719 83.082031 148.25 82.773438 148.054688 82.589844 C 147.859375 82.40625 147.550781 82.417969 147.363281 82.613281 C 147.179688 82.808594 147.191406 83.117188 147.386719 83.300781 C 147.585938 83.484375 147.894531 83.476562 148.078125 83.277344 C 148.125 83.242188 148.070312 83.289062 147.96875 83.339844 C 148.25 83.292969 148.4375 83.023438 148.390625 82.742188 C 148.34375 82.460938 148.074219 82.269531 147.789062 82.316406 C 147.507812 82.367188 147.320312 82.636719 147.367188 82.917969 C 147.414062 83.199219 147.683594 83.390625 147.96875 83.339844 C 147.351562 83.105469 146.976562 84.308594 146.28125 85.96875 C 145.359375 87.921875 143.972656 90.589844 142.738281 93.0625 C 141.925781 94.738281 141.195312 96.300781 140.695312 97.480469 C 140.394531 98.230469 140.164062 98.875 140.058594 99.316406 C 140.003906 99.542969 139.972656 99.789062 139.996094 99.992188 C 140.023438 100.121094 140.21875 100.433594 140.484375 100.570312 C 140.804688 100.664062 141.136719 100.480469 141.230469 100.160156 C 141.324219 99.839844 141.140625 99.507812 140.820312 99.414062 C 140.5 99.320312 140.167969 99.503906 140.074219 99.824219 C 139.980469 100.144531 140.164062 100.476562 140.484375 100.570312 C 140.605469 100.601562 140.910156 100.558594 141.003906 100.507812 C 141.296875 100.371094 141.421875 100.019531 141.28125 99.726562 C 141.144531 99.433594 140.792969 99.308594 140.5 99.449219 C 140.207031 99.585938 140.082031 99.9375 140.222656 100.230469 C 140.359375 100.523438 140.710938 100.648438 141.003906 100.507812 C 141.746094 99.777344 142.992188 98.050781 143.984375 96.101562 C 144.0625 95.96875 144.015625 95.800781 143.882812 95.722656 C 143.746094 95.644531 143.578125 95.691406 143.5 95.828125 C 143.425781 95.960938 143.472656 96.128906 143.605469 96.207031 C 143.738281 96.28125 143.910156 96.238281 143.984375 96.101562 C 144.542969 95.046875 145.078125 93.871094 145.597656 92.609375 C 145.652344 92.476562 145.59375 92.328125 145.460938 92.273438 C 145.332031 92.21875 145.179688 92.28125 145.125 92.410156 C 144.597656 93.660156 144.058594 94.804688 143.496094 95.832031 C 142.359375 97.621094 141.023438 99.128906 140.375 99.527344 C 140.507812 99.441406 140.746094 99.414062 140.957031 99.472656 C 141.039062 99.535156 141.207031 99.796875 141.222656 99.84375 C 141.226562 99.878906 141.246094 99.84375 141.308594 99.671875 C 141.429688 99.320312 141.671875 98.761719 142.011719 98.035156 C 142.488281 96.871094 143.1875 95.332031 143.980469 93.660156 C 145.164062 91.183594 146.511719 88.484375 147.417969 86.453125 C 148.082031 84.695312 148.429688 83.332031 148.398438 82.816406 C 147.609375 82.382812 147.445312 82.511719 147.363281 82.613281 C 147.285156 82.714844 147.203125 82.84375 147.136719 82.960938 C 146.980469 83.230469 146.8125 83.570312 146.675781 83.890625 C 146.449219 84.503906 146.300781 85.117188 146.289062 85.226562 C 146.246094 85.421875 146.371094 85.613281 146.566406 85.65625 C 146.765625 85.699219 146.957031 85.574219 147 85.378906 Z M 147 85.378906 "/>
<path style=" stroke:none;fill-rule:nonzero;fill:rgb(0%,0%,0%);fill-opacity:1;" d="M 146.558594 89.382812 C 147.609375 86.304688 148.253906 83.5 148.84375 81.898438 C 148.917969 81.695312 148.8125 81.46875 148.609375 81.394531 C 148.402344 81.320312 148.175781 81.425781 148.105469 81.632812 C 148.03125 81.835938 148.136719 82.0625 148.339844 82.136719 C 148.542969 82.210938 148.769531 82.101562 148.84375 81.898438 C 149.046875 81.507812 149.226562 81.261719 149.402344 81.132812 C 149.582031 80.957031 149.589844 80.671875 149.417969 80.488281 C 149.242188 80.304688 148.953125 80.300781 148.773438 80.472656 C 148.589844 80.644531 148.582031 80.933594 148.757812 81.117188 C 148.929688 81.296875 149.21875 81.304688 149.402344 81.132812 C 149.546875 81.007812 149.519531 81.039062 149.570312 81.089844 C 149.847656 81.148438 150.121094 80.96875 150.183594 80.691406 C 150.242188 80.414062 150.0625 80.136719 149.785156 80.078125 C 149.503906 80.019531 149.230469 80.199219 149.171875 80.476562 C 149.113281 80.753906 149.289062 81.03125 149.570312 81.089844 C 149.621094 81.109375 149.648438 81.160156 149.773438 81.375 C 149.914062 81.597656 150.042969 81.890625 150.1875 82.304688 C 150.574219 83.257812 150.921875 84.515625 151.175781 86.097656 C 151.503906 88.441406 151.617188 91.429688 151.652344 93.925781 C 151.746094 95.355469 151.828125 96.542969 151.835938 97.417969 C 151.824219 97.726562 152.070312 97.988281 152.382812 97.996094 C 152.691406 98.003906 152.953125 97.761719 152.960938 97.449219 C 152.96875 97.136719 152.726562 96.878906 152.414062 96.867188 C 152.101562 96.859375 151.84375 97.105469 151.835938 97.417969 C 151.839844 97.851562 151.828125 98.171875 151.792969 98.414062 C 151.734375 98.691406 151.914062 98.964844 152.191406 99.019531 C 152.46875 99.078125 152.742188 98.902344 152.800781 98.621094 C 152.859375 98.34375 152.679688 98.074219 152.402344 98.015625 C 152.125 97.957031 151.851562 98.136719 151.792969 98.414062 C 151.765625 98.640625 151.789062 98.65625 151.804688 98.628906 C 151.585938 98.761719 151.511719 99.042969 151.640625 99.265625 C 151.773438 99.484375 152.054688 99.558594 152.277344 99.429688 C 152.496094 99.300781 152.570312 99.015625 152.441406 98.792969 C 152.3125 98.574219 152.027344 98.5 151.804688 98.628906 C 151.878906 98.683594 151.964844 98.742188 151.910156 98.796875 C 151.773438 98.757812 151.632812 98.839844 151.59375 98.976562 C 151.558594 99.113281 151.636719 99.253906 151.773438 99.289062 C 151.871094 99.386719 152.085938 99.445312 152.277344 99.429688 C 152.527344 99.269531 152.714844 98.941406 152.800781 98.621094 C 152.878906 98.316406 152.929688 97.914062 152.960938 97.449219 C 153.019531 96.53125 153.007812 95.304688 152.980469 93.886719 C 152.953125 91.394531 152.84375 88.332031 152.511719 85.890625 C 152.21875 84.230469 151.804688 82.835938 151.371094 81.820312 C 151.167969 81.378906 150.9375 80.976562 150.707031 80.695312 C 150.46875 80.402344 150.117188 80.15625 149.800781 80.082031 C 149.449219 80.046875 149.027344 80.214844 148.773438 80.472656 C 148.546875 80.722656 148.316406 81.117188 148.117188 81.601562 C 147.515625 83.292969 146.890625 86.101562 145.871094 89.152344 C 145.804688 89.339844 145.90625 89.546875 146.097656 89.613281 C 146.289062 89.675781 146.496094 89.574219 146.558594 89.382812 Z M 146.558594 89.382812 "/>
<path style=" stroke:none;fill-rule:nonzero;fill:rgb(0%,0%,0%);fill-opacity:1;" d="M 145.417969 92.359375 C 145.519531 92.441406 145.636719 92.515625 145.75 92.589844 C 146.070312 92.589844 146.332031 92.328125 146.332031 92.003906 C 146.332031 91.683594 146.070312 91.421875 145.75 91.421875 C 145.425781 91.421875 145.164062 91.683594 145.164062 92.003906 C 145.164062 92.328125 145.425781 92.589844 145.75 92.589844 C 146.570312 92.589844 147.925781 92.5 149.289062 92.460938 C 149.625 92.449219 149.886719 92.167969 149.875 91.832031 C 149.863281 91.5 149.582031 91.238281 149.246094 91.25 C 148.914062 91.261719 148.652344 91.542969 148.664062 91.875 C 148.675781 92.210938 148.957031 92.472656 149.289062 92.460938 C 150.84375 92.289062 152.382812 92.191406 153.160156 92.367188 C 153.292969 92.417969 153.441406 92.351562 153.488281 92.21875 C 153.539062 92.085938 153.472656 91.9375 153.339844 91.886719 C 152.484375 91.453125 150.832031 91.3125 149.246094 91.25 C 147.863281 91.304688 146.515625 91.410156 145.746094 91.421875 C 145.636719 91.496094 145.550781 91.570312 145.472656 91.636719 C 145.273438 91.621094 145.097656 91.769531 145.082031 91.96875 C 145.066406 92.171875 145.21875 92.34375 145.417969 92.359375 "/>
<path style=" stroke:none;fill-rule:nonzero;fill:rgb(0%,0%,0%);fill-opacity:1;" d="M 157.25 91.339844 C 156.835938 91.386719 156.40625 91.644531 156.089844 91.984375 C 155.941406 92.164062 155.964844 92.433594 156.140625 92.582031 C 156.320312 92.734375 156.589844 92.710938 156.738281 92.53125 C 156.890625 92.351562 156.867188 92.082031 156.6875 91.933594 C 156.507812 91.78125 156.242188 91.804688 156.089844 91.984375 C 155.785156 92.316406 155.503906 92.792969 155.285156 93.28125 C 155.1875 93.527344 155.308594 93.808594 155.558594 93.910156 C 155.804688 94.007812 156.085938 93.886719 156.183594 93.636719 C 156.285156 93.390625 156.164062 93.109375 155.914062 93.007812 C 155.664062 92.910156 155.382812 93.03125 155.285156 93.28125 C 154.855469 94.277344 154.59375 95.546875 154.566406 96.621094 C 154.574219 96.957031 154.847656 97.222656 155.179688 97.214844 C 155.515625 97.210938 155.78125 96.9375 155.773438 96.605469 C 155.769531 96.269531 155.496094 96.003906 155.160156 96.007812 C 154.828125 96.015625 154.5625 96.289062 154.566406 96.621094 C 154.554688 97.328125 154.675781 98.09375 155.007812 98.636719 C 155.542969 99.164062 156.292969 99.382812 156.980469 99.339844 C 157.714844 99.273438 158.566406 98.984375 159.230469 98.550781 C 160.148438 97.902344 160.707031 96.992188 160.882812 96.113281 C 160.929688 95.859375 160.757812 95.617188 160.503906 95.574219 C 160.25 95.527344 160.007812 95.699219 159.964844 95.953125 C 159.917969 96.207031 160.089844 96.449219 160.34375 96.492188 C 160.597656 96.535156 160.839844 96.367188 160.882812 96.113281 C 161.042969 95.214844 160.84375 94.21875 160.363281 93.4375 C 160.207031 93.199219 159.890625 93.132812 159.652344 93.289062 C 159.417969 93.445312 159.351562 93.761719 159.503906 94 C 159.660156 94.238281 159.976562 94.304688 160.214844 94.148438 C 160.453125 93.992188 160.519531 93.675781 160.363281 93.4375 C 159.90625 92.832031 159.207031 92.304688 158.402344 92.03125 C 158.207031 91.953125 157.980469 92.050781 157.90625 92.246094 C 157.828125 92.445312 157.925781 92.667969 158.121094 92.746094 C 158.320312 92.824219 158.542969 92.726562 158.621094 92.527344 C 158.699219 92.332031 158.601562 92.105469 158.402344 92.03125 C 157.609375 91.773438 156.621094 91.714844 155.550781 91.957031 C 155.414062 91.984375 155.324219 92.117188 155.347656 92.257812 C 155.375 92.398438 155.511719 92.488281 155.648438 92.460938 C 156.652344 92.308594 157.453125 92.441406 158.125 92.746094 C 158.777344 93.042969 159.210938 93.460938 159.503906 94 C 159.925781 94.597656 160.082031 95.238281 159.964844 95.953125 C 159.863281 96.671875 159.511719 97.304688 158.769531 97.847656 C 158.203125 98.148438 157.542969 98.308594 156.941406 98.292969 C 156.433594 98.292969 156.152344 98.1875 155.953125 97.898438 C 155.8125 97.699219 155.761719 97.261719 155.773438 96.625 C 155.71875 95.644531 155.867188 94.550781 156.1875 93.636719 C 156.34375 93.183594 156.519531 92.8125 156.738281 92.535156 C 156.949219 92.242188 157.117188 92.101562 157.355469 92.058594 C 157.554688 92.027344 157.691406 91.84375 157.664062 91.644531 C 157.632812 91.445312 157.449219 91.308594 157.25 91.339844 "/>
<path style=" stroke:none;fill-rule:nonzero;fill:rgb(0%,0%,0%);fill-opacity:1;" d="M 157.367188 85.03125 C 157.347656 84.84375 157.324219 84.691406 157.300781 84.582031 C 157.238281 84.375 157.015625 84.257812 156.808594 84.324219 C 156.597656 84.386719 156.484375 84.609375 156.546875 84.816406 C 156.613281 85.027344 156.835938 85.140625 157.042969 85.078125 C 157.25 85.011719 157.367188 84.789062 157.300781 84.582031 C 157.269531 84.453125 157.144531 84.261719 156.949219 84.152344 C 156.722656 84.09375 156.488281 84.230469 156.429688 84.457031 C 156.371094 84.6875 156.507812 84.917969 156.738281 84.976562 C 156.964844 85.035156 157.199219 84.898438 157.257812 84.667969 C 157.3125 84.441406 157.175781 84.210938 156.949219 84.152344 C 156.660156 84.148438 156.402344 84.359375 156.34375 84.46875 C 156.246094 84.703125 156.355469 84.972656 156.589844 85.066406 C 156.820312 85.164062 157.089844 85.054688 157.1875 84.820312 C 157.285156 84.589844 157.175781 84.320312 156.941406 84.222656 C 156.707031 84.125 156.441406 84.238281 156.34375 84.46875 C 156.292969 84.574219 156.246094 84.703125 156.210938 84.835938 C 156.0625 85.367188 155.925781 86.351562 155.792969 87.511719 C 155.652344 89.007812 155.472656 90.828125 155.355469 92.550781 C 155.335938 92.90625 155.605469 93.210938 155.957031 93.234375 C 156.3125 93.257812 156.621094 92.988281 156.640625 92.632812 C 156.664062 92.277344 156.394531 91.972656 156.039062 91.949219 C 155.683594 91.925781 155.378906 92.199219 155.355469 92.550781 C 155.332031 93.996094 155.347656 95.386719 155.464844 96.457031 C 155.476562 96.707031 155.6875 96.898438 155.933594 96.886719 C 156.183594 96.875 156.375 96.664062 156.363281 96.414062 C 156.351562 96.167969 156.140625 95.972656 155.890625 95.984375 C 155.644531 96 155.453125 96.207031 155.464844 96.457031 C 155.523438 97 155.605469 97.472656 155.722656 97.839844 C 155.765625 98.027344 155.957031 98.148438 156.144531 98.105469 C 156.335938 98.058594 156.457031 97.871094 156.410156 97.679688 C 156.367188 97.492188 156.179688 97.371094 155.988281 97.417969 C 155.796875 97.460938 155.679688 97.648438 155.722656 97.839844 C 155.84375 98.203125 156.03125 98.515625 156.269531 98.652344 C 156.386719 98.726562 156.546875 98.695312 156.621094 98.574219 C 156.699219 98.457031 156.664062 98.296875 156.546875 98.21875 C 156.484375 98.164062 156.453125 98 156.410156 97.679688 C 156.367188 97.351562 156.355469 96.9375 156.363281 96.414062 C 156.378906 95.382812 156.488281 94.054688 156.640625 92.632812 C 156.738281 90.925781 156.894531 89.121094 157.019531 87.617188 C 157.066406 86.449219 157.117188 85.507812 157.167969 85.027344 C 157.179688 84.917969 157.1875 84.851562 157.191406 84.808594 C 157.175781 84.808594 156.972656 84.964844 156.738281 84.976562 C 156.59375 84.882812 156.523438 84.769531 156.546875 84.816406 C 156.582031 84.886719 156.613281 84.980469 156.652344 85.148438 C 156.683594 85.347656 156.871094 85.480469 157.066406 85.449219 C 157.265625 85.417969 157.402344 85.230469 157.367188 85.03125 Z M 157.367188 85.03125 "/>
<path style=" stroke:none;fill-rule:nonzero;fill:rgb(0%,0%,0%);fill-opacity:1;" d="M 161.890625 93.367188 C 161.847656 93.914062 161.644531 94.976562 161.617188 95.976562 C 161.625 96.253906 161.855469 96.476562 162.136719 96.472656 C 162.414062 96.464844 162.636719 96.234375 162.632812 95.953125 C 162.625 95.671875 162.394531 95.453125 162.113281 95.457031 C 161.832031 95.464844 161.613281 95.695312 161.617188 95.976562 C 161.628906 96.59375 161.746094 97.316406 162.125 97.816406 C 162.296875 98.027344 162.605469 98.0625 162.816406 97.890625 C 163.027344 97.722656 163.0625 97.410156 162.890625 97.199219 C 162.722656 96.988281 162.414062 96.953125 162.203125 97.125 C 161.988281 97.292969 161.957031 97.601562 162.125 97.816406 C 162.703125 98.257812 163.464844 98.417969 164.140625 98.371094 C 164.382812 98.359375 164.566406 98.15625 164.558594 97.917969 C 164.546875 97.679688 164.34375 97.492188 164.105469 97.503906 C 163.863281 97.515625 163.679688 97.71875 163.6875 97.957031 C 163.699219 98.195312 163.902344 98.382812 164.140625 98.371094 C 164.8125 98.320312 165.542969 98.085938 166.050781 97.722656 C 166.433594 97.453125 166.742188 97.039062 166.851562 96.601562 C 166.988281 96.308594 167.074219 95.839844 167.003906 95.425781 C 166.945312 95.179688 166.699219 95.03125 166.453125 95.09375 C 166.207031 95.152344 166.058594 95.398438 166.121094 95.644531 C 166.179688 95.886719 166.425781 96.039062 166.671875 95.976562 C 166.914062 95.917969 167.066406 95.671875 167.003906 95.425781 C 166.625 94.738281 165.980469 94.246094 165.40625 93.84375 C 165.15625 93.679688 164.824219 93.753906 164.664062 94.003906 C 164.503906 94.25 164.578125 94.582031 164.824219 94.742188 C 165.074219 94.902344 165.40625 94.832031 165.566406 94.582031 C 165.726562 94.332031 165.652344 94.003906 165.40625 93.84375 C 165.054688 93.605469 164.726562 93.390625 164.472656 93.195312 C 164.222656 93.007812 163.867188 93.0625 163.683594 93.316406 C 163.496094 93.566406 163.550781 93.921875 163.804688 94.105469 C 164.054688 94.292969 164.410156 94.238281 164.59375 93.984375 C 164.78125 93.734375 164.726562 93.378906 164.472656 93.195312 C 164.152344 93.085938 163.941406 93.042969 163.816406 92.972656 C 163.769531 92.839844 163.621094 92.773438 163.488281 92.824219 C 163.355469 92.875 163.289062 93.019531 163.339844 93.152344 C 163.359375 93.46875 163.566406 93.804688 163.804688 94.105469 C 164.109375 94.320312 164.476562 94.53125 164.824219 94.742188 C 165.414062 95.089844 165.945312 95.417969 166.171875 95.769531 C 166.210938 95.882812 166.203125 96.113281 166.125 96.382812 C 166.054688 96.71875 165.910156 96.90625 165.625 97.101562 C 165.214844 97.367188 164.671875 97.5 164.105469 97.503906 C 163.542969 97.511719 163.097656 97.398438 162.820312 97.128906 C 162.667969 96.949219 162.632812 96.523438 162.632812 95.960938 C 162.5625 95.039062 162.667969 93.988281 162.617188 93.359375 C 162.613281 93.160156 162.449219 92.996094 162.25 93 C 162.046875 93.003906 161.886719 93.167969 161.890625 93.367188 "/>
<path style=" stroke:none;fill-rule:nonzero;fill:rgb(0%,0%,0%);fill-opacity:1;" d="M 169.800781 93.382812 C 169.582031 93.367188 169.304688 93.457031 169.132812 93.589844 C 168.96875 93.753906 168.964844 94.023438 169.132812 94.1875 C 169.296875 94.351562 169.5625 94.351562 169.726562 94.1875 C 169.894531 94.023438 169.894531 93.757812 169.730469 93.589844 C 169.566406 93.425781 169.296875 93.425781 169.132812 93.589844 C 168.976562 93.722656 168.835938 93.941406 168.753906 94.144531 C 168.679688 94.398438 168.828125 94.664062 169.082031 94.738281 C 169.335938 94.816406 169.605469 94.667969 169.679688 94.414062 C 169.753906 94.15625 169.605469 93.890625 169.351562 93.816406 C 169.097656 93.742188 168.828125 93.890625 168.753906 94.144531 C 168.605469 94.527344 168.554688 95.054688 168.566406 95.519531 C 168.601562 95.847656 168.898438 96.082031 169.226562 96.046875 C 169.554688 96.011719 169.792969 95.714844 169.753906 95.386719 C 169.71875 95.058594 169.421875 94.820312 169.09375 94.859375 C 168.765625 94.894531 168.53125 95.191406 168.566406 95.519531 C 168.660156 96.390625 169.097656 97.355469 169.875 97.855469 C 171.082031 98.3125 172.757812 98.097656 173.71875 97.335938 C 173.929688 97.175781 173.96875 96.871094 173.808594 96.660156 C 173.644531 96.449219 173.339844 96.410156 173.128906 96.570312 C 172.917969 96.734375 172.878906 97.039062 173.042969 97.25 C 173.207031 97.460938 173.507812 97.5 173.71875 97.335938 C 174.167969 96.898438 174.417969 96.320312 174.464844 95.773438 C 174.492188 95.539062 174.324219 95.328125 174.089844 95.300781 C 173.855469 95.277344 173.644531 95.445312 173.617188 95.675781 C 173.59375 95.910156 173.761719 96.121094 173.992188 96.148438 C 174.226562 96.175781 174.4375 96.007812 174.464844 95.773438 C 174.503906 95.238281 174.394531 94.632812 174.195312 94.058594 C 174.136719 93.863281 173.929688 93.757812 173.734375 93.816406 C 173.539062 93.875 173.429688 94.082031 173.492188 94.277344 C 173.550781 94.472656 173.757812 94.582031 173.953125 94.523438 C 174.148438 94.460938 174.257812 94.253906 174.195312 94.058594 C 173.804688 92.929688 173.046875 91.734375 172.3125 90.785156 C 172.230469 90.667969 172.070312 90.644531 171.957031 90.726562 C 171.84375 90.808594 171.816406 90.96875 171.898438 91.082031 C 172.554688 92.054688 173.199219 93.207031 173.492188 94.277344 C 173.636719 94.8125 173.691406 95.257812 173.617188 95.675781 C 173.558594 96.085938 173.425781 96.339844 173.101562 96.59375 C 172.410156 97.109375 171.207031 97.191406 170.425781 96.78125 C 170.011719 96.570312 169.820312 96.085938 169.757812 95.390625 C 169.671875 95.003906 169.636719 94.667969 169.679688 94.414062 C 169.691406 94.285156 169.691406 94.246094 169.726562 94.1875 C 169.746094 94.128906 169.714844 94.125 169.800781 94.109375 C 170.003906 94.109375 170.164062 93.945312 170.164062 93.746094 C 170.164062 93.546875 170.003906 93.382812 169.800781 93.382812 "/>
<path style=" stroke:none;fill-rule:nonzero;fill:rgb(0%,0%,0%);fill-opacity:1;" d="M 177.628906 84.148438 C 177.703125 83.863281 177.761719 83.734375 177.804688 83.75 C 177.910156 83.503906 177.796875 83.222656 177.554688 83.117188 C 177.308594 83.015625 177.027344 83.128906 176.921875 83.371094 C 176.816406 83.617188 176.929688 83.898438 177.175781 84.003906 C 177.417969 84.105469 177.703125 83.992188 177.804688 83.75 C 177.804688 83.777344 177.726562 83.890625 177.386719 84.042969 C 177.667969 84.042969 177.894531 83.816406 177.894531 83.53125 C 177.894531 83.25 177.667969 83.023438 177.386719 83.023438 C 177.105469 83.023438 176.875 83.25 176.875 83.53125 C 176.875 83.816406 177.105469 84.042969 177.386719 84.042969 C 177.390625 84.046875 177.019531 83.902344 177.015625 83.914062 C 177.222656 84.128906 177.5625 84.136719 177.777344 83.929688 C 177.992188 83.722656 178 83.382812 177.796875 83.167969 C 177.589844 82.953125 177.25 82.945312 177.03125 83.152344 C 176.816406 83.355469 176.808594 83.699219 177.015625 83.914062 C 176.902344 83.773438 176.867188 83.726562 176.855469 83.769531 C 176.875 84.054688 176.882812 84.925781 176.875 86.121094 C 176.882812 87.320312 176.875 88.8125 176.859375 90.332031 C 176.859375 90.746094 177.195312 91.082031 177.609375 91.082031 C 178.023438 91.078125 178.355469 90.746094 178.355469 90.332031 C 178.355469 89.917969 178.019531 89.585938 177.605469 89.585938 C 177.195312 89.585938 176.859375 89.921875 176.859375 90.332031 C 176.851562 91.546875 176.839844 92.777344 176.820312 93.882812 C 176.816406 94.3125 177.160156 94.664062 177.589844 94.667969 C 178.019531 94.671875 178.371094 94.324219 178.375 93.894531 C 178.378906 93.464844 178.03125 93.113281 177.601562 93.113281 C 177.171875 93.109375 176.824219 93.453125 176.820312 93.882812 C 176.855469 94.996094 176.886719 95.972656 176.917969 96.6875 C 176.910156 97.042969 177.191406 97.339844 177.546875 97.347656 C 177.902344 97.351562 178.195312 97.070312 178.203125 96.714844 C 178.210938 96.359375 177.929688 96.066406 177.574219 96.058594 C 177.21875 96.050781 176.921875 96.332031 176.917969 96.6875 C 177.035156 97.222656 177.152344 97.605469 177.269531 97.789062 C 177.257812 97.929688 177.363281 98.054688 177.503906 98.0625 C 177.644531 98.074219 177.769531 97.96875 177.777344 97.824219 C 177.921875 97.640625 178.0625 97.246094 178.203125 96.714844 C 178.261719 95.996094 178.320312 95.007812 178.375 93.894531 C 178.371094 92.789062 178.367188 91.546875 178.355469 90.332031 C 178.335938 88.804688 178.304688 87.296875 178.257812 86.089844 C 178.199219 84.882812 178.128906 83.953125 178.03125 83.566406 C 177.996094 83.476562 177.933594 83.347656 177.859375 83.25 C 177.777344 83.164062 177.390625 83.007812 177.027344 83.171875 C 177.03125 83.175781 176.9375 83.316406 176.941406 83.332031 C 176.90625 83.519531 176.902344 83.75 176.90625 84.0625 C 176.882812 84.261719 177.023438 84.445312 177.222656 84.46875 C 177.421875 84.492188 177.605469 84.347656 177.628906 84.148438 "/>
<path style=" stroke:none;fill-rule:nonzero;fill:rgb(0%,0%,0%);fill-opacity:1;" d="M 174.566406 93.082031 C 174.523438 93.171875 174.554688 93.234375 174.742188 93.265625 C 175.039062 93.210938 175.238281 92.929688 175.183594 92.632812 C 175.132812 92.339844 174.851562 92.140625 174.554688 92.191406 C 174.257812 92.246094 174.058594 92.527344 174.113281 92.824219 C 174.164062 93.121094 174.445312 93.316406 174.742188 93.265625 C 175.003906 93.257812 175.421875 93.265625 175.964844 93.265625 C 176.324219 93.246094 176.597656 92.933594 176.578125 92.570312 C 176.554688 92.210938 176.242188 91.933594 175.882812 91.957031 C 175.519531 91.980469 175.246094 92.292969 175.269531 92.652344 C 175.289062 93.015625 175.601562 93.289062 175.964844 93.265625 C 176.863281 93.199219 178.070312 93.125 179.324219 92.929688 C 179.664062 92.882812 179.898438 92.566406 179.847656 92.230469 C 179.800781 91.894531 179.488281 91.660156 179.148438 91.707031 C 178.8125 91.757812 178.578125 92.070312 178.625 92.40625 C 178.675781 92.746094 178.988281 92.980469 179.324219 92.929688 C 180.054688 92.707031 180.816406 92.441406 181.519531 92.113281 C 181.652344 92.074219 181.734375 91.933594 181.695312 91.796875 C 181.65625 91.664062 181.515625 91.582031 181.378906 91.621094 C 180.640625 91.707031 179.894531 91.726562 179.152344 91.707031 C 177.945312 91.871094 176.789062 91.917969 175.882812 91.957031 C 175.335938 92.03125 174.875 92.101562 174.558594 92.191406 C 174.355469 92.289062 174.132812 92.421875 174 92.621094 C 173.875 92.777344 173.898438 93.007812 174.054688 93.132812 C 174.210938 93.261719 174.4375 93.238281 174.566406 93.082031 "/>
<path style=" stroke:none;fill-rule:nonzero;fill:rgb(0%,0%,0%);fill-opacity:1;" d="M 74.601562 87.816406 C 74.730469 87.292969 74.925781 86.03125 74.792969 85.484375 C 74.664062 85.203125 74.328125 85.078125 74.046875 85.210938 C 73.761719 85.34375 73.640625 85.679688 73.773438 85.960938 C 73.90625 86.242188 74.242188 86.363281 74.523438 86.234375 C 74.804688 86.101562 74.925781 85.765625 74.792969 85.484375 C 74.492188 85.140625 74.070312 85.039062 73.816406 85.09375 C 73.488281 85.230469 73.335938 85.609375 73.472656 85.9375 C 73.609375 86.269531 73.988281 86.421875 74.320312 86.285156 C 74.648438 86.144531 74.804688 85.765625 74.664062 85.4375 C 74.527344 85.109375 74.148438 84.953125 73.816406 85.09375 C 73.621094 85.148438 73.355469 85.355469 73.199219 85.535156 C 72.976562 85.871094 73.074219 86.324219 73.410156 86.542969 C 73.746094 86.765625 74.199219 86.671875 74.421875 86.332031 C 74.640625 85.996094 74.546875 85.542969 74.207031 85.324219 C 73.871094 85.101562 73.417969 85.195312 73.199219 85.535156 C 72.804688 86.488281 72.457031 88.179688 72.144531 90.078125 C 71.96875 91.050781 71.800781 92.101562 71.664062 93.078125 C 71.492188 94.90625 71.457031 96.464844 71.492188 97.382812 C 71.472656 97.8125 71.464844 98.210938 71.523438 98.5 C 71.648438 98.9375 72.109375 99.191406 72.546875 99.066406 C 72.988281 98.9375 73.242188 98.480469 73.113281 98.039062 C 72.988281 97.601562 72.527344 97.347656 72.089844 97.472656 C 71.648438 97.601562 71.394531 98.058594 71.523438 98.5 C 72.855469 98.894531 73.027344 98.691406 73.074219 98.597656 C 73.117188 98.496094 73.152344 98.386719 73.167969 98.3125 C 73.210938 98.148438 73.253906 97.917969 73.289062 97.675781 C 73.355469 97.199219 73.429688 96.519531 73.472656 95.730469 C 73.535156 94.089844 73.507812 91.976562 73.507812 89.863281 C 73.503906 88.402344 73.515625 86.984375 73.632812 85.820312 C 73.867188 84.484375 74.296875 83.710938 74.921875 83.21875 C 75.515625 82.710938 76.167969 82.570312 77.058594 82.632812 C 77.960938 82.652344 78.761719 82.84375 79.414062 83.3125 C 80.09375 83.875 80.507812 84.785156 80.578125 85.949219 C 80.628906 86.9375 80.410156 87.925781 79.902344 88.8125 C 79.183594 89.917969 78.007812 90.613281 76.789062 91 C 76.394531 91.128906 76.175781 91.554688 76.304688 91.949219 C 76.433594 92.34375 76.855469 92.558594 77.25 92.429688 C 77.644531 92.304688 77.863281 91.878906 77.734375 91.484375 C 77.605469 91.089844 77.183594 90.875 76.789062 91 C 75.589844 91.4375 74.601562 91.476562 74.210938 91.226562 C 73.902344 91.035156 73.496094 91.132812 73.308594 91.441406 C 73.117188 91.75 73.214844 92.152344 73.523438 92.34375 C 73.832031 92.535156 74.238281 92.4375 74.425781 92.128906 C 74.617188 91.820312 74.519531 91.414062 74.210938 91.226562 C 74.027344 91.203125 73.984375 91.277344 73.953125 91.132812 C 73.972656 90.882812 73.785156 90.660156 73.535156 90.640625 C 73.285156 90.617188 73.0625 90.804688 73.042969 91.054688 C 73.019531 91.308594 73.207031 91.527344 73.457031 91.550781 C 73.707031 91.570312 73.929688 91.386719 73.953125 91.132812 C 73.894531 90.914062 73.972656 90.617188 74.300781 90.160156 C 74.394531 90.058594 74.386719 89.894531 74.285156 89.800781 C 74.179688 89.703125 74.015625 89.710938 73.921875 89.816406 C 73.449219 90.234375 73.152344 90.675781 73.042969 91.054688 C 72.960938 91.5 73.191406 92.039062 73.515625 92.339844 C 74.335938 92.828125 75.832031 92.855469 77.253906 92.429688 C 78.644531 91.972656 80.214844 91 81.171875 89.589844 C 81.804688 88.449219 82.109375 87.074219 82.0625 85.859375 C 81.945312 84.417969 81.289062 82.996094 80.308594 82.136719 C 79.335938 81.5 78.140625 81.226562 77.105469 81.21875 C 76.039062 81.1875 74.894531 81.496094 74.058594 82.191406 C 73.257812 82.898438 72.632812 84.09375 72.378906 85.660156 C 72.273438 86.933594 72.285156 88.410156 72.316406 89.867188 C 72.285156 91.972656 72.273438 94.066406 72.183594 95.640625 C 72.085938 96.359375 71.964844 96.953125 71.84375 97.375 C 71.785156 97.582031 71.734375 97.722656 71.691406 97.800781 C 71.664062 97.855469 71.65625 97.851562 71.664062 97.820312 C 71.671875 97.792969 71.808594 97.628906 71.984375 97.511719 C 73.117188 98.136719 73.125 97.867188 73.140625 97.394531 C 73.136719 96.484375 73.199219 95.027344 73.394531 93.273438 C 73.496094 92.328125 73.628906 91.304688 73.769531 90.332031 C 74.019531 88.4375 74.285156 86.84375 74.496094 86.183594 C 74.441406 86.242188 74.351562 86.28125 74.273438 86.300781 C 74.230469 86.269531 73.957031 86.195312 73.90625 86.140625 C 73.933594 86.042969 73.875 87.199219 73.878906 87.726562 C 73.851562 87.925781 73.996094 88.105469 74.195312 88.132812 C 74.394531 88.15625 74.574219 88.015625 74.601562 87.816406 "/>
<path style=" stroke:none;fill-rule:nonzero;fill:rgb(0%,0%,0%);fill-opacity:1;" d="M 84.015625 91.398438 C 84.054688 91.273438 84.085938 91.140625 84.09375 91.039062 C 84.09375 90.824219 83.917969 90.652344 83.703125 90.652344 C 83.488281 90.652344 83.316406 90.824219 83.316406 91.039062 C 83.316406 91.253906 83.488281 91.429688 83.703125 91.429688 C 83.917969 91.429688 84.09375 91.253906 84.09375 91.039062 C 84.101562 90.925781 84.054688 90.742188 83.980469 90.621094 C 83.828125 90.449219 83.566406 90.433594 83.390625 90.585938 C 83.21875 90.738281 83.203125 91 83.355469 91.171875 C 83.507812 91.34375 83.769531 91.359375 83.941406 91.207031 C 84.113281 91.058594 84.132812 90.792969 83.980469 90.621094 C 83.855469 90.5 83.609375 90.429688 83.496094 90.433594 C 83.253906 90.46875 83.089844 90.695312 83.128906 90.9375 C 83.164062 91.179688 83.390625 91.34375 83.632812 91.304688 C 83.875 91.269531 84.039062 91.042969 84 90.800781 C 83.964844 90.558594 83.738281 90.394531 83.496094 90.433594 C 83.34375 90.46875 83.230469 90.519531 83.144531 90.566406 C 82.820312 90.753906 82.386719 91.207031 82.019531 91.75 C 81.578125 92.585938 81.226562 93.65625 81.085938 94.5625 C 81.046875 95.195312 81.144531 95.804688 81.351562 96.25 C 81.574219 96.703125 82.007812 97.125 82.464844 97.347656 C 83.324219 97.65625 84.480469 97.652344 85.382812 97.242188 C 86.386719 96.640625 87.085938 95.46875 87.265625 94.433594 C 87.414062 93.898438 87.417969 93.210938 87.183594 92.644531 C 86.746094 92.03125 86.105469 91.566406 85.480469 91.269531 C 85.125 91.113281 84.710938 91.277344 84.554688 91.632812 C 84.398438 91.988281 84.5625 92.402344 84.917969 92.558594 C 85.273438 92.714844 85.6875 92.550781 85.84375 92.195312 C 86 91.839844 85.835938 91.425781 85.480469 91.269531 C 84.851562 90.996094 84.105469 90.816406 83.503906 90.78125 C 83.128906 90.757812 82.804688 91.042969 82.78125 91.421875 C 82.757812 91.796875 83.042969 92.121094 83.417969 92.144531 C 83.792969 92.167969 84.117188 91.882812 84.140625 91.507812 C 84.167969 91.132812 83.882812 90.808594 83.503906 90.78125 C 83.121094 90.832031 82.722656 90.941406 82.449219 91.113281 C 82.207031 91.203125 82.082031 91.472656 82.175781 91.714844 C 82.265625 91.957031 82.535156 92.082031 82.777344 91.992188 C 83.019531 91.902344 83.144531 91.632812 83.054688 91.386719 C 82.960938 91.144531 82.691406 91.023438 82.449219 91.113281 C 82.179688 91.304688 81.957031 91.636719 81.964844 91.949219 C 81.941406 92.089844 82.035156 92.21875 82.175781 92.242188 C 82.316406 92.265625 82.449219 92.167969 82.46875 92.03125 C 82.539062 91.933594 82.609375 91.976562 82.789062 91.988281 C 82.945312 92 83.136719 92.054688 83.417969 92.144531 C 83.882812 92.175781 84.398438 92.3125 84.910156 92.554688 C 85.441406 92.765625 85.84375 93.011719 86.089844 93.328125 C 86.234375 93.511719 86.269531 93.792969 86.210938 94.234375 C 86.070312 95.074219 85.597656 95.871094 84.878906 96.25 C 84.265625 96.511719 83.546875 96.464844 82.964844 96.191406 C 82.714844 96.085938 82.597656 95.972656 82.480469 95.707031 C 82.339844 95.4375 82.292969 95.148438 82.328125 94.6875 C 82.410156 93.925781 82.675781 93.019531 83.023438 92.300781 C 83.265625 91.828125 83.519531 91.476562 83.675781 91.335938 C 83.707031 91.304688 83.695312 91.296875 83.695312 91.292969 C 83.609375 91.296875 83.429688 91.238281 83.355469 91.171875 C 83.328125 91.105469 83.308594 91.015625 83.316406 91.039062 C 83.324219 91.078125 83.328125 91.121094 83.3125 91.214844 C 83.261719 91.410156 83.378906 91.609375 83.570312 91.660156 C 83.765625 91.710938 83.964844 91.59375 84.015625 91.398438 "/>
<path style=" stroke:none;fill-rule:nonzero;fill:rgb(0%,0%,0%);fill-opacity:1;" d="M 93.296875 92.464844 C 93.539062 91.949219 93.535156 91.398438 93.347656 91.035156 C 93.183594 90.8125 92.875 90.765625 92.65625 90.929688 C 92.4375 91.089844 92.386719 91.398438 92.550781 91.621094 C 92.710938 91.839844 93.019531 91.886719 93.242188 91.726562 C 93.460938 91.5625 93.507812 91.253906 93.347656 91.035156 C 93.101562 90.671875 92.625 90.433594 92.214844 90.34375 C 91.871094 90.308594 91.566406 90.558594 91.53125 90.902344 C 91.496094 91.246094 91.75 91.554688 92.089844 91.585938 C 92.433594 91.621094 92.742188 91.371094 92.773438 91.027344 C 92.808594 90.683594 92.558594 90.378906 92.214844 90.34375 C 91.839844 90.246094 91.191406 90.246094 90.671875 90.460938 C 90.34375 90.617188 90.207031 91.007812 90.363281 91.335938 C 90.519531 91.664062 90.910156 91.804688 91.238281 91.648438 C 91.566406 91.492188 91.707031 91.097656 91.550781 90.769531 C 91.394531 90.441406 91 90.304688 90.671875 90.460938 C 90.121094 90.824219 89.691406 91.398438 89.503906 91.972656 C 89.378906 93.53125 90.457031 95.160156 91.027344 96.269531 C 91.210938 96.601562 91.355469 96.875 91.4375 97.121094 C 91.523438 97.351562 91.554688 97.378906 91.535156 97.371094 C 91.625 97.277344 91.503906 97.246094 91.148438 97.15625 C 90.773438 97.09375 90.421875 97.34375 90.355469 97.71875 C 90.292969 98.089844 90.546875 98.445312 90.917969 98.507812 C 91.292969 98.574219 91.644531 98.320312 91.710938 97.949219 C 91.773438 97.574219 91.523438 97.21875 91.148438 97.15625 C 90.390625 97.078125 89.488281 96.617188 89.285156 96 C 89.183594 95.707031 88.867188 95.554688 88.574219 95.652344 C 88.285156 95.753906 88.128906 96.070312 88.230469 96.363281 C 88.332031 96.652344 88.648438 96.808594 88.9375 96.707031 C 89.230469 96.609375 89.382812 96.289062 89.285156 96 C 89.226562 95.851562 89.214844 95.769531 89.246094 95.613281 C 89.304688 95.316406 89.105469 95.027344 88.808594 94.972656 C 88.507812 94.914062 88.222656 95.109375 88.164062 95.410156 C 88.109375 95.707031 88.304688 95.996094 88.601562 96.050781 C 88.902344 96.109375 89.191406 95.914062 89.246094 95.613281 C 89.164062 95.507812 89.09375 95.40625 89.054688 95.269531 C 89.117188 95.144531 89.0625 94.988281 88.9375 94.925781 C 88.808594 94.863281 88.65625 94.917969 88.59375 95.042969 C 88.4375 95.140625 88.289062 95.285156 88.164062 95.410156 C 88.109375 95.71875 88.140625 96.085938 88.230469 96.363281 C 88.609375 97.4375 89.90625 98.273438 90.914062 98.507812 C 91.449219 98.570312 92.101562 98.457031 92.492188 98.109375 C 92.78125 97.605469 92.777344 97.113281 92.6875 96.753906 C 92.59375 96.398438 92.425781 96.007812 92.257812 95.640625 C 91.648438 94.441406 90.710938 93.09375 90.890625 92.246094 C 90.9375 91.992188 91.074219 91.777344 91.328125 91.597656 C 91.464844 91.507812 91.703125 91.507812 92.011719 91.574219 C 92.367188 91.566406 92.472656 91.542969 92.550781 91.621094 C 92.683594 91.695312 92.738281 91.796875 92.621094 92.199219 C 92.546875 92.382812 92.640625 92.59375 92.828125 92.667969 C 93.011719 92.742188 93.222656 92.652344 93.296875 92.464844 "/>
<path style=" stroke:none;fill-rule:nonzero;fill:rgb(0%,0%,0%);fill-opacity:1;" d="M 97.824219 83.035156 C 97.824219 83.214844 97.808594 83.441406 97.785156 83.753906 C 97.828125 84.058594 98.105469 84.269531 98.410156 84.226562 C 98.710938 84.1875 98.921875 83.910156 98.878906 83.605469 C 98.839844 83.304688 98.5625 83.09375 98.257812 83.132812 C 97.957031 83.175781 97.746094 83.453125 97.785156 83.753906 C 97.914062 85.152344 97.804688 87.757812 97.625 90.304688 C 97.605469 90.71875 97.925781 91.074219 98.34375 91.089844 C 98.761719 91.109375 99.113281 90.785156 99.128906 90.371094 C 99.148438 89.953125 98.828125 89.601562 98.410156 89.582031 C 97.996094 89.566406 97.640625 89.886719 97.625 90.304688 C 97.539062 93.140625 97.367188 95.859375 97.328125 96.714844 C 97.296875 97.0625 97.550781 97.367188 97.894531 97.402344 C 98.242188 97.433594 98.546875 97.179688 98.582031 96.832031 C 98.703125 95.96875 98.960938 93.226562 99.128906 90.371094 C 99.175781 87.796875 99.148438 85.105469 98.878906 83.605469 C 98.773438 83.277344 98.644531 82.988281 98.507812 82.785156 C 98.4375 82.597656 98.230469 82.5 98.042969 82.566406 C 97.851562 82.636719 97.753906 82.84375 97.824219 83.035156 "/>
<path style=" stroke:none;fill-rule:nonzero;fill:rgb(0%,0%,0%);fill-opacity:1;" d="M 94.921875 91.734375 C 94.972656 91.78125 94.972656 92.007812 94.980469 92.078125 C 95.15625 91.871094 95.128906 91.5625 94.921875 91.386719 C 94.714844 91.214844 94.402344 91.242188 94.230469 91.449219 C 94.054688 91.65625 94.082031 91.964844 94.289062 92.140625 C 94.496094 92.316406 94.808594 92.289062 94.980469 92.078125 C 94.9375 92.175781 94.925781 92.234375 94.980469 92.257812 C 95.300781 92.132812 95.453125 91.773438 95.328125 91.453125 C 95.203125 91.136719 94.84375 90.980469 94.527344 91.105469 C 94.207031 91.230469 94.050781 91.59375 94.179688 91.910156 C 94.304688 92.226562 94.664062 92.382812 94.980469 92.257812 C 95.179688 92.199219 95.929688 92.191406 96.902344 92.210938 C 97.277344 92.210938 97.582031 91.90625 97.582031 91.53125 C 97.582031 91.15625 97.277344 90.855469 96.902344 90.855469 C 96.527344 90.855469 96.226562 91.15625 96.226562 91.53125 C 96.226562 91.90625 96.527344 92.210938 96.902344 92.210938 C 97.875 92.207031 99.023438 92.230469 100.039062 92.234375 C 100.398438 92.238281 100.691406 91.953125 100.695312 91.59375 C 100.699219 91.238281 100.414062 90.945312 100.058594 90.941406 C 99.699219 90.933594 99.40625 91.21875 99.402344 91.578125 C 99.398438 91.933594 99.683594 92.226562 100.039062 92.234375 C 101.054688 92.117188 101.949219 91.984375 102.386719 91.785156 C 102.527344 91.761719 102.621094 91.628906 102.597656 91.492188 C 102.574219 91.351562 102.445312 91.257812 102.304688 91.277344 C 101.90625 91.214844 101.0625 91.082031 100.058594 90.941406 C 99.054688 90.914062 97.902344 90.871094 96.90625 90.855469 C 95.90625 90.875 95.015625 90.933594 94.554688 91.09375 C 94.445312 91.183594 94.332031 91.296875 94.265625 91.410156 C 94.179688 91.589844 94.167969 91.882812 94.25 92.011719 C 94.324219 92.195312 94.539062 92.285156 94.722656 92.210938 C 94.910156 92.132812 95 91.921875 94.921875 91.734375 "/>
<path style=" stroke:none;fill-rule:nonzero;fill:rgb(0%,0%,0%);fill-opacity:1;" d="M 108.246094 90.277344 C 108.128906 90.070312 107.890625 89.882812 107.660156 89.773438 C 107.4375 89.695312 107.191406 89.8125 107.113281 90.039062 C 107.035156 90.261719 107.152344 90.507812 107.375 90.585938 C 107.601562 90.664062 107.84375 90.546875 107.925781 90.324219 C 108.003906 90.097656 107.886719 89.855469 107.660156 89.773438 C 107.4375 89.675781 107.136719 89.601562 106.851562 89.5625 C 106.578125 89.546875 106.347656 89.757812 106.332031 90.03125 C 106.316406 90.304688 106.527344 90.535156 106.800781 90.550781 C 107.074219 90.566406 107.304688 90.355469 107.320312 90.082031 C 107.335938 89.808594 107.125 89.578125 106.851562 89.5625 C 106.285156 89.492188 105.570312 89.539062 105.007812 89.71875 C 104.6875 89.847656 104.535156 90.214844 104.667969 90.535156 C 104.796875 90.855469 105.164062 91.007812 105.484375 90.875 C 105.804688 90.742188 105.957031 90.378906 105.824219 90.058594 C 105.695312 89.738281 105.328125 89.585938 105.007812 89.71875 C 104.136719 90.21875 103.707031 91.222656 103.699219 92.066406 C 103.917969 93.320312 104.789062 94.363281 105.179688 95.371094 C 105.488281 96.203125 105.554688 96.851562 105.203125 97.234375 C 105.132812 97.285156 105.023438 97.320312 104.785156 97.378906 C 104.464844 97.507812 104.125 97.546875 103.660156 97.527344 C 103.316406 97.523438 103.007812 97.480469 102.65625 97.382812 C 102.222656 97.257812 101.765625 97.507812 101.636719 97.941406 C 101.507812 98.378906 101.757812 98.835938 102.195312 98.964844 C 102.632812 99.09375 103.089844 98.84375 103.21875 98.40625 C 103.34375 97.96875 103.09375 97.511719 102.65625 97.382812 C 102.171875 97.308594 101.757812 97.183594 101.367188 96.953125 C 101.09375 96.738281 100.695312 96.785156 100.480469 97.058594 C 100.261719 97.335938 100.3125 97.730469 100.585938 97.949219 C 100.859375 98.164062 101.257812 98.117188 101.472656 97.839844 C 101.691406 97.566406 101.640625 97.167969 101.367188 96.953125 C 101.265625 96.890625 101.203125 96.839844 101.121094 96.765625 C 100.886719 96.523438 100.5 96.515625 100.257812 96.75 C 100.011719 96.984375 100.007812 97.375 100.242188 97.617188 C 100.476562 97.859375 100.863281 97.867188 101.105469 97.632812 C 101.351562 97.398438 101.355469 97.007812 101.121094 96.765625 C 100.945312 96.757812 100.792969 96.769531 100.628906 96.75 C 100.542969 96.636719 100.382812 96.617188 100.269531 96.703125 C 100.15625 96.785156 100.136719 96.949219 100.222656 97.058594 C 100.214844 97.246094 100.234375 97.445312 100.257812 97.632812 C 100.34375 97.730469 100.480469 97.863281 100.605469 97.964844 C 101.027344 98.371094 101.625 98.726562 102.191406 98.964844 C 102.636719 99.101562 103.148438 99.191406 103.601562 99.21875 C 104.191406 99.238281 104.859375 99.15625 105.378906 98.96875 C 105.757812 98.796875 106.175781 98.492188 106.429688 98.171875 C 107.023438 97.175781 106.917969 95.871094 106.507812 94.84375 C 105.992188 93.617188 105.167969 92.679688 105.082031 91.9375 C 105.035156 91.445312 105.132812 91.054688 105.550781 90.84375 C 105.851562 90.671875 106.332031 90.566406 106.800781 90.550781 C 107.035156 90.542969 107.214844 90.550781 107.375 90.585938 C 107.535156 90.617188 107.589844 90.621094 107.625 90.65625 C 107.730469 90.828125 107.957031 90.882812 108.125 90.777344 C 108.296875 90.671875 108.351562 90.449219 108.246094 90.277344 "/>
<path style=" stroke:none;fill-rule:nonzero;fill:rgb(0%,0%,0%);fill-opacity:1;" d="M 65.609375 102.296875 C 65.273438 102.238281 65.082031 102.191406 65.011719 102.140625 C 64.78125 102.074219 64.535156 102.207031 64.46875 102.441406 C 64.398438 102.675781 64.535156 102.917969 64.765625 102.984375 C 65 103.054688 65.242188 102.917969 65.3125 102.6875 C 65.378906 102.453125 65.246094 102.210938 65.011719 102.140625 C 64.957031 102.109375 65.039062 102.914062 65.003906 102.976562 C 65.273438 102.890625 65.429688 102.601562 65.34375 102.332031 C 65.261719 102.058594 64.972656 101.90625 64.699219 101.988281 C 64.429688 102.074219 64.277344 102.359375 64.359375 102.632812 C 64.441406 102.90625 64.730469 103.058594 65.003906 102.976562 C 65.113281 102.988281 65.640625 102.988281 66.519531 103 C 66.886719 102.980469 67.171875 102.667969 67.15625 102.300781 C 67.140625 101.933594 66.828125 101.648438 66.457031 101.664062 C 66.089844 101.683594 65.804688 101.996094 65.824219 102.363281 C 65.839844 102.730469 66.152344 103.015625 66.519531 103 C 68.289062 103.011719 71.320312 103.042969 75.015625 103.117188 C 78.679688 103.109375 83.003906 103.132812 87.371094 103.171875 C 90.511719 103.167969 93.65625 103.175781 96.496094 103.179688 C 100.402344 103.148438 103.691406 103.117188 105.96875 103.089844 C 107.300781 103.046875 108.320312 103.003906 108.882812 102.960938 C 109.164062 102.933594 109.332031 102.910156 109.363281 102.882812 C 109.367188 102.882812 109.367188 102.878906 109.367188 102.878906 C 109.367188 102.875 109.371094 102.875 109.371094 101.503906 C 108.992188 101.503906 108.6875 101.8125 108.6875 102.1875 C 108.6875 102.566406 108.992188 102.871094 109.371094 102.871094 C 109.746094 102.871094 110.054688 102.566406 110.054688 102.1875 C 110.054688 101.8125 109.746094 101.503906 109.371094 101.503906 C 109.371094 101.507812 109.367188 101.511719 109.363281 101.515625 C 108.992188 101.515625 108.691406 101.816406 108.691406 102.1875 C 108.691406 102.558594 108.992188 102.859375 109.363281 102.859375 C 109.734375 102.859375 110.035156 102.558594 110.035156 102.1875 C 110.035156 101.816406 109.734375 101.515625 109.363281 101.515625 C 109.355469 101.523438 109.335938 101.53125 109.308594 101.535156 C 108.949219 101.535156 108.660156 101.828125 108.660156 102.1875 C 108.660156 102.546875 108.949219 102.839844 109.308594 102.839844 C 109.671875 102.839844 109.960938 102.546875 109.960938 102.1875 C 109.960938 101.828125 109.671875 101.535156 109.308594 101.535156 C 109.257812 101.667969 109.167969 101.800781 109.042969 101.933594 C 108.902344 101.933594 108.789062 102.046875 108.789062 102.1875 C 108.789062 102.328125 108.902344 102.445312 109.042969 102.445312 C 109.167969 102.578125 109.257812 102.707031 109.308594 102.839844 C 109.335938 102.847656 109.355469 102.855469 109.363281 102.859375 C 109.367188 102.863281 109.371094 102.867188 109.371094 102.871094 C 109.371094 101.503906 109.367188 101.5 109.367188 101.5 C 109.367188 101.496094 109.367188 101.496094 109.363281 101.496094 C 109.332031 101.46875 109.164062 101.441406 108.882812 101.414062 C 108.320312 101.371094 107.300781 101.332031 105.96875 101.289062 C 103.691406 101.257812 100.402344 101.226562 96.5 101.199219 C 93.667969 101.171875 90.519531 101.140625 87.378906 101.125 C 83.007812 101.121094 78.675781 101.132812 75 101.175781 C 71.296875 101.304688 68.242188 101.476562 66.457031 101.664062 C 65.5625 101.757812 64.949219 101.867188 64.699219 101.988281 C 64.484375 102.105469 64.589844 102.964844 64.789062 102.992188 C 64.933594 103.003906 65.191406 103.011719 65.539062 103.019531 C 65.738281 103.042969 65.917969 102.894531 65.9375 102.695312 C 65.957031 102.496094 65.8125 102.316406 65.609375 102.296875 Z M 65.609375 102.296875 "/>
<path style=" stroke:none;fill-rule:nonzero;fill:rgb(0%,0%,0%);fill-opacity:1;" d="M 134.152344 102.816406 C 133.460938 102.796875 132.714844 102.792969 132.53125 102.835938 C 132.339844 102.921875 132.257812 103.148438 132.34375 103.339844 C 132.433594 103.53125 132.660156 103.617188 132.851562 103.527344 C 133.042969 103.4375 133.125 103.210938 133.039062 103.019531 C 132.949219 102.828125 132.722656 102.746094 132.53125 102.835938 C 132.695312 103.644531 132.742188 103.738281 132.839844 103.828125 C 133.1875 103.855469 133.496094 103.589844 133.519531 103.242188 C 133.546875 102.890625 133.28125 102.585938 132.929688 102.558594 C 132.582031 102.535156 132.277344 102.796875 132.25 103.148438 C 132.222656 103.5 132.488281 103.804688 132.839844 103.828125 C 133.132812 103.863281 133.679688 103.910156 134.460938 103.953125 C 134.84375 103.96875 135.164062 103.667969 135.175781 103.285156 C 135.191406 102.90625 134.890625 102.582031 134.507812 102.570312 C 134.125 102.558594 133.804688 102.855469 133.792969 103.238281 C 133.777344 103.621094 134.078125 103.941406 134.460938 103.953125 C 136.101562 104.042969 138.746094 104.148438 141.707031 104.304688 C 147.980469 104.542969 155.191406 104.726562 161.914062 105.027344 C 165.570312 105.171875 169.078125 105.429688 172.023438 105.699219 C 176.472656 106.039062 179.226562 106.375 181.050781 106.457031 C 181.730469 106.453125 182.296875 106.410156 182.804688 106.378906 C 183.4375 106.367188 184.097656 106.359375 184.503906 106.25 C 184.621094 106.21875 184.75 106.164062 184.839844 106.101562 C 185.023438 106 185.089844 105.765625 184.984375 105.582031 C 184.882812 105.394531 184.648438 105.328125 184.464844 105.433594 C 184.277344 105.535156 184.214844 105.769531 184.316406 105.957031 C 184.417969 106.140625 184.652344 106.207031 184.839844 106.101562 C 184.929688 106.027344 185.054688 105.84375 185.070312 105.695312 C 185.085938 105.507812 184.949219 105.34375 184.761719 105.324219 C 184.574219 105.308594 184.40625 105.449219 184.390625 105.636719 C 184.375 105.824219 184.515625 105.988281 184.703125 106.003906 C 184.890625 106.023438 185.054688 105.882812 185.070312 105.695312 C 185.058594 105.5625 184.980469 105.402344 184.898438 105.316406 C 184.796875 105.1875 184.609375 105.164062 184.480469 105.269531 C 184.351562 105.371094 184.328125 105.558594 184.433594 105.6875 C 184.535156 105.816406 184.722656 105.839844 184.851562 105.734375 C 184.980469 105.632812 185 105.445312 184.898438 105.316406 C 184.832031 105.246094 184.71875 105.15625 184.59375 105.070312 C 184.484375 104.980469 184.324219 104.996094 184.234375 105.109375 C 184.144531 105.21875 184.160156 105.378906 184.269531 105.46875 C 184.359375 105.5625 184.402344 105.621094 184.421875 105.675781 C 184.445312 105.722656 184.414062 105.671875 184.390625 105.640625 C 184.402344 105.570312 184.46875 105.453125 184.464844 105.433594 C 184.453125 105.425781 184.445312 105.414062 184.378906 105.410156 C 184.097656 105.394531 183.515625 105.292969 182.855469 105.1875 C 182.304688 105.136719 181.769531 105.097656 181.148438 105.023438 C 179.410156 104.820312 176.660156 104.363281 172.1875 103.898438 C 169.226562 103.621094 165.675781 103.359375 161.988281 103.207031 C 155.246094 102.960938 148.027344 102.828125 141.765625 102.644531 C 138.792969 102.582031 136.136719 102.566406 134.5 102.570312 C 133.734375 102.5625 133.199219 102.554688 132.914062 102.558594 C 132.839844 102.636719 132.757812 102.714844 132.691406 102.800781 C 132.726562 103.542969 133.453125 103.535156 134.136719 103.542969 C 134.339844 103.546875 134.503906 103.386719 134.507812 103.1875 C 134.511719 102.988281 134.351562 102.820312 134.152344 102.816406 "/>
</g>
</svg>
