<?xml version="1.0" ?><svg xmlns="http://www.w3.org/2000/svg"><defs><clipPath clipPathUnits="userSpaceOnUse" id="a"><path d="M0 0h612v803.25H0V0z"/></clipPath></defs><text fill-opacity="0" font-size="45" font-weight="400" transform="matrix(1.35398 0 0 1.35398 40.21 84.54)"><tspan x="0 31.221001 53.847 78.227997 101.169 110.7" y="0">CJPais</tspan></text><g><g clip-path="url(#a)" transform="matrix(1.25 0 0 -1.25 0 1004.063)"><path d="M37.678 773.881c.036.716 1.43 2.93 2.444 5.344a.834.834 0 01-1.568.568.834.834 0 111.568-.568c.559 1.624.952 3.338.968 4.56a1.016 1.016 0 01-2.03-.09 1.016 1.016 0 012.03.09c-.006.51-.134 1.103-.365 1.52a1.087 1.087 0 01-1.79-1.234 1.087 1.087 0 111.79 1.234c-.31.432-1.122.823-1.712.8-.657.045-1.857-.42-2.846-1.329-1.262-1.461-2.598-3.791-3.728-6.83-1.424-4.22-2.642-9.763-3.004-14.842-.253-2.522-.265-4.898.06-6.762.68-2.623 2.397-4.643 4.388-5.312a1.796 1.796 0 11.973 3.458 1.796 1.796 0 01-.973-3.458c1.704-.23 3.589.188 5.2.964a1.627 1.627 0 01-1.334 2.969 1.627 1.627 0 011.334-2.969c2.062 1.115 4.266 2.983 6.061 5.184a1.169 1.169 0 11-1.733 1.57 1.169 1.169 0 011.733-1.57c1.195 1.741 2.246 3.746 2.94 5.8a.317.317 0 11-.57.28 21.252 21.252 0 00-4.102-4.509c-1.855-1.828-3.807-3.125-5.668-3.789-1.32-.542-2.237-.682-3.044-.436-.86.141-1.364.71-1.828 2.574-.3 1.402-.327 3.324-.127 5.758.224 4.893 1.255 10.097 2.504 14.14.944 2.848 1.967 4.816 2.891 6.013.522.63.768.775 1.021.79.178.074-.207.263-.226.272.06-.007.089-.056.126-.384.112-.937-.116-2.405-.52-3.935-.715-2.351-1.908-4.742-1.764-5.922a.45.45 0 01.9.052M63.576 778.482c.152.718-.005 1.512-.193 2.043a.558.558 0 01-1.025-.442.558.558 0 011.025.442c-.072.366-.19.728-.287.964a.795.795 0 01-1.18-1.066h.001a.795.795 0 011.18 1.066c-.04.071-.149.188-.246.27a.854.854 0 11-.806-1.505.854.854 0 11.806 1.505c-.418.13-1.033-.093-1.15-.192-.25-.529-.265-.873-.251-1.074.48-1.232 1.67-3.829 2.405-7.339.402-2.565.594-5.652.595-8.585.063-1.793.065-3.423-.024-4.851-.103-1.333-.25-2.403-.457-3.288-.2-.854-.379-1.31-.625-1.622a1.632 1.632 0 112.69-1.848 1.632 1.632 0 11-2.69 1.848c-.13-.19-.046-.113-.1-.099a1.658 1.658 0 011.294-3.054 1.658 1.658 0 01-1.294 3.054c-.036-.126.115-.168-.303-.005a1.52 1.52 0 01-1.287-2.756 1.52 1.52 0 011.287 2.756c-1.565.257-3.988 2.36-7.374 6.53a.317.317 0 01-.521-.362c2.769-4.684 4.887-7.623 6.6-8.92.824-.416 2.031-.56 2.905-.292.534.263 1.146.814 1.483 1.3.451.705.825 1.721 1.052 2.777.22 1.047.375 2.346.466 3.785.078 1.555.057 3.327-.024 5.138-.109 2.991-.425 6.285-.972 9.066-1.054 3.787-2.577 6.573-3.198 7.524.02-.151-.007-.343-.138-.68-.196-.223-.787-.428-1.175-.316-.065.065-.134.148-.128.169.088.032.252-.096.44-.338.222-.418.399-.928.331-1.445a.45.45 0 11.888-.158"/><path d="M45.682 777.759c-.038.3.01.305.163.379a.663.663 0 01-1.14.677.663.663 0 011.14-.677c.113.082.317.141.857.319a.876.876 0 01-.758 1.579.876.876 0 01.758-1.579c.723.289 1.7.585 3.144.946a1.168 1.168 0 11-.715 2.224 1.168 1.168 0 01.715-2.224c1.493.42 3.378.875 5.59 1.354 3.874.82 8.53 1.66 12.717 2.165 1.512.203 2.966.365 4.355.479a67.1 67.1 0 003.9.176 1.45 1.45 0 11-.04 2.899 1.45 1.45 0 11.04-2.899c1.828.18 3.41.284 4.758.338a1.012 1.012 0 01.138 2.018 1.012 1.012 0 11-.138-2.018c.447-.021.857-.042 1.238-.072a.977.977 0 11.209 1.942.977.977 0 01-.209-1.942c.414.186.788.355 1.148.53a.317.317 0 01.081.63c-.297.26-.647.53-1.041.785-.386.053-.826.1-1.282.145-1.387.241-3.068.43-4.948.543a70.9 70.9 0 01-4.054-.18 85.062 85.062 0 01-4.546-.363c-4.28-.684-9.02-1.706-12.904-2.697-2.225-.553-4.17-1.096-5.71-1.603-1.469-.575-2.548-1.125-3.248-1.62-.544-.34-.996-.772-1.19-1.19-.164-.459-.083-.996.125-1.372a.45.45 0 11.848.308M109.452 773.733c-.314.566-.526 1.58-.727 2.385a.632.632 0 01-1.2-.395.632.632 0 011.2.395c-.09.419-.208.895-.499 1.244a.687.687 0 01-.839-1.088.687.687 0 01.839 1.088c-.863.09-1.205-.156-1.36-.303a.903.903 0 011.64-.753h.001a.903.903 0 01-1.64.753c-.126-.097-.267-.3-.381-.47-.168-.556-.31-1.479-.407-2.803-.105-2.034-.156-4.757-.174-7.508a152.79 152.79 0 01.001-5.912c.24-2.934.644-5.28 1.034-6.604a4.64 4.64 0 01.492-.897c.179-.228.527-.568.975-.76.282-.054.855.044 1.003.139.202.162.42.448.478.603.067.27.096.601.079.901-.012.828-.124 2.07-.385 3.482-.405 1.729-1.069 3.765-1.841 6.097-.928 3.074-2.055 6.68-2.988 10.248-.72 3.008-1.311 5.968-1.534 8.35-.115 2.061.102 3.304.747 4.1.46.642 1.067 1.02 2.003 1.275.926.278 1.89.292 3.09.037 1.248-.229 2.432-.703 3.657-1.51 1.2-.896 2.345-2.095 3.335-3.473a15.13 15.13 0 002.531-6.661c.262-2.113-.019-3.72-.787-5.008a1.358 1.358 0 112.342-1.376 1.358 1.358 0 11-2.342 1.376c-.894-1.452-2.426-2.257-3.977-2.53a1.192 1.192 0 11.36-2.357 1.192 1.192 0 11-.36 2.357c-1.228-.292-2.204-.077-3.015.576a.755.755 0 01-1.078-1.057.755.755 0 011.078 1.057c-.884.676-1.358 1.68-1.2 3.053a.317.317 0 11-.62.132c-.464-1.538-.116-3.124.74-4.239.935-1.126 2.621-1.893 4.393-1.888 2.053.276 4.484 1.468 5.966 3.433 1.067 1.828 1.537 4.283 1.287 6.794-.302 2.56-1.31 5.527-2.944 8.01-1.177 1.567-2.639 3.042-4.129 4.121-1.562.958-3.257 1.584-4.778 1.83-1.49.217-3.07.096-4.315-.337-1.236-.456-2.427-1.347-3.134-2.418-.663-1.434-.712-3.289-.339-5.472.36-2.445 1.092-5.46 1.94-8.459.956-3.591 2.103-7.213 3.044-10.28.688-2.358 1.253-4.368 1.549-6.005.098-1.315.056-2.409-.076-3.12-.055-.191-.098-.198-.143-.177.022.081.183.3.324.428.086.061.592.142.909.078.198-.097.385-.234.38-.132-.003.09-.01.215-.046.469-.271 1.093-.58 3.199-.747 5.971-.078 1.748-.101 3.76-.108 5.767a267.998 267.998 0 00-.173 7.418c.004 1.246.036 1.982.084 2.382-.046.125-.111.16-.176.182-.06.055-.322-.106-.545-.127-.651.325-.568.057-.433-.385.317-.773.682-1.857 1.189-2.526a.45.45 0 11.75.5M130.481 769.288c.19.362.245.829.168 1.178a.548.548 0 11-1.034-.362.548.548 0 111.034.362c-.102.352-.384.726-.684.962a.644.644 0 01-.694-1.086.644.644 0 11.694 1.086c-.634.437-1.686.644-2.724.486a.838.838 0 11.37-1.634h.001a.838.838 0 11-.37 1.634c-1.013-.197-2.22-.79-3.288-1.74-.806-.804-1.588-1.848-2.263-3.009-.936-1.713-1.77-3.779-2.314-5.648-.583-2.23-.768-4.376-.434-5.778.206-.614.655-1.251 1.138-1.58.499-.278 1.28-.403 1.885-.304 1.456.382 3.341 1.701 5.039 3.688a35.566 35.566 0 012.876 4.19c1.42 2.673 2.193 5.202 2.475 6.781.172.819.232 1.477.195 1.828-.087.275-.213.458-.234.49-.237.177-.598.263-.609.271-.441-.091-.775-.375-.866-.497-.106-.111-.25-.386-.365-.67-.298-1.145-.625-3.152-.8-5.17-.095-1.161-.139-2.4-.069-3.502.171-1.125.5-2.13.906-2.892a1.303 1.303 0 012.27 1.28v.001a1.303 1.303 0 11-2.27-1.28c.462-.754 1.164-1.465 1.86-1.861a1.246 1.246 0 011.246 2.159 1.246 1.246 0 01-1.246-2.159c.988-.365 2.247-.353 3.278.091a.782.782 0 11-.436 1.502.782.782 0 01.436-1.502c.952.446 1.967 1.268 2.89 2.434a.317.317 0 11-.455.443c-1.072-.883-2.014-1.296-2.87-1.375-.778-.081-1.18.118-1.598.565-.361.214-.572.467-.84.99-.315.517-.526 1.087-.673 1.918-.098.868-.103 1.931-.058 3.048a45.24 45.24 0 00.376 4.84c.01.155-.001.22-.034.215.002.042-.283-.191-.682-.283.01.008-.332.094-.551.254-.004.015-.114.182-.148.271-.006.08-.03-.362-.166-1.096-.366-1.438-1.164-3.698-2.599-6.147a32.73 32.73 0 00-2.752-3.85c-1.58-1.726-3.008-2.624-3.955-2.74-.225-.046-.16-.053-.226.025-.082.027-.047-.002-.114.268-.253.863-.11 2.491.424 4.536a26.286 26.286 0 001.933 5.243c.556 1.071 1.141 1.94 1.773 2.639.797.83 1.54 1.27 2.288 1.48.75.247 1.284.234 1.67.053.19-.077.266-.11.33-.23.09-.126.119-.217.043-.448a.45.45 0 01.823-.368M143.05 769.58c-.037-.312-.033-.636-.033-1.04a.45.45 0 01.902.001v.001a.45.45 0 11-.902-.001 13.05 13.05 0 01-.363-.94.798.798 0 011.594-.065.798.798 0 01-1.594.065l-.453-2.295a1.042 1.042 0 012.071-.23v-.001a1.042 1.042 0 01-2.071.23c-.177-1.037-.391-2.256-.6-3.499a97.538 97.538 0 01-.462-3.725c-.064-1.183-.08-2.305 0-3.177.043-.442.119-.881.225-1.218.12-.36.398-.819.73-1.069.168-.094.54-.202.767-.196a.888.888 0 110 1.776.888.888 0 010-1.776c.208.027.516.133.696.252a.834.834 0 11-.838 1.442.834.834 0 01.838-1.442c.251.175.584.522.874.927a.725.725 0 01-1.118.925.725.725 0 011.118-.925c.097.328.215.719.34 1.149a.317.317 0 01-.528.353 4.5 4.5 0 00-.927-.574c-.287-.293-.44-.385-.55-.388-.07-.025.054.03.095.057.061.006.285-.051.354-.067.038-.04.12-.127.102.055-.033.204-.039.442-.032.813.009.753.106 1.73.255 2.864a91.53 91.53 0 00.39 3.638c.119 1.245.247 2.48.34 3.558a26.39 26.39 0 01-.022 2.46c-.099.423-.213.76-.329 1.024 0 .409-.006.678.027.925a.45.45 0 11-.895.113M143.964 777.158c-.753.074-1.456-.008-1.975-.203a.736.736 0 11.766-1.257.736.736 0 11-.766 1.257 3.05 3.05 0 01-.605-.307.89.89 0 011.33-1.185.89.89 0 01-1.33 1.185c-.298-.284-.565-.762-.682-1.166a1.02 1.02 0 112.015-.323v-.001a1.02 1.02 0 11-2.015.323c-.056-.604.083-1.366.355-2.048a.94.94 0 111.767.642.94.94 0 11-1.767-.642c.081-.227.187-.481.3-.72a.945.945 0 111.705.814.945.945 0 01-1.705-.814c.41-.374.884-.79 1.4-1.197a.317.317 0 11.532.347 7.631 7.631 0 00-.227 1.663c-.098.201-.171.37-.238.55-.17.536-.191.823-.108 1.082-.025.17-.067.184-.003.306 0 .082-.003.141.071.253.201.243.562.432 1.201.54a.45.45 0 11-.022.901M159.467 768.1c-.66.89-2.693 2.584-4.62 3.393a.958.958 0 11-.585-1.824.958.958 0 01.585 1.825 8.186 8.186 0 01-1.604.594 1.143 1.143 0 01-.26-2.27 1.143 1.143 0 11.26 2.27c-.547.12-1.345.087-1.956-.185a1.327 1.327 0 111.455-2.22v-.001a1.327 1.327 0 11-1.455 2.22c-.474-.4-.808-1.02-.905-1.452-.073-.4-.081-.925-.04-1.419.218-1.64.898-3.984 1.504-6.221.983-3.528 1.646-6.56 1.43-7.745-.007-.184.052-.05.07 0 .086.064.414.258.456.284-.064-.087-.57 0-1.398.291-.4.164-.821.365-1.283.607a1.278 1.278 0 01-1.236-2.237 1.278 1.278 0 111.236 2.237c-.464.241-.914.494-1.376.781a1.24 1.24 0 01-1.36-2.073h.001a1.24 1.24 0 011.36 2.073c-.24.148-.46.294-.692.45a1.228 1.228 0 01-1.394-2.023v-.001a1.228 1.228 0 111.394 2.023c-.858.222-1.678.456-2.437.703a.317.317 0 01-.41-.484c.396-.735.91-1.5 1.453-2.242.235-.166.488-.342.74-.507.48-.33.998-.654 1.484-.937.488-.283.998-.556 1.466-.777.94-.475 1.985-.827 2.822-.87.678.134 1.343.547 1.647.903.28.418.48 1.01.54 1.43.182 1.884-.595 5.333-1.636 8.93-.668 2.249-1.365 4.441-1.583 5.772-.053.326-.071.477-.057.603-.01.093-.159-.155-.233-.24-.176.004-.204.039.133.057.353.026.76-.03 1.251-.14 1.794-.385 3.796-1.654 4.597-2.218a.451.451 0 01.636.639M11.198 741.256c-.175.009-.895.03-1.36.069a.565.565 0 010-1.13.565.565 0 010 1.13c-.169.087-.298.184-.447.262a.855.855 0 11.27-1.69.855.855 0 11-.27 1.69c.121.035.112.06.106.083a.928.928 0 010-1.856.928.928 0 010 1.856c.73-.323.955-1.09-.004-1.92a1 1 0 110 2.001 1 1 0 010-2.001c.006-.048.166-.088.29-.116.662.006 2.707.15 5.572.347 1.403.138 2.966.279 4.75.395 1.806.094 3.854.156 6.116.219 3.45.1 7.43.166 13.106.292 1.37.036 2.803.071 4.276.107 2.366.047 4.934.11 7.831.175 3.335.07 6.973.156 10.784.242 1.667.06 3.332.12 4.985.188 2.086.045 4.248.083 6.421.121 9.742.154 20.144.23 30.485.24l6.873-.01c3.842-.006 7.571-.028 11.3-.076 2.356-.043 4.696-.095 6.954-.155 3.641-.092 6.99-.208 10.023-.341 2.122-.07 4.215-.146 6.251-.215 3.222-.114 6.271-.228 9.305-.35 1.82-.081 3.69-.17 5.623-.276 1.414-.061 2.767-.113 4.094-.165 4.571-.163 8.868-.292 12.795-.328 3.6-.025 6.683-.008 9.217.027 3.262-.002 5.63.005 7.323.053 1.271.025 2.207.078 2.856.158a1.39 1.39 0 01-.273 2.766 1.39 1.39 0 01.273-2.766c.452.054.905.147 1.246.282a1.371 1.371 0 11-1.033 2.54 1.371 1.371 0 011.033-2.54c.341.155.894.69 1.072 1.115a1.337 1.337 0 01-2.535.852 1.337 1.337 0 012.535-.852c-.212.964-.85 1.38-1.307 1.802a.317.317 0 11-.614-.163c-.137-.78-.217-1.193-.616-.793.105.21.465.56.482.599-.083-.037-.187-.046-.546-.077-.543-.038-1.358-.053-2.597-.044-1.664.015-4.005.072-7.288.138-2.545.017-5.6.051-9.192.128-3.9.032-8.155.157-12.713.316-1.323.049-2.67.098-4.06.156-1.93.096-3.818.177-5.652.248-3.047.098-6.105.187-9.327.276-2.03.067-4.124.142-6.237.21-3.034.12-6.412.223-10.063.301-2.26.058-4.613.108-6.984.15-3.75.036-7.497.048-11.345.042l-6.873-.01a2101.067 2101.067 0 01-36.992-.282c-1.67-.05-3.327-.092-4.985-.134-3.803-.1-7.438-.2-10.774-.282-2.907-.089-5.473-.177-7.828-.248l-4.276-.097c-5.668-.145-9.658-.23-13.13-.35a238.71 238.71 0 01-6.22-.305c-1.844-.173-3.454-.37-4.836-.558-2.835-.342-4.895-.637-5.643-.806-.038-.056.074-.096.068-.145-.964-.829-.736-1.614.004-1.937a.282.282 0 00.029.073c.092.106.186.202.344.308.448.037 1.205.093 1.466.17a.45.45 0 11-.138.89z"/></g></g></svg>