<svg xmlns="http://www.w3.org/2000/svg" width="816" height="1056" viewBox="0 0 612 792"><path d="M89.5 95.7c0-.6 1.2-2.4 2-4.3.1-.4 0-.8-.4-.9a.7.7 0 10.4.9c.5-1.3.8-2.7.8-3.7 0-.5-.4-.8-.9-.8a.8.8 0 10.9.8c0-.4-.1-.9-.3-1.2a.9.9 0 10-1.4 1 .9.9 0 001.4-1c-.3-.4-1-.7-1.4-.7-.5 0-1.5.4-2.3 1.1-1 1.2-2 3-3 5.5a50.9 50.9 0 00-2.4 17.4c.6 2.2 2 3.8 3.6 4.3a1.4 1.4 0 10.8-2.8 1.4 1.4 0 00-.8 2.8c1.4.2 2.9-.1 4.2-.8a1.3 1.3 0 10-1.1-2.3 1.3 1.3 0 001 2.3c1.7-.9 3.5-2.4 5-4.1a1 1 0 10-1.4-1.3 1 1 0 001.4 1.3c1-1.4 1.8-3 2.3-4.7.1-.1 0-.3 0-.4-.2 0-.4 0-.4.2a17 17 0 01-3.3 3.6 13 13 0 01-4.6 3c-1 .5-1.8.6-2.5.4-.7-.1-1-.6-1.4-2a48 48 0 012-16c.6-2.4 1.5-4 2.2-5 .4-.5.6-.6.8-.6.2 0-.1-.2-.1-.2v.3c.1.7 0 2-.4 3.2-.5 1.9-1.5 3.8-1.4 4.7 0 .2.2.4.4.4s.4-.2.3-.4M110.4 92c.2-.6 0-1.2-.1-1.7a.5.5 0 10-.8.4.5.5 0 00.8-.4c0-.3-.2-.6-.3-.7a.6.6 0 10-1 .8.6.6 0 001-.8c0-.1 0-.2-.2-.3a.7.7 0 10-.7 1.2.7.7 0 00.7-1.2l-.9.2c-.2.4-.2.7-.2.9.4 1 1.4 3 2 5.9a46.8 46.8 0 01-.5 14.8c-.4.6-.2 1.4.4 1.8a1.3 1.3 0 001.5-2.2c-.6-.4-1.4-.2-1.9.4 0 .1 0 0 0 0a1.3 1.3 0 101 2.5 1.3 1.3 0 00-1-2.4h-.3c-.6-.3-1.3 0-1.6.6-.3.6 0 1.3.6 1.6a1.2 1.2 0 001-2.2c-1.2-.2-3.2-2-6-5.3a.3.3 0 00-.3.3c2.2 3.8 3.9 6.1 5.3 7.2.6.3 1.6.4 2.3.2.4-.2 1-.6 1.2-1 .4-.6.7-1.4.9-2.3.1-.8.3-1.9.3-3a46.1 46.1 0 00-.8-11.5c-.8-3-2-5.3-2.5-6l-.2.5c-.1.2-.6.3-.9.3l-.1-.2s.2 0 .3.3c.2.3.4.7.3 1.2 0 .2.1.3.3.4.2 0 .4-.1.4-.3"/><path d="M96 92.6l.1-.3c.2-.3.1-.6-.2-.8a.5.5 0 10.2.8l.7-.3c.4-.2.5-.6.3-1a.7.7 0 10-.3 1l2.6-.8c.5-.1.7-.7.6-1.1a1 1 0 00-1.2-.7 1 1 0 10.6 1.8l4.5-1a123.3 123.3 0 0116.9-2.3 1.2 1.2 0 100-2.4 1.2 1.2 0 000 2.4l3.8-.3a.8.8 0 10.1-1.6.8.8 0 000 1.6h1a.8.8 0 100-1.5.8.8 0 000 1.6 37.5 37.5 0 001.1-.7c0-.1 0-.3-.2-.3l-.8-.6-1-.1a37.2 37.2 0 00-7.3-.3l-3.7.3a124.6 124.6 0 00-15 3.4l-2.6 1.3c-.5.3-.8.7-1 1-.1.4 0 .8.1 1.1 0 .2.3.3.5.2.2 0 .3-.2.2-.4M147.4 95.8l-.5-2a.5.5 0 10-1 .4.5.5 0 001-.3l-.4-1a.6.6 0 10-.7.9.6.6 0 00.7-1c-.7 0-1 .2-1.1.3a.7.7 0 101.3.6.7.7 0 00-1.3-.6l-.4.4-.3 2.3a152.5 152.5 0 00-.1 10.8c.2 2.4.5 4.3.8 5.3l.4.7c.2.2.4.5.8.7.2 0 .7 0 .8-.2.2 0 .3-.3.4-.4v-.8c0-.6 0-1.6-.3-2.8l-1.4-4.9-2.5-8.3c-.5-2.4-1-4.8-1.2-6.7 0-1.7.1-2.7.6-3.3.4-.5.9-.8 1.6-1a5 5 0 012.5 0c1 .1 2 .5 3 1.2a12.2 12.2 0 014.7 8.2c.2 1.6 0 3-.6 4a1 1 0 00.4 1.5 1 1 0 10-.4-1.5c-.8 1.1-2 1.8-3.2 2a1 1 0 00-.8 1.1c0 .5.5.9 1 .8a1 1 0 00-.2-1.9c-1 .2-1.8 0-2.5-.5a.6.6 0 10-.9.9.6.6 0 001-.9 2.5 2.5 0 01-1-2.4c0-.2-.1-.3-.2-.3-.2 0-.3 0-.3.2-.4 1.2-.1 2.5.6 3.4.7 1 2 1.5 3.5 1.5a7.5 7.5 0 004.8-2.8 9.3 9.3 0 001-5.4c-.2-2-1-4.5-2.3-6.5-1-1.3-2.1-2.4-3.4-3.3a11 11 0 00-3.8-1.5c-1.2-.2-2.5 0-3.5.3s-2 1-2.5 2a7.6 7.6 0 00-.3 4.3c.3 2 .9 4.5 1.6 6.9.7 2.9 1.7 5.8 2.4 8.3l1.3 4.8v2.5l-.2.2.3-.4h1v-.3a30 30 0 01-.6-4.8l-.1-4.7a230 230 0 01-.2-8h-.5c-.5-.2-.4 0-.3.4.2.6.5 1.5 1 2a.4.4 0 00.5-.4M164.4 99.4c.2-.3.2-.7.1-1 0-.2-.3-.3-.5-.2-.3 0-.4.3-.3.5 0 .3.3.4.6.3.2 0 .3-.3.2-.6 0-.2-.3-.5-.5-.7a.5.5 0 10-.6.8.5.5 0 10.6-.8c-.5-.4-1.4-.5-2.2-.4a.7.7 0 10.3 1.3c.4 0 .6-.4.5-.8 0-.4-.4-.6-.8-.5-.8.1-1.8.6-2.7 1.4a12 12 0 00-1.8 2.4c-.7 1.4-1.4 3-1.9 4.6-.4 1.8-.6 3.5-.3 4.6.2.5.5 1 1 1.3.3.2 1 .3 1.4.2a9.1 9.1 0 004.1-3 19.9 19.9 0 004.5-10.3l-.2-.3-.5-.3c-.4.1-.6.3-.7.4l-.3.6a28.1 28.1 0 00-.7 7c.1.9.4 1.7.7 2.3a1 1 0 101.9-1 1 1 0 00-1.9 1c.4.6 1 1.2 1.5 1.5a1 1 0 101-1.7 1 1 0 00-1 1.7c.8.3 1.8.3 2.7 0 .3-.2.5-.5.4-.9a.6.6 0 10-1.2.4c0 .3.4.5.8.4.7-.3 1.6-1 2.3-2v-.3a.3.3 0 00-.4 0c-.8.7-1.6 1-2.3 1.1-.6 0-1 0-1.3-.4-.3-.2-.4-.4-.6-.8-.3-.5-.5-1-.6-1.6v-2.4a36.6 36.6 0 01.2-4.1l-.5.2s-.3 0-.5-.2V99l-.2.9a19.9 19.9 0 01-4.3 8c-1.3 1.4-2.4 2.2-3.2 2.2h-.2v-.2a8 8 0 01.3-3.7c.3-1.4.9-2.9 1.5-4.2l1.4-2.1a4 4 0 011.9-1.2c.6-.2 1-.2 1.3 0l.3.1c0 .1.1.2 0 .4a.4.4 0 10.7.3M174.5 99.2v.8c0 .2.2.4.4.4s.3-.2.3-.4a.4.4 0 10-.7 0l-.3.8c0 .3.3.6.6.6a.6.6 0 000-1.3c-.3 0-.6.3-.6.7l-.3 1.8a.8.8 0 101.6.2.8.8 0 00-1.6-.2l-.5 2.8a75.8 75.8 0 00-.4 5.6l.2 1c0 .3.3.6.6.8l.6.2a.7.7 0 100-1.4.7.7 0 000 1.4l.6-.2c.3-.2.4-.6.2-1a.7.7 0 00-1-.2.7.7 0 10.8 1.2l.7-.7c.2-.3.1-.7-.1-.9a.6.6 0 00-.8.1c-.2.3-.2.6 0 .8.3.2.7.2.9 0l.2-1v-.3c-.2-.1-.3 0-.4 0l-.7.5-.5.3h.4s0 .1 0 0v-.7l.2-2.3.4-3 .2-2.8v-2c0-.3-.2-.6-.3-.8v-.7c0-.2 0-.4-.2-.5-.2 0-.4.2-.5.4M175.3 93c-.6 0-1.2 0-1.6.2-.3.2-.4.5-.2.8a.6.6 0 10.2-.8c-.2 0-.4.2-.5.3a.7.7 0 101 1 .7.7 0 10-1-1l-.6.9a.8.8 0 101.7.3.8.8 0 00-1.7-.3l.3 1.7c.2.3.6.6 1 .4.4-.1.6-.6.5-1a.8.8 0 10-1.5.6l.3.5a.8.8 0 101.4-.6.8.8 0 00-1.4.6l1.1 1c0 .1.2.2.4 0v-.3l-.1-1.3-.2-.5c-.2-.4-.2-.6-.1-.8v-.3-.2c.2-.2.5-.3 1-.4.2 0 .4-.2.4-.4s-.2-.4-.4-.4M187.8 100.4c-.5-.8-2.2-2.1-3.7-2.8a.8.8 0 10-.5 1.5.8.8 0 00.5-1.5l-1.3-.5a1 1 0 00-1 .8c-.1.6.3 1 .8 1a1 1 0 00.2-1.8c-.5 0-1.1 0-1.6.2a1 1 0 101.2 1.8c.5-.3.6-1 .3-1.5a1 1 0 00-1.5-.3c-.4.3-.7.8-.7 1.2v1.1c.1 1.3.7 3.2 1.1 5a21 21 0 011.3 6.3l.3-.3-1.1-.2-1-.5a1 1 0 10-1 1.8 1 1 0 001-1.8l-1.2-.6a1 1 0 00-1.3.3 1 1 0 101.6 1c.3-.4.2-1-.3-1.3l-.5-.4a1 1 0 00-1.4.3 1 1 0 00.3 1.4c.4.3 1 .2 1.3-.3.4-.4.2-1-.2-1.4a34.5 34.5 0 01-2.3-.5v.3c.3.6.7 1.3 1.2 1.9a18 18 0 003 1.8c.7.3 1.5.6 2.2.7.6-.2 1.1-.5 1.3-.8.3-.3.4-.8.5-1.1.1-1.6-.5-4.3-1.3-7.2-.6-1.8-1.1-3.6-1.3-4.7v-.5l-.3.2h1.2c1.4.4 3 1.4 3.7 1.9h.5v-.5M68.2 122H67a.5.5 0 000 .9.5.5 0 100-1c-.2 0-.3 0-.4-.2-.4.1-.6.5-.6.8.1.4.5.7.8.6a.7.7 0 00-.2-1.4h.1a.8.8 0 100 1.5.8.8 0 000-1.5c.6.2.8.9 0 1.5.4 0 .8-.3.8-.8a.8.8 0 10-.8.8l.2.1 4.5-.3a119.6 119.6 0 018.8-.5c2.8 0 6 0 10.6-.2h3.4l6.3-.2 8.7-.2a653.7 653.7 0 009.2-.3 1721.7 1721.7 0 0144.9 0l8 .3 5.1.2a1382.6 1382.6 0 0112 .5l3.4.1a401.5 401.5 0 0026 .1c.6 0 1-.6 1-1.2a1.1 1.1 0 10-2.3.2c0 .6.6 1 1.2 1l1-.2a1.1 1.1 0 10-.8-2 1.1 1.1 0 00.8 2c.3-.2.8-.6 1-1a1 1 0 10-2-.7 1 1 0 002 .8c-.3-.8-.8-1.1-1.1-1.5a.3.3 0 00-.5.1c-.1.7-.2 1-.5.7 0-.2.3-.5.4-.5h-.5l-2 .1-6-.1a521.8 521.8 0 01-17.6-.4h-3.3a349.9 349.9 0 00-12-.5l-5.1-.2a475.3 475.3 0 00-28.5-.4c-8.3 0-16.7 0-24.6.2h-5.2l-4 .2-8.7.2-6.3.2h-3.5l-10.6.3a213.8 213.8 0 00-8.9.7l-4.6.7.1.1c-.8.7-.6 1.3 0 1.6l.3-.3 1.2-.2c.2 0 .3-.2.3-.4s-.2-.3-.4-.3zm0 0"/></svg>