<?xml version="1.0" ?><svg viewBox="50.234668 32.036001 10.890667 7.1200002" xmlns="http://www.w3.org/2000/svg" xmlns:xlink="http://www.w3.org/1999/xlink"><use x="15.938" xlink:href="#a" y="12.374"/><path d="M37.676 29.367c.039-.715 1.433-2.926 2.445-5.34a.836.836 0 00-.5-1.07.832.832 0 00-1.066.5.837.837 0 00.5 1.07.835.835 0 001.066-.5c.559-1.625.953-3.34.969-4.562a1.016 1.016 0 00-1.059-.969c-.562.024-.996.5-.968 1.059a1.014 1.014 0 102.027-.09c-.004-.508-.133-1.102-.363-1.52a1.087 1.087 0 00-1.512-.277 1.086 1.086 0 101.23 1.789c.496-.34.621-1.016.282-1.512-.313-.433-1.125-.824-1.715-.8-.657-.043-1.856.421-2.844 1.328-1.262 1.46-2.598 3.793-3.73 6.832-1.422 4.218-2.641 9.761-3.004 14.84-.25 2.523-.262 4.898.062 6.765.68 2.621 2.395 4.64 4.387 5.309a1.79 1.79 0 002.215-1.242 1.794 1.794 0 00-1.243-2.215 1.797 1.797 0 00-2.214 1.242c-.27.957.289 1.95 1.242 2.215 1.703.23 3.59-.188 5.199-.961a1.626 1.626 0 10-1.332-2.969 1.62 1.62 0 00-.816 2.149 1.627 1.627 0 002.148.82c2.063-1.117 4.266-2.985 6.063-5.188a1.164 1.164 0 00-.083-1.648 1.172 1.172 0 00-1.652.078 1.172 1.172 0 00.082 1.652c.48.434 1.219.399 1.653-.082 1.195-1.738 2.246-3.746 2.937-5.797a.32.32 0 00-.145-.425.32.32 0 00-.425.144 21.144 21.144 0 01-4.098 4.508c-1.855 1.828-3.809 3.125-5.668 3.79-1.32.542-2.238.683-3.047.437-.86-.141-1.363-.711-1.828-2.575-.3-1.402-.328-3.324-.125-5.757C32.97 35.5 34 30.297 35.25 26.254c.941-2.848 1.965-4.817 2.89-6.012.524-.633.766-.777 1.02-.793.18-.074-.207-.262-.226-.27.062.009.09.055.129.384.109.937-.118 2.406-.524 3.937-.715 2.348-1.906 4.738-1.762 5.922a.45.45 0 00.899-.055M63.574 24.77c.153-.72-.004-1.512-.191-2.043a.558.558 0 10-1.026.438.558.558 0 001.026-.438 5.578 5.578 0 00-.285-.965.8.8 0 00-1.125-.059.797.797 0 00-.055 1.125.792.792 0 001.121.055.792.792 0 00.059-1.121 1.361 1.361 0 00-.246-.27.852.852 0 10-.805 1.504.851.851 0 001.152-.348.854.854 0 00-.347-1.156c-.418-.129-1.036.094-1.153.192-.25.527-.261.87-.25 1.074.48 1.23 1.672 3.828 2.406 7.34.403 2.562.594 5.648.594 8.582.063 1.793.067 3.425-.023 4.851-.102 1.332-.25 2.403-.457 3.29-.2.855-.38 1.308-.625 1.62a1.632 1.632 0 102.691 1.848 1.632 1.632 0 00-2.691-1.848c-.13.192-.047.114-.098.098a1.658 1.658 0 101.293 3.055 1.653 1.653 0 00.879-2.172 1.658 1.658 0 00-2.172-.883c-.039.129.113.172-.305.008a1.522 1.522 0 00-2.023.734 1.523 1.523 0 00.738 2.02 1.519 1.519 0 101.285-2.754c-1.566-.258-3.988-2.363-7.375-6.531a.314.314 0 00-.441-.078.315.315 0 00-.078.44c2.77 4.684 4.887 7.622 6.601 8.919.82.418 2.028.562 2.903.293.535-.262 1.148-.813 1.484-1.3.45-.704.824-1.72 1.05-2.778.22-1.047.376-2.344.466-3.782.078-1.558.058-3.328-.024-5.14-.109-2.992-.425-6.285-.972-9.067-1.051-3.785-2.575-6.57-3.196-7.523.02.152-.007.344-.14.68-.196.222-.785.43-1.172.316-.067-.066-.137-.148-.129-.168.086-.031.25.094.441.336.22.418.395.93.328 1.445a.45.45 0 00.887.16"/><path d="M45.684 25.492c-.04-.3.007-.305.16-.379a.662.662 0 00-.23-.91.667.667 0 00-.91.23.667.667 0 00.233.91.661.661 0 00.907-.23c.113-.082.316-.14.86-.32a.88.88 0 00.41-1.168.874.874 0 00-1.169-.41.871.871 0 00-.41 1.168.871.871 0 001.168.41c.723-.29 1.7-.586 3.145-.945.613-.2.949-.856.754-1.473a1.17 1.17 0 00-2.227.719c.2.613.855.949 1.473.754 1.492-.422 3.375-.875 5.59-1.356 3.87-.82 8.527-1.66 12.714-2.164a89.216 89.216 0 014.356-.48 69.275 69.275 0 013.902-.176 1.449 1.449 0 10-.043-2.899c-.8.012-1.437.668-1.43 1.47.012.8.672 1.44 1.473 1.429a82.643 82.643 0 014.754-.336 1.011 1.011 0 10.139-2.018 1.011 1.011 0 00-.139 2.018c.45.02.86.043 1.238.07a.976.976 0 10.211-1.941.972.972 0 00-1.074.867.974.974 0 00.863 1.074c.414-.183.79-.355 1.149-.527a.318.318 0 00.355-.277.316.316 0 00-.273-.356 9.995 9.995 0 00-1.04-.785c-.386-.05-.827-.098-1.284-.145-1.387-.242-3.067-.43-4.946-.543-1.25.02-2.625.079-4.054.18-1.43.074-2.965.2-4.547.363-4.278.684-9.02 1.707-12.903 2.7-2.226.55-4.172 1.093-5.71 1.601-1.47.574-2.547 1.125-3.25 1.621-.544.34-.997.77-1.188 1.188-.164.46-.086.996.125 1.375a.452.452 0 00.578.27.457.457 0 00.27-.579M109.453 29.516c-.316-.567-.527-1.578-.726-2.383a.634.634 0 00-1.204.394c.11.332.47.512.797.403a.635.635 0 00.407-.797c-.09-.418-.211-.895-.5-1.246a.69.69 0 00-.965.125.69.69 0 00.125.965c.3.23.734.175.965-.125a.69.69 0 00-.125-.965c-.864-.09-1.207.156-1.36.304a.9.9 0 00.442 1.196.901.901 0 001.199-.442.902.902 0 10-1.64-.754c-.126.098-.266.297-.384.47-.168.558-.308 1.48-.406 2.804-.105 2.035-.156 4.758-.172 7.508-.031 1.988-.047 4.058 0 5.91.239 2.937.645 5.281 1.035 6.605.16.375.336.692.493.895.175.23.523.57.972.762.281.054.856-.043 1.004-.137.203-.164.418-.45.477-.606.066-.27.097-.601.082-.902-.016-.828-.125-2.066-.387-3.48-.406-1.73-1.07-3.766-1.84-6.098-.93-3.074-2.055-6.68-2.988-10.246-.723-3.008-1.313-5.969-1.535-8.352-.114-2.058.101-3.304.746-4.097.46-.645 1.066-1.024 2.004-1.278.926-.277 1.89-.293 3.09-.035 1.25.227 2.433.703 3.656 1.508 1.2.898 2.347 2.098 3.336 3.473a15.149 15.149 0 012.531 6.664c.262 2.109-.02 3.718-.785 5.007a1.358 1.358 0 00.48 1.86c.649.379 1.48.16 1.86-.485a1.358 1.358 0 00-2.34-1.375c-.895 1.45-2.43 2.254-3.98 2.528a1.194 1.194 0 00.363 2.36 1.193 1.193 0 00-.363-2.36c-1.227.293-2.204.078-3.012-.574a.753.753 0 10-1.078 1.055c.289.3.77.304 1.066.01.297-.292.3-.769.012-1.065-.887-.676-1.36-1.68-1.203-3.055a.317.317 0 00-.243-.375.323.323 0 00-.379.242c-.46 1.54-.113 3.125.743 4.242.933 1.125 2.62 1.89 4.394 1.887 2.051-.277 4.485-1.469 5.965-3.434 1.066-1.828 1.535-4.28 1.29-6.793-.306-2.562-1.313-5.527-2.946-8.011-1.18-1.567-2.64-3.04-4.13-4.121-1.562-.957-3.257-1.582-4.776-1.829-1.493-.218-3.07-.097-4.317.336-1.238.457-2.426 1.348-3.133 2.418-.664 1.434-.715 3.29-.34 5.473.36 2.445 1.094 5.46 1.942 8.457.953 3.594 2.101 7.215 3.043 10.281.687 2.36 1.254 4.367 1.547 6.008.097 1.313.058 2.406-.075 3.117-.054.192-.097.2-.144.176.023-.078.184-.297.324-.426.086-.062.594-.14.91-.078.2.098.383.235.38.133-.005-.09-.009-.215-.048-.469-.27-1.094-.578-3.199-.746-5.972-.078-1.747-.101-3.758-.105-5.766a256.078 256.078 0 01-.176-7.418c.004-1.246.04-1.984.086-2.383-.047-.125-.113-.16-.176-.183-.062-.055-.324.109-.547.128-.652-.324-.566-.058-.433.383.32.774.683 1.86 1.191 2.528a.452.452 0 00.75-.5M130.48 33.96c.192-.358.247-.827.168-1.175a.543.543 0 00-.695-.336.54.54 0 00-.336.696.54.54 0 00.696.335.543.543 0 00.335-.695c-.101-.351-.382-.726-.683-.965a.645.645 0 00-.89.2.641.641 0 00.198.886.644.644 0 00.691-1.086c-.632-.433-1.683-.64-2.722-.484a.838.838 0 10.368 1.635.838.838 0 00-.368-1.635c-1.012.2-2.219.789-3.289 1.738-.805.805-1.586 1.848-2.262 3.012-.937 1.71-1.77 3.777-2.316 5.648-.582 2.23-.766 4.375-.434 5.778.207.613.657 1.25 1.141 1.578.496.281 1.277.402 1.883.305 1.457-.383 3.344-1.7 5.039-3.688a35.744 35.744 0 002.879-4.191c1.418-2.672 2.191-5.2 2.472-6.782.172-.816.235-1.476.196-1.828a1.796 1.796 0 00-.235-.488c-.234-.176-.597-.262-.609-.27-.441.09-.773.375-.863.497-.11.109-.254.386-.367.667-.297 1.145-.625 3.153-.801 5.172-.094 1.16-.137 2.399-.067 3.5.172 1.13.496 2.13.907 2.895a1.3 1.3 0 001.773.492 1.305 1.305 0 00.496-1.773 1.306 1.306 0 00-1.777-.496 1.305 1.305 0 00-.492 1.777c.46.754 1.164 1.465 1.859 1.86a1.247 1.247 0 001.242-2.16 1.246 1.246 0 00-1.242 2.16c.988.363 2.246.35 3.277-.09a.781.781 0 00.532-.97.775.775 0 00-.965-.534.78.78 0 00-.535.968.787.787 0 00.968.535c.953-.445 1.965-1.27 2.891-2.433a.316.316 0 00-.008-.45.311.311 0 00-.445.005c-1.074.882-2.016 1.296-2.871 1.375-.781.082-1.18-.118-1.602-.567-.36-.21-.57-.465-.836-.988-.316-.516-.527-1.086-.676-1.918-.097-.867-.101-1.93-.058-3.047.047-1.95.234-3.836.379-4.844.008-.152-.004-.215-.035-.21 0-.044-.282.19-.684.28.012-.007-.332-.093-.55-.253-.005-.016-.114-.18-.15-.27-.003-.082-.027.36-.163 1.094-.367 1.437-1.164 3.7-2.598 6.148a32.78 32.78 0 01-2.754 3.848c-1.578 1.727-3.008 2.625-3.957 2.742-.222.047-.156.05-.222-.023-.083-.028-.047 0-.118-.27-.25-.863-.11-2.492.426-4.535a26.55 26.55 0 011.934-5.246c.554-1.07 1.14-1.938 1.773-2.637.797-.832 1.54-1.27 2.29-1.48.745-.246 1.28-.235 1.667-.055.192.078.266.11.332.23.086.13.117.22.04.45a.448.448 0 00.23.593.45.45 0 00.593-.226M143.05 33.672c-.038.308-.034.633-.034 1.039a.45.45 0 10.453-.453.453.453 0 00-.453.453c-.114.258-.23.566-.36.937a.799.799 0 00.762.832.802.802 0 00.832-.765.802.802 0 00-.766-.832.798.798 0 00-.828.765c-.12.594-.265 1.344-.457 2.297a1.043 1.043 0 002.074.23 1.042 1.042 0 00-.921-1.152 1.046 1.046 0 00-1.153.922c-.176 1.035-.39 2.258-.597 3.5a92.05 92.05 0 00-.461 3.723c-.067 1.184-.082 2.305 0 3.18.039.441.117.879.222 1.215.121.359.399.82.73 1.07.169.094.54.203.766.195a.887.887 0 100-1.773.886.886 0 100 1.773c.211-.027.516-.133.7-.25a.836.836 0 00.3-1.14.831.831 0 00-1.14-.301.83.83 0 00-.301 1.136.836.836 0 001.14.305c.25-.176.583-.523.872-.93a.72.72 0 00-.094-1.02.725.725 0 10.094 1.02c.097-.328.215-.718.34-1.148a.315.315 0 00-.086-.438.32.32 0 00-.442.086c-.34.262-.644.45-.926.575-.289.293-.441.382-.55.386-.07.028.054-.027.093-.054.063-.008.286.05.356.066.039.04.12.125.101-.055a4.781 4.781 0 01-.03-.812c.007-.754.105-1.73.253-2.867a92.4 92.4 0 01.39-3.637c.122-1.246.247-2.48.34-3.559a25.69 25.69 0 00-.023-2.46 5.762 5.762 0 00-.328-1.024c0-.406-.004-.676.027-.926a.448.448 0 00-.39-.5.45.45 0 00-.504.39M143.965 26.09c-.754-.07-1.457.012-1.977.203a.737.737 0 10.768 1.258.737.737 0 00-.768-1.258 3.156 3.156 0 00-.605.309.89.89 0 101.33 1.183.89.89 0 00-1.33-1.183c-.297.285-.563.761-.68 1.168a1.02 1.02 0 101.168-.848 1.016 1.016 0 00-1.168.848c-.058.601.082 1.363.356 2.046a.939.939 0 101.767-.64.939.939 0 00-1.767.64c.078.227.183.48.296.723a.95.95 0 001.262.445.95.95 0 00.446-1.261.95.95 0 00-1.262-.446.95.95 0 00-.446 1.262c.41.371.887.79 1.403 1.195.094.145.289.188.437.094a.32.32 0 00.094-.441 7.485 7.485 0 01-.226-1.664 5.685 5.685 0 01-.239-.547c-.172-.54-.191-.824-.11-1.082-.023-.172-.066-.188 0-.309 0-.082-.003-.14.071-.254.2-.242.559-.43 1.2-.539a.45.45 0 10-.02-.902M159.469 35.152c-.664-.894-2.696-2.586-4.621-3.394a.958.958 0 10-.584 1.825.958.958 0 00.584-1.825 8.16 8.16 0 00-1.606-.598 1.147 1.147 0 00-1.265 1.008 1.147 1.147 0 001.007 1.266 1.147 1.147 0 001.266-1.008 1.147 1.147 0 00-1.008-1.266c-.547-.117-1.344-.086-1.953.188a1.325 1.325 0 00-.383 1.836 1.324 1.324 0 001.836.382 1.324 1.324 0 00.383-1.836 1.325 1.325 0 00-1.836-.382c-.476.402-.809 1.02-.906 1.453-.074.398-.082.926-.04 1.418.216 1.64.895 3.984 1.505 6.222.98 3.528 1.644 6.559 1.43 7.743-.008.183.05.05.066 0 .09-.063.418-.258.457-.282-.063.086-.57 0-1.395-.293a14.698 14.698 0 01-1.285-.605 1.277 1.277 0 10-1.238 2.234 1.277 1.277 0 101.238-2.234 21.224 21.224 0 01-1.375-.781 1.24 1.24 0 10-1.359 2.073 1.24 1.24 0 001.36-2.073c-.24-.149-.462-.293-.692-.45a1.23 1.23 0 00-1.711.313 1.229 1.229 0 101.71-.313c-.859-.222-1.679-.457-2.437-.703a.32.32 0 00-.449.035.32.32 0 00.039.45c.395.734.91 1.5 1.453 2.242.235.164.488.34.738.508.48.328 1 .652 1.485.933.488.285 1 .559 1.469.778.937.476 1.984.828 2.82.87.68-.132 1.344-.546 1.648-.902.278-.418.48-1.011.54-1.43.18-1.886-.594-5.335-1.637-8.929-.668-2.25-1.364-4.441-1.582-5.773-.055-.325-.07-.477-.059-.602-.008-.094-.156.152-.23.238-.176-.004-.207-.039.132-.054.352-.028.758.027 1.25.136 1.793.387 3.797 1.657 4.598 2.22a.45.45 0 00.637-.638M11.2 61.996c-.177-.012-.895-.031-1.36-.07a.563.563 0 10-.006 1.13.563.563 0 00.006-1.13c-.172-.09-.3-.184-.45-.262a.855.855 0 10.27 1.69.855.855 0 00-.27-1.69c.122-.035.114-.059.106-.086a.929.929 0 10.006 1.857.929.929 0 00-.006-1.857c.73.324.957 1.094-.004 1.922a1 1 0 10.001-1.999 1 1 0 000 1.999c.007.047.167.09.288.117.664-.008 2.711-.152 5.574-.347 1.403-.137 2.965-.278 4.75-.395 1.805-.094 3.856-.156 6.118-.219 3.449-.101 7.43-.168 13.105-.293 1.367-.035 2.8-.07 4.274-.105 2.367-.047 4.933-.113 7.832-.176 3.336-.07 6.972-.156 10.785-.242 1.668-.063 3.332-.121 4.984-.188 2.086-.047 4.246-.086 6.422-.12 9.742-.157 20.145-.231 30.484-.243l6.871.012c3.844.004 7.575.027 11.301.074 2.356.043 4.696.098 6.953.156 3.645.09 6.993.207 10.024.34 2.12.07 4.215.149 6.254.215 3.218.113 6.27.23 9.304.352 1.817.082 3.688.167 5.621.273 1.415.062 2.766.117 4.094.168 4.57.164 8.867.293 12.797.328 3.598.023 6.684.008 9.215-.027 3.262 0 5.629-.004 7.324-.055 1.27-.023 2.207-.078 2.856-.156a1.39 1.39 0 10-.274-2.766 1.39 1.39 0 00.274 2.766c.453-.055.906-.149 1.246-.282a1.372 1.372 0 10-1.033-2.542 1.372 1.372 0 001.033 2.542c.34-.156.894-.69 1.07-1.117.238-.699-.14-1.457-.84-1.691a1.338 1.338 0 00-.852 2.535c.7.234 1.458-.144 1.692-.844-.21-.965-.848-1.379-1.305-1.8a.318.318 0 10-.613.164c-.137.777-.219 1.191-.617.793.105-.211.465-.563.484-.602-.086.04-.187.047-.547.078-.543.04-1.359.05-2.597.043-1.664-.016-4.004-.07-7.29-.137a585.43 585.43 0 01-9.19-.129c-3.9-.03-8.157-.156-12.716-.316-1.32-.047-2.668-.098-4.058-.156-1.93-.094-3.817-.176-5.653-.246-3.046-.098-6.105-.188-9.328-.278-2.027-.066-4.12-.14-6.234-.207a548.08 548.08 0 00-10.063-.304 906.395 906.395 0 00-6.984-.149c-3.75-.035-7.496-.047-11.348-.043l-6.87.012a2043.811 2043.811 0 00-36.993.281c-1.672.051-3.328.094-4.984.133-3.805.102-7.438.2-10.774.285-2.906.086-5.472.176-7.828.246-1.472.032-2.906.067-4.277.098-5.668.144-9.656.23-13.129.352-2.27.09-4.352.18-6.223.3-1.843.176-3.453.371-4.836.559-2.832.344-4.894.637-5.64.808-.04.055.074.094.066.145-.96.828-.734 1.613.004 1.934a.277.277 0 01.031-.07c.09-.106.184-.204.344-.31.445-.034 1.203-.093 1.465-.167a.45.45 0 00.375-.516.445.445 0 00-.512-.375zm0 0"/></svg>